Isotherma-Alpha.ufo
<glyph name="hyphen" format="1">
  <advance width="674"/>
  <unicode hex="002D"/>
  <outline>
    <contour>
      <point x="236" y="366" type="line" smooth="yes"/>
      <point x="225" y="366"/>
      <point x="215" y="368"/>
      <point x="202" y="368" type="curve" smooth="yes"/>
      <point x="187" y="368"/>
      <point x="175" y="345"/>
      <point x="166" y="336" type="curve" smooth="yes"/>
      <point x="90" y="260" type="line" smooth="yes"/>
      <point x="79" y="249"/>
      <point x="58" y="237"/>
      <point x="58" y="224" type="curve" smooth="yes"/>
      <point x="58" y="216"/>
      <point x="65" y="208"/>
      <point x="74" y="208" type="curve" smooth="yes"/>
      <point x="86" y="208"/>
      <point x="93" y="223"/>
      <point x="98" y="228" type="curve" smooth="yes"/>
      <point x="112" y="242" type="line" smooth="yes"/>
      <point x="123" y="253"/>
      <point x="131" y="258"/>
      <point x="152" y="258" type="curve" smooth="yes"/>
      <point x="438" y="258" type="line" smooth="yes"/>
      <point x="449" y="258"/>
      <point x="459" y="256"/>
      <point x="472" y="256" type="curve" smooth="yes"/>
      <point x="487" y="256"/>
      <point x="499" y="279"/>
      <point x="508" y="288" type="curve" smooth="yes"/>
      <point x="584" y="364" type="line" smooth="yes"/>
      <point x="595" y="375"/>
      <point x="616" y="387"/>
      <point x="616" y="400" type="curve" smooth="yes"/>
      <point x="616" y="408"/>
      <point x="609" y="416"/>
      <point x="600" y="416" type="curve" smooth="yes"/>
      <point x="588" y="416"/>
      <point x="581" y="401"/>
      <point x="576" y="396" type="curve" smooth="yes"/>
      <point x="562" y="382" type="line" smooth="yes"/>
      <point x="551" y="371"/>
      <point x="543" y="366"/>
      <point x="522" y="366" type="curve" smooth="yes"/>
    </contour>
  </outline>
</glyph>
<glyph name="D" format="1">
  <advance width="696"/>
  <unicode hex="0044"/>
  <outline>
    <contour>
      <point x="-312" y="576" type="curve" smooth="yes"/>
      <point x="-300" y="576"/>
      <point x="-295" y="589"/>
      <point x="-284" y="600" type="curve" smooth="yes"/>
      <point x="-268" y="616"/>
      <point x="-263" y="618"/>
      <point x="-252" y="618" type="curve" smooth="yes"/>
      <point x="144" y="618" type="line" smooth="yes"/>
      <point x="168" y="618"/>
      <point x="180" y="624"/>
      <point x="196" y="640" type="curve" smooth="yes"/>
      <point x="280" y="724" type="line" smooth="yes"/>
      <point x="291" y="735"/>
      <point x="304" y="739"/>
      <point x="304" y="752" type="curve" smooth="yes"/>
      <point x="304" y="761"/>
      <point x="297" y="768"/>
      <point x="288" y="768" type="curve" smooth="yes"/>
      <point x="275" y="768"/>
      <point x="271" y="755"/>
      <point x="260" y="744" type="curve" smooth="yes"/>
      <point x="244" y="728"/>
      <point x="239" y="726"/>
      <point x="228" y="726" type="curve" smooth="yes"/>
      <point x="-168" y="726" type="line" smooth="yes"/>
      <point x="-192" y="726"/>
      <point x="-204" y="720"/>
      <point x="-220" y="704" type="curve" smooth="yes"/>
      <point x="-304" y="620" type="line" smooth="yes"/>
      <point x="-315" y="609"/>
      <point x="-328" y="604"/>
      <point x="-328" y="592" type="curve" smooth="yes"/>
      <point x="-328" y="583"/>
      <point x="-321" y="576"/>
    </contour>
    <contour>
      <point x="468" y="117" type="line"/>
      <point x="463" y="117"/>
      <point x="455" y="120"/>
      <point x="450" y="123" type="curve"/>
      <point x="346" y="175" type="line"/>
      <point x="343" y="176"/>
      <point x="340" y="178"/>
      <point x="337" y="180" type="curve"/>
      <point x="345" y="191"/>
      <point x="348" y="203"/>
      <point x="348" y="220" type="curve" smooth="yes"/>
      <point x="348" y="648" type="line"/>
      <point x="351" y="648"/>
      <point x="353" y="648"/>
      <point x="354" y="648" type="curve" smooth="yes"/>
      <point x="357" y="648"/>
      <point x="359" y="647"/>
      <point x="361" y="645" type="curve" smooth="yes"/>
      <point x="503" y="503" type="line" smooth="yes"/>
      <point x="514" y="492"/>
      <point x="522" y="483"/>
      <point x="522" y="462" type="curve"/>
      <point x="521" y="120" type="line"/>
      <point x="638" y="120" type="line"/>
      <point x="638" y="538" type="line" smooth="yes"/>
      <point x="638" y="562"/>
      <point x="633" y="573"/>
      <point x="616" y="590" type="curve" smooth="yes"/>
      <point x="470" y="736" type="line" smooth="yes"/>
      <point x="453" y="753"/>
      <point x="447" y="768"/>
      <point x="434" y="768" type="curve" smooth="yes"/>
      <point x="382" y="768" type="line" smooth="yes"/>
      <point x="369" y="768"/>
      <point x="365" y="755"/>
      <point x="354" y="744" type="curve" smooth="yes"/>
      <point x="254" y="644" type="line" smooth="yes"/>
      <point x="238" y="628"/>
      <point x="232" y="616"/>
      <point x="232" y="592" type="curve" smooth="yes"/>
      <point x="232" y="140" type="line" smooth="yes"/>
      <point x="232" y="116"/>
      <point x="222" y="104"/>
      <point x="206" y="88" type="curve" smooth="yes"/>
      <point x="202" y="84" type="line" smooth="yes"/>
      <point x="191" y="73"/>
      <point x="178" y="68"/>
      <point x="178" y="56" type="curve" smooth="yes"/>
      <point x="178" y="47"/>
      <point x="185" y="40"/>
      <point x="194" y="40" type="curve" smooth="yes"/>
      <point x="206" y="40"/>
      <point x="211" y="53"/>
      <point x="222" y="64" type="curve" smooth="yes"/>
      <point x="227" y="69"/>
      <point x="232" y="75"/>
      <point x="240" y="75" type="curve" smooth="yes"/>
      <point x="245" y="75"/>
      <point x="253" y="72"/>
      <point x="258" y="69" type="curve"/>
      <point x="364" y="16" type="line" smooth="yes"/>
      <point x="372" y="12"/>
      <point x="383" y="0"/>
      <point x="394" y="0" type="curve"/>
    </contour>
    <contour>
      <point x="24" y="0" type="curve" smooth="yes"/>
      <point x="37" y="0"/>
      <point x="41" y="13"/>
      <point x="52" y="24" type="curve" smooth="yes"/>
      <point x="152" y="124" type="line" smooth="yes"/>
      <point x="168" y="140"/>
      <point x="174" y="152"/>
      <point x="174" y="176" type="curve" smooth="yes"/>
      <point x="174" y="498" type="line" smooth="yes"/>
      <point x="174" y="522"/>
      <point x="184" y="534"/>
      <point x="200" y="550" type="curve" smooth="yes"/>
      <point x="211" y="561"/>
      <point x="224" y="565"/>
      <point x="224" y="578" type="curve" smooth="yes"/>
      <point x="224" y="587"/>
      <point x="217" y="594"/>
      <point x="208" y="594" type="curve" smooth="yes"/>
      <point x="195" y="594"/>
      <point x="191" y="581"/>
      <point x="180" y="570" type="curve" smooth="yes"/>
      <point x="80" y="470" type="line" smooth="yes"/>
      <point x="64" y="454"/>
      <point x="58" y="442"/>
      <point x="58" y="418" type="curve" smooth="yes"/>
      <point x="58" y="96" type="line" smooth="yes"/>
      <point x="58" y="72"/>
      <point x="48" y="60"/>
      <point x="32" y="44" type="curve" smooth="yes"/>
      <point x="21" y="33"/>
      <point x="8" y="29"/>
      <point x="8" y="16" type="curve" smooth="yes"/>
      <point x="8" y="7"/>
      <point x="15" y="0"/>
    </contour>
  </outline>
</glyph>
<glyph name="E" format="1">
  <advance width="542"/>
  <unicode hex="0045"/>
  <outline>
    <contour>
      <point x="145" y="227" type="curve" smooth="yes"/>
      <point x="143" y="227"/>
      <point x="142" y="228"/>
      <point x="141" y="229" type="curve" smooth="yes"/>
      <point x="126" y="244"/>
      <point x="116" y="256"/>
      <point x="116" y="280" type="curve" smooth="yes"/>
      <point x="116" y="552" type="line" smooth="yes"/>
      <point x="116" y="576"/>
      <point x="126" y="588"/>
      <point x="142" y="604" type="curve" smooth="yes"/>
      <point x="164" y="626" type="line" smooth="yes"/>
      <point x="166" y="628"/>
      <point x="168" y="630"/>
      <point x="170" y="630" type="curve" smooth="yes"/>
      <point x="173" y="630"/>
      <point x="174" y="629"/>
      <point x="174" y="626" type="curve" smooth="yes"/>
      <point x="174" y="280" type="line" smooth="yes"/>
      <point x="174" y="257"/>
      <point x="165" y="245"/>
      <point x="149" y="229" type="curve" smooth="yes"/>
      <point x="148" y="228"/>
      <point x="147" y="227"/>
    </contour>
    <contour>
      <point x="418" y="22" type="curve" smooth="yes"/>
      <point x="502" y="106" type="line" smooth="yes"/>
      <point x="513" y="117"/>
      <point x="526" y="124"/>
      <point x="526" y="136" type="curve" smooth="yes"/>
      <point x="526" y="145"/>
      <point x="519" y="150"/>
      <point x="510" y="150" type="curve" smooth="yes"/>
      <point x="498" y="150"/>
      <point x="493" y="137"/>
      <point x="482" y="126" type="curve" smooth="yes"/>
      <point x="466" y="110"/>
      <point x="461" y="108"/>
      <point x="450" y="108" type="curve" smooth="yes"/>
      <point x="298" y="108" type="line" smooth="yes"/>
      <point x="276" y="108"/>
      <point x="260" y="110"/>
      <point x="243" y="127" type="curve" smooth="yes"/>
      <point x="168" y="202"/>
      <point x="167" y="203"/>
      <point x="167" y="205" type="curve" smooth="yes"/>
      <point x="167" y="207"/>
      <point x="168" y="208"/>
      <point x="170" y="210" type="curve" smooth="yes"/>
      <point x="248" y="288" type="line" smooth="yes"/>
      <point x="264" y="304"/>
      <point x="269" y="306"/>
      <point x="280" y="306" type="curve" smooth="yes"/>
      <point x="410" y="306" type="line" smooth="yes"/>
      <point x="434" y="306"/>
      <point x="446" y="312"/>
      <point x="462" y="328" type="curve" smooth="yes"/>
      <point x="514" y="380" type="line" smooth="yes"/>
      <point x="525" y="391"/>
      <point x="526" y="393"/>
      <point x="526" y="400" type="curve" smooth="yes"/>
      <point x="526" y="409"/>
      <point x="519" y="414"/>
      <point x="510" y="414" type="curve" smooth="yes"/>
      <point x="364" y="414" type="line" smooth="yes"/>
      <point x="340" y="414"/>
      <point x="328" y="408"/>
      <point x="312" y="392" type="curve" smooth="yes"/>
      <point x="300" y="380" type="line" smooth="yes"/>
      <point x="298" y="378"/>
      <point x="296" y="376"/>
      <point x="294" y="376" type="curve" smooth="yes"/>
      <point x="291" y="376"/>
      <point x="290" y="377"/>
      <point x="290" y="380" type="curve" smooth="yes"/>
      <point x="290" y="617" type="line" smooth="yes"/>
      <point x="290" y="620"/>
      <point x="291" y="621"/>
      <point x="294" y="621" type="curve"/>
      <point x="409" y="583"/>
      <point x="419" y="576"/>
      <point x="430" y="576" type="curve" smooth="yes"/>
      <point x="443" y="576"/>
      <point x="447" y="589"/>
      <point x="458" y="600" type="curve" smooth="yes"/>
      <point x="502" y="644" type="line" smooth="yes"/>
      <point x="513" y="655"/>
      <point x="526" y="659"/>
      <point x="526" y="672" type="curve" smooth="yes"/>
      <point x="526" y="687"/>
      <point x="505" y="689"/>
      <point x="494" y="693" type="curve" smooth="yes"/>
      <point x="302" y="757" type="line" smooth="yes"/>
      <point x="293" y="760"/>
      <point x="285" y="766"/>
      <point x="276" y="767" type="curve"/>
      <point x="270" y="768"/>
      <point x="270" y="768"/>
      <point x="270" y="768" type="curve"/>
      <point x="257" y="768"/>
      <point x="253" y="755"/>
      <point x="242" y="744" type="curve" smooth="yes"/>
      <point x="22" y="524" type="line" smooth="yes"/>
      <point x="6" y="508"/>
      <point x="0" y="496"/>
      <point x="0" y="472" type="curve" smooth="yes"/>
      <point x="0" y="200" type="line" smooth="yes"/>
      <point x="0" y="176"/>
      <point x="6" y="164"/>
      <point x="22" y="148" type="curve" smooth="yes"/>
      <point x="149" y="21" type="line" smooth="yes"/>
      <point x="166" y="4"/>
      <point x="179" y="0"/>
      <point x="202" y="0" type="curve" smooth="yes"/>
      <point x="366" y="0" type="line" smooth="yes"/>
      <point x="390" y="0"/>
      <point x="402" y="6"/>
    </contour>
  </outline>
</glyph>
<glyph name="F" format="1">
  <advance width="648"/>
  <unicode hex="0046"/>
  <outline>
    <contour>
      <point x="392" y="626" type="curve" smooth="yes"/>
      <point x="392" y="-72" type="line" smooth="yes"/>
      <point x="392" y="-96"/>
      <point x="382" y="-108"/>
      <point x="366" y="-124" type="curve" smooth="yes"/>
      <point x="342" y="-148" type="line" smooth="yes"/>
      <point x="331" y="-159"/>
      <point x="318" y="-163"/>
      <point x="318" y="-176" type="curve" smooth="yes"/>
      <point x="318" y="-185"/>
      <point x="325" y="-192"/>
      <point x="334" y="-192" type="curve" smooth="yes"/>
      <point x="347" y="-192"/>
      <point x="351" y="-179"/>
      <point x="362" y="-168" type="curve" smooth="yes"/>
      <point x="486" y="-44" type="line" smooth="yes"/>
      <point x="502" y="-28"/>
      <point x="508" y="-16"/>
      <point x="508" y="8" type="curve" smooth="yes"/>
      <point x="508" y="298" type="line" smooth="yes"/>
      <point x="508" y="304"/>
      <point x="510" y="306"/>
      <point x="516" y="306" type="curve" smooth="yes"/>
      <point x="532" y="306" type="line" smooth="yes"/>
      <point x="556" y="306"/>
      <point x="568" y="312"/>
      <point x="584" y="328" type="curve" smooth="yes"/>
      <point x="636" y="380" type="line" smooth="yes"/>
      <point x="647" y="391"/>
      <point x="648" y="393"/>
      <point x="648" y="400" type="curve" smooth="yes"/>
      <point x="648" y="409"/>
      <point x="641" y="414"/>
      <point x="632" y="414" type="curve" smooth="yes"/>
      <point x="516" y="414" type="line" smooth="yes"/>
      <point x="510" y="414"/>
      <point x="508" y="416"/>
      <point x="508" y="422" type="curve" smooth="yes"/>
      <point x="508" y="617" type="line" smooth="yes"/>
      <point x="508" y="620"/>
      <point x="509" y="621"/>
      <point x="512" y="621" type="curve"/>
      <point x="627" y="583"/>
      <point x="637" y="576"/>
      <point x="648" y="576" type="curve" smooth="yes"/>
      <point x="661" y="576"/>
      <point x="665" y="589"/>
      <point x="676" y="600" type="curve" smooth="yes"/>
      <point x="720" y="644" type="line" smooth="yes"/>
      <point x="731" y="655"/>
      <point x="744" y="659"/>
      <point x="744" y="672" type="curve" smooth="yes"/>
      <point x="744" y="687"/>
      <point x="723" y="689"/>
      <point x="712" y="693" type="curve" smooth="yes"/>
      <point x="520" y="757" type="line" smooth="yes"/>
      <point x="511" y="760"/>
      <point x="503" y="766"/>
      <point x="494" y="767" type="curve"/>
      <point x="488" y="768"/>
      <point x="488" y="768"/>
      <point x="488" y="768" type="curve"/>
      <point x="475" y="768"/>
      <point x="471" y="755"/>
      <point x="460" y="744" type="curve" smooth="yes"/>
      <point x="240" y="524" type="line" smooth="yes"/>
      <point x="224" y="508"/>
      <point x="218" y="496"/>
      <point x="218" y="472" type="curve" smooth="yes"/>
      <point x="218" y="422" type="line" smooth="yes"/>
      <point x="218" y="416"/>
      <point x="216" y="414"/>
      <point x="210" y="414" type="curve" smooth="yes"/>
      <point x="160" y="414" type="line" smooth="yes"/>
      <point x="136" y="414"/>
      <point x="124" y="408"/>
      <point x="108" y="392" type="curve" smooth="yes"/>
      <point x="24" y="308" type="line" smooth="yes"/>
      <point x="13" y="297"/>
      <point x="0" y="292"/>
      <point x="0" y="280" type="curve" smooth="yes"/>
      <point x="0" y="271"/>
      <point x="7" y="264"/>
      <point x="16" y="264" type="curve" smooth="yes"/>
      <point x="28" y="264"/>
      <point x="33" y="277"/>
      <point x="44" y="288" type="curve" smooth="yes"/>
      <point x="60" y="304"/>
      <point x="65" y="306"/>
      <point x="76" y="306" type="curve" smooth="yes"/>
      <point x="210" y="306" type="line" smooth="yes"/>
      <point x="216" y="306"/>
      <point x="218" y="304"/>
      <point x="218" y="298" type="curve" smooth="yes"/>
      <point x="218" y="-172" type="line" smooth="yes"/>
      <point x="218" y="-183"/>
      <point x="225" y="-192"/>
      <point x="238" y="-192" type="curve" smooth="yes"/>
      <point x="251" y="-192"/>
      <point x="258" y="-176"/>
      <point x="274" y="-160" type="curve" smooth="yes"/>
      <point x="302" y="-132" type="line" smooth="yes"/>
      <point x="318" y="-116"/>
      <point x="334" y="-109"/>
      <point x="334" y="-96" type="curve" smooth="yes"/>
      <point x="334" y="552" type="line" smooth="yes"/>
      <point x="334" y="576"/>
      <point x="344" y="588"/>
      <point x="360" y="604" type="curve" smooth="yes"/>
      <point x="382" y="626" type="line" smooth="yes"/>
      <point x="384" y="628"/>
      <point x="386" y="630"/>
      <point x="388" y="630" type="curve" smooth="yes"/>
      <point x="391" y="630"/>
      <point x="392" y="629"/>
    </contour>
  </outline>
</glyph>
<glyph name="G" format="1">
  <advance width="633"/>
  <unicode hex="0047"/>
  <outline>
    <contour>
      <point x="203" y="227" type="curve" smooth="yes"/>
      <point x="201" y="227"/>
      <point x="200" y="228"/>
      <point x="199" y="229" type="curve" smooth="yes"/>
      <point x="184" y="244"/>
      <point x="174" y="256"/>
      <point x="174" y="280" type="curve" smooth="yes"/>
      <point x="174" y="552" type="line" smooth="yes"/>
      <point x="174" y="576"/>
      <point x="184" y="588"/>
      <point x="200" y="604" type="curve" smooth="yes"/>
      <point x="222" y="626" type="line" smooth="yes"/>
      <point x="224" y="628"/>
      <point x="226" y="630"/>
      <point x="228" y="630" type="curve" smooth="yes"/>
      <point x="231" y="630"/>
      <point x="232" y="629"/>
      <point x="232" y="626" type="curve" smooth="yes"/>
      <point x="232" y="280" type="line" smooth="yes"/>
      <point x="232" y="257"/>
      <point x="223" y="245"/>
      <point x="207" y="229" type="curve" smooth="yes"/>
      <point x="206" y="228"/>
      <point x="205" y="227"/>
    </contour>
    <contour>
      <point x="420" y="22" type="curve" smooth="yes"/>
      <point x="620" y="222" type="line" smooth="yes"/>
      <point x="631" y="233"/>
      <point x="638" y="246"/>
      <point x="638" y="271" type="curve" smooth="yes"/>
      <point x="638" y="300"/>
      <point x="639" y="339"/>
      <point x="630" y="348" type="curve" smooth="yes"/>
      <point x="506" y="472" type="line" smooth="yes"/>
      <point x="495" y="483"/>
      <point x="491" y="496"/>
      <point x="478" y="496" type="curve" smooth="yes"/>
      <point x="465" y="496"/>
      <point x="461" y="483"/>
      <point x="450" y="472" type="curve" smooth="yes"/>
      <point x="348" y="370" type="line"/>
      <point x="348" y="617" type="line" smooth="yes"/>
      <point x="348" y="620"/>
      <point x="349" y="621"/>
      <point x="352" y="621" type="curve"/>
      <point x="467" y="583"/>
      <point x="477" y="576"/>
      <point x="488" y="576" type="curve" smooth="yes"/>
      <point x="501" y="576"/>
      <point x="505" y="589"/>
      <point x="516" y="600" type="curve" smooth="yes"/>
      <point x="560" y="644" type="line" smooth="yes"/>
      <point x="571" y="655"/>
      <point x="584" y="659"/>
      <point x="584" y="672" type="curve" smooth="yes"/>
      <point x="584" y="687"/>
      <point x="563" y="689"/>
      <point x="552" y="693" type="curve" smooth="yes"/>
      <point x="360" y="757" type="line" smooth="yes"/>
      <point x="351" y="760"/>
      <point x="343" y="766"/>
      <point x="334" y="767" type="curve"/>
      <point x="328" y="768"/>
      <point x="328" y="768"/>
      <point x="328" y="768" type="curve"/>
      <point x="315" y="768"/>
      <point x="311" y="755"/>
      <point x="300" y="744" type="curve" smooth="yes"/>
      <point x="80" y="524" type="line" smooth="yes"/>
      <point x="64" y="508"/>
      <point x="58" y="496"/>
      <point x="58" y="472" type="curve" smooth="yes"/>
      <point x="58" y="200" type="line" smooth="yes"/>
      <point x="58" y="176"/>
      <point x="64" y="164"/>
      <point x="80" y="148" type="curve" smooth="yes"/>
      <point x="207" y="21" type="line" smooth="yes"/>
      <point x="224" y="4"/>
      <point x="237" y="0"/>
      <point x="260" y="0" type="curve" smooth="yes"/>
      <point x="368" y="0" type="line" smooth="yes"/>
      <point x="392" y="0"/>
      <point x="404" y="6"/>
    </contour>
    <contour>
      <point x="356" y="108" type="line" smooth="yes"/>
      <point x="334" y="108"/>
      <point x="318" y="110"/>
      <point x="301" y="127" type="curve" smooth="yes"/>
      <point x="226" y="202"/>
      <point x="225" y="203"/>
      <point x="225" y="205" type="curve" smooth="yes"/>
      <point x="225" y="207"/>
      <point x="226" y="208"/>
      <point x="228" y="210" type="curve" smooth="yes"/>
      <point x="386" y="368" type="line" smooth="yes"/>
      <point x="389" y="371"/>
      <point x="393" y="373"/>
      <point x="398" y="373" type="curve" smooth="yes"/>
      <point x="403" y="373"/>
      <point x="407" y="371"/>
      <point x="410" y="368" type="curve" smooth="yes"/>
      <point x="514" y="264" type="line" smooth="yes"/>
      <point x="523" y="255"/>
      <point x="522" y="217"/>
      <point x="522" y="192" type="curve" smooth="yes"/>
      <point x="522" y="171"/>
      <point x="497" y="139"/>
      <point x="484" y="126" type="curve" smooth="yes"/>
      <point x="475" y="117"/>
      <point x="463" y="108"/>
      <point x="452" y="108" type="curve" smooth="yes"/>
    </contour>
  </outline>
</glyph>
<glyph name="H" format="1">
  <advance width="638"/>
  <unicode hex="0048"/>
  <outline>
    <contour>
      <point x="370" y="-192" type="curve" smooth="yes"/>
      <point x="382" y="-192"/>
      <point x="387" y="-179"/>
      <point x="398" y="-168" type="curve" smooth="yes"/>
      <point x="534" y="-32"/>
      <point x="580" y="-8"/>
      <point x="580" y="192" type="curve" smooth="yes"/>
      <point x="580" y="472" type="line" smooth="yes"/>
      <point x="580" y="504"/>
      <point x="566" y="512"/>
      <point x="550" y="528" type="curve" smooth="yes"/>
      <point x="534" y="544"/>
      <point x="527" y="560"/>
      <point x="514" y="560" type="curve" smooth="yes"/>
      <point x="501" y="560"/>
      <point x="494" y="544"/>
      <point x="478" y="528" type="curve" smooth="yes"/>
      <point x="358" y="408" type="line" smooth="yes"/>
      <point x="356" y="406"/>
      <point x="354" y="404"/>
      <point x="352" y="404" type="curve" smooth="yes"/>
      <point x="349" y="404"/>
      <point x="348" y="405"/>
      <point x="348" y="408" type="curve" smooth="yes"/>
      <point x="348" y="464" type="line" smooth="yes"/>
      <point x="348" y="612"/>
      <point x="375" y="665"/>
      <point x="434" y="724" type="curve" smooth="yes"/>
      <point x="445" y="735"/>
      <point x="457" y="739"/>
      <point x="458" y="751" type="curve"/>
      <point x="458" y="752" type="line" smooth="yes"/>
      <point x="458" y="761"/>
      <point x="451" y="768"/>
      <point x="442" y="768" type="curve" smooth="yes"/>
      <point x="430" y="768"/>
      <point x="425" y="755"/>
      <point x="414" y="744" type="curve" smooth="yes"/>
      <point x="398" y="728"/>
      <point x="393" y="726"/>
      <point x="382" y="726" type="curve" smooth="yes"/>
      <point x="-66" y="726" type="line" smooth="yes"/>
      <point x="-82" y="726"/>
      <point x="-97" y="709"/>
      <point x="-110" y="696" type="curve" smooth="yes"/>
      <point x="-186" y="620" type="line" smooth="yes"/>
      <point x="-197" y="609"/>
      <point x="-210" y="604"/>
      <point x="-210" y="592" type="curve" smooth="yes"/>
      <point x="-210" y="583"/>
      <point x="-203" y="576"/>
      <point x="-194" y="576" type="curve" smooth="yes"/>
      <point x="-182" y="576"/>
      <point x="-177" y="589"/>
      <point x="-166" y="600" type="curve" smooth="yes"/>
      <point x="-150" y="616"/>
      <point x="-145" y="618"/>
      <point x="-134" y="618" type="curve" smooth="yes"/>
      <point x="283" y="618" type="line" smooth="yes"/>
      <point x="286" y="618"/>
      <point x="287" y="616"/>
      <point x="287" y="614" type="curve" smooth="yes"/>
      <point x="287" y="612"/>
      <point x="286" y="611"/>
      <point x="284" y="608" type="curve" smooth="yes"/>
      <point x="246" y="552"/>
      <point x="232" y="499"/>
      <point x="232" y="384" type="curve" smooth="yes"/>
      <point x="232" y="196" type="line" smooth="yes"/>
      <point x="232" y="185"/>
      <point x="239" y="176"/>
      <point x="252" y="176" type="curve" smooth="yes"/>
      <point x="265" y="176"/>
      <point x="272" y="192"/>
      <point x="288" y="208" type="curve" smooth="yes"/>
      <point x="316" y="236" type="line" smooth="yes"/>
      <point x="332" y="252"/>
      <point x="348" y="259"/>
      <point x="348" y="272" type="curve" smooth="yes"/>
      <point x="348" y="348" type="line" smooth="yes"/>
      <point x="348" y="356"/>
      <point x="350" y="360"/>
      <point x="358" y="368" type="curve" smooth="yes"/>
      <point x="427" y="437" type="line" smooth="yes"/>
      <point x="429" y="439"/>
      <point x="431" y="440"/>
      <point x="434" y="440" type="curve" smooth="yes"/>
      <point x="437" y="440"/>
      <point x="439" y="439"/>
      <point x="441" y="437" type="curve" smooth="yes"/>
      <point x="453" y="425"/>
      <point x="464" y="415"/>
      <point x="464" y="392" type="curve" smooth="yes"/>
      <point x="464" y="112" type="line" smooth="yes"/>
      <point x="464" y="-36"/>
      <point x="437" y="-89"/>
      <point x="378" y="-148" type="curve" smooth="yes"/>
      <point x="367" y="-159"/>
      <point x="354" y="-163"/>
      <point x="354" y="-176" type="curve" smooth="yes"/>
      <point x="354" y="-185"/>
      <point x="361" y="-192"/>
    </contour>
    <contour>
      <point x="240" y="32" type="curve" smooth="yes"/>
      <point x="316" y="108" type="line" smooth="yes"/>
      <point x="327" y="119"/>
      <point x="340" y="124"/>
      <point x="340" y="136" type="curve" smooth="yes"/>
      <point x="340" y="145"/>
      <point x="333" y="152"/>
      <point x="324" y="152" type="curve" smooth="yes"/>
      <point x="312" y="152"/>
      <point x="307" y="139"/>
      <point x="296" y="128" type="curve" smooth="yes"/>
      <point x="291" y="123"/>
      <point x="286" y="117"/>
      <point x="278" y="117" type="curve" smooth="yes"/>
      <point x="273" y="117"/>
      <point x="265" y="120"/>
      <point x="260" y="123" type="curve"/>
      <point x="196" y="155" type="line" smooth="yes"/>
      <point x="185" y="160"/>
      <point x="174" y="165"/>
      <point x="174" y="176" type="curve" smooth="yes"/>
      <point x="174" y="540" type="line" smooth="yes"/>
      <point x="174" y="551"/>
      <point x="167" y="560"/>
      <point x="154" y="560" type="curve" smooth="yes"/>
      <point x="141" y="560"/>
      <point x="134" y="544"/>
      <point x="118" y="528" type="curve" smooth="yes"/>
      <point x="90" y="500" type="line" smooth="yes"/>
      <point x="74" y="484"/>
      <point x="58" y="477"/>
      <point x="58" y="464" type="curve" smooth="yes"/>
      <point x="58" y="140" type="line" smooth="yes"/>
      <point x="58" y="133"/>
      <point x="56" y="129"/>
      <point x="52" y="125" type="curve" smooth="yes"/>
      <point x="37" y="110"/>
      <point x="28" y="108"/>
      <point x="28" y="96" type="curve" smooth="yes"/>
      <point x="28" y="80"/>
      <point x="49" y="78"/>
      <point x="60" y="73" type="curve" smooth="yes"/>
      <point x="174" y="16" type="line" smooth="yes"/>
      <point x="182" y="12"/>
      <point x="193" y="0"/>
      <point x="204" y="0" type="curve" smooth="yes"/>
      <point x="217" y="0"/>
      <point x="224" y="16"/>
    </contour>
  </outline>
</glyph>
<glyph name="J" format="1">
  <advance width="632"/>
  <unicode hex="004A"/>
  <outline>
    <contour>
      <point x="394" y="-192" type="curve" smooth="yes"/>
      <point x="405" y="-192"/>
      <point x="415" y="-185"/>
      <point x="426" y="-180" type="curve" smooth="yes"/>
      <point x="480" y="-153"/>
      <point x="574" y="-79"/>
      <point x="574" y="44" type="curve" smooth="yes"/>
      <point x="574" y="432" type="line" smooth="yes"/>
      <point x="574" y="496"/>
      <point x="573" y="499"/>
      <point x="560" y="512" type="curve" smooth="yes"/>
      <point x="544" y="528" type="line" smooth="yes"/>
      <point x="528" y="544"/>
      <point x="521" y="560"/>
      <point x="508" y="560" type="curve" smooth="yes"/>
      <point x="495" y="560"/>
      <point x="488" y="544"/>
      <point x="472" y="528" type="curve" smooth="yes"/>
      <point x="358" y="414" type="line" smooth="yes"/>
      <point x="355" y="411"/>
      <point x="353" y="409"/>
      <point x="350" y="409" type="curve" smooth="yes"/>
      <point x="346" y="409"/>
      <point x="342" y="413"/>
      <point x="342" y="417" type="curve" smooth="yes"/>
      <point x="342" y="480" type="line" smooth="yes"/>
      <point x="342" y="566"/>
      <point x="355" y="657"/>
      <point x="414" y="716" type="curve" smooth="yes"/>
      <point x="425" y="727"/>
      <point x="446" y="739"/>
      <point x="446" y="752" type="curve" smooth="yes"/>
      <point x="446" y="760"/>
      <point x="439" y="768"/>
      <point x="430" y="768" type="curve" smooth="yes"/>
      <point x="417" y="768"/>
      <point x="405" y="747"/>
      <point x="394" y="736" type="curve" smooth="yes"/>
      <point x="386" y="728"/>
      <point x="379" y="726"/>
      <point x="358" y="726" type="curve" smooth="yes"/>
      <point x="-62" y="726" type="line" smooth="yes"/>
      <point x="-100" y="726"/>
      <point x="-114" y="712"/>
      <point x="-130" y="696" type="curve" smooth="yes"/>
      <point x="-198" y="628" type="line" smooth="yes"/>
      <point x="-209" y="617"/>
      <point x="-230" y="605"/>
      <point x="-230" y="592" type="curve" smooth="yes"/>
      <point x="-230" y="584"/>
      <point x="-223" y="576"/>
      <point x="-214" y="576" type="curve" smooth="yes"/>
      <point x="-202" y="576"/>
      <point x="-189" y="597"/>
      <point x="-178" y="608" type="curve" smooth="yes"/>
      <point x="-170" y="616"/>
      <point x="-163" y="618"/>
      <point x="-142" y="618" type="curve" smooth="yes"/>
      <point x="262" y="618" type="line" smooth="yes"/>
      <point x="270" y="618"/>
      <point x="278" y="619"/>
      <point x="287" y="622" type="curve"/>
      <point x="238" y="554"/>
      <point x="226" y="487"/>
      <point x="226" y="400" type="curve" smooth="yes"/>
      <point x="226" y="240" type="line" smooth="yes"/>
      <point x="226" y="219"/>
      <point x="224" y="197"/>
      <point x="224" y="192" type="curve" smooth="yes"/>
      <point x="224" y="184"/>
      <point x="231" y="176"/>
      <point x="240" y="176" type="curve" smooth="yes"/>
      <point x="251" y="176"/>
      <point x="261" y="191"/>
      <point x="272" y="196" type="curve" smooth="yes"/>
      <point x="296" y="208" type="line" smooth="yes"/>
      <point x="316" y="219"/>
      <point x="344" y="219"/>
      <point x="344" y="236" type="curve" smooth="yes"/>
      <point x="344" y="241"/>
      <point x="342" y="263"/>
      <point x="342" y="284" type="curve" smooth="yes"/>
      <point x="342" y="345" type="line" smooth="yes"/>
      <point x="342" y="357"/>
      <point x="345" y="361"/>
      <point x="356" y="372" type="curve" smooth="yes"/>
      <point x="428" y="444" type="line"/>
      <point x="433" y="440"/>
      <point x="439" y="433"/>
      <point x="444" y="428" type="curve" smooth="yes"/>
      <point x="450" y="422" type="line" smooth="yes"/>
      <point x="455" y="417"/>
      <point x="458" y="411"/>
      <point x="458" y="400" type="curve" smooth="yes"/>
      <point x="458" y="32" type="line" smooth="yes"/>
      <point x="458" y="-107"/>
      <point x="449" y="-105"/>
      <point x="422" y="-132" type="curve" smooth="yes"/>
      <point x="410" y="-144" type="line" smooth="yes"/>
      <point x="399" y="-155"/>
      <point x="378" y="-163"/>
      <point x="378" y="-176" type="curve" smooth="yes"/>
      <point x="378" y="-184"/>
      <point x="385" y="-192"/>
    </contour>
    <contour>
      <point x="58" y="144" type="line" smooth="yes"/>
      <point x="58" y="133"/>
      <point x="53" y="126"/>
      <point x="48" y="121" type="curve" smooth="yes"/>
      <point x="43" y="116"/>
      <point x="28" y="109"/>
      <point x="28" y="96" type="curve" smooth="yes"/>
      <point x="28" y="79"/>
      <point x="59" y="75"/>
      <point x="80" y="64" type="curve" smooth="yes"/>
      <point x="148" y="30" type="line" smooth="yes"/>
      <point x="169" y="19"/>
      <point x="193" y="0"/>
      <point x="204" y="0" type="curve" smooth="yes"/>
      <point x="217" y="0"/>
      <point x="229" y="21"/>
      <point x="240" y="32" type="curve" smooth="yes"/>
      <point x="308" y="100" type="line" smooth="yes"/>
      <point x="319" y="111"/>
      <point x="340" y="123"/>
      <point x="340" y="136" type="curve" smooth="yes"/>
      <point x="340" y="144"/>
      <point x="333" y="152"/>
      <point x="324" y="152" type="curve" smooth="yes"/>
      <point x="312" y="152"/>
      <point x="305" y="137"/>
      <point x="300" y="132" type="curve" smooth="yes"/>
      <point x="296" y="128" type="line" smooth="yes"/>
      <point x="288" y="120"/>
      <point x="284" y="116"/>
      <point x="276" y="116" type="curve" smooth="yes"/>
      <point x="271" y="116"/>
      <point x="269" y="117"/>
      <point x="248" y="128" type="curve" smooth="yes"/>
      <point x="188" y="158" type="line" smooth="yes"/>
      <point x="177" y="163"/>
      <point x="174" y="165"/>
      <point x="174" y="176" type="curve" smooth="yes"/>
      <point x="174" y="496" type="line" smooth="yes"/>
      <point x="174" y="517"/>
      <point x="176" y="539"/>
      <point x="176" y="544" type="curve" smooth="yes"/>
      <point x="176" y="552"/>
      <point x="169" y="560"/>
      <point x="160" y="560" type="curve" smooth="yes"/>
      <point x="149" y="560"/>
      <point x="139" y="545"/>
      <point x="128" y="540" type="curve" smooth="yes"/>
      <point x="104" y="528" type="line" smooth="yes"/>
      <point x="84" y="519"/>
      <point x="56" y="517"/>
      <point x="56" y="500" type="curve" smooth="yes"/>
      <point x="56" y="495"/>
      <point x="58" y="473"/>
      <point x="58" y="452" type="curve" smooth="yes"/>
    </contour>
  </outline>
</glyph>
<glyph name="K" format="1">
  <advance width="522"/>
  <unicode hex="004B"/>
  <outline>
    <contour>
      <point x="576" y="0" type="curve" smooth="yes"/>
      <point x="589" y="0"/>
      <point x="593" y="13"/>
      <point x="604" y="24" type="curve" smooth="yes"/>
      <point x="688" y="108" type="line" smooth="yes"/>
      <point x="699" y="119"/>
      <point x="712" y="123"/>
      <point x="712" y="136" type="curve" smooth="yes"/>
      <point x="712" y="145"/>
      <point x="705" y="152"/>
      <point x="696" y="152" type="curve" smooth="yes"/>
      <point x="683" y="152"/>
      <point x="679" y="139"/>
      <point x="668" y="128" type="curve" smooth="yes"/>
      <point x="665" y="125"/>
      <point x="661" y="123"/>
      <point x="656" y="123" type="curve" smooth="yes"/>
      <point x="651" y="123"/>
      <point x="645" y="125"/>
      <point x="644" y="128" type="curve"/>
      <point x="476" y="476" type="line" smooth="yes"/>
      <point x="474" y="480"/>
      <point x="472" y="484"/>
      <point x="470" y="487" type="curve"/>
      <point x="704" y="721" type="line" smooth="yes"/>
      <point x="715" y="732"/>
      <point x="727" y="736"/>
      <point x="728" y="748" type="curve"/>
      <point x="728" y="748"/>
      <point x="728" y="749"/>
      <point x="728" y="749" type="curve"/>
      <point x="728" y="758"/>
      <point x="721" y="765"/>
      <point x="712" y="765" type="curve" smooth="yes"/>
      <point x="699" y="765"/>
      <point x="695" y="753"/>
      <point x="685" y="742" type="curve" smooth="yes"/>
      <point x="684" y="741" type="line" smooth="yes"/>
      <point x="668" y="725"/>
      <point x="663" y="723"/>
      <point x="652" y="723" type="curve" smooth="yes"/>
      <point x="496" y="723" type="line" smooth="yes"/>
      <point x="472" y="723"/>
      <point x="460" y="717"/>
      <point x="444" y="701" type="curve" smooth="yes"/>
      <point x="360" y="617" type="line" smooth="yes"/>
      <point x="356" y="613"/>
      <point x="352" y="610"/>
      <point x="348" y="607" type="curve"/>
      <point x="348" y="672" type="line" smooth="yes"/>
      <point x="348" y="696"/>
      <point x="358" y="708"/>
      <point x="374" y="724" type="curve" smooth="yes"/>
      <point x="385" y="735"/>
      <point x="398" y="739"/>
      <point x="398" y="752" type="curve" smooth="yes"/>
      <point x="398" y="761"/>
      <point x="391" y="768"/>
      <point x="382" y="768" type="curve" smooth="yes"/>
      <point x="369" y="768"/>
      <point x="365" y="755"/>
      <point x="354" y="744" type="curve" smooth="yes"/>
      <point x="80" y="470" type="line" smooth="yes"/>
      <point x="64" y="454"/>
      <point x="58" y="442"/>
      <point x="58" y="418" type="curve" smooth="yes"/>
      <point x="58" y="96" type="line" smooth="yes"/>
      <point x="58" y="72"/>
      <point x="48" y="60"/>
      <point x="32" y="44" type="curve" smooth="yes"/>
      <point x="21" y="33"/>
      <point x="8" y="29"/>
      <point x="8" y="16" type="curve" smooth="yes"/>
      <point x="8" y="7"/>
      <point x="15" y="0"/>
      <point x="24" y="0" type="curve" smooth="yes"/>
      <point x="37" y="0"/>
      <point x="41" y="13"/>
      <point x="52" y="24" type="curve" smooth="yes"/>
      <point x="152" y="124" type="line" smooth="yes"/>
      <point x="168" y="140"/>
      <point x="174" y="152"/>
      <point x="174" y="176" type="curve" smooth="yes"/>
      <point x="174" y="498" type="line" smooth="yes"/>
      <point x="174" y="522"/>
      <point x="184" y="534"/>
      <point x="200" y="550" type="curve" smooth="yes"/>
      <point x="232" y="582" type="line"/>
      <point x="232" y="140" type="line" smooth="yes"/>
      <point x="232" y="116"/>
      <point x="222" y="104"/>
      <point x="206" y="88" type="curve" smooth="yes"/>
      <point x="162" y="44" type="line" smooth="yes"/>
      <point x="151" y="33"/>
      <point x="138" y="29"/>
      <point x="138" y="16" type="curve" smooth="yes"/>
      <point x="138" y="7"/>
      <point x="145" y="0"/>
      <point x="154" y="0" type="curve" smooth="yes"/>
      <point x="167" y="0"/>
      <point x="171" y="13"/>
      <point x="182" y="24" type="curve" smooth="yes"/>
      <point x="326" y="168" type="line" smooth="yes"/>
      <point x="342" y="184"/>
      <point x="348" y="196"/>
      <point x="348" y="220" type="curve" smooth="yes"/>
      <point x="348" y="573" type="line"/>
      <point x="352" y="573" type="line" smooth="yes"/>
      <point x="364" y="573"/>
      <point x="369" y="586"/>
      <point x="380" y="597" type="curve" smooth="yes"/>
      <point x="396" y="613"/>
      <point x="401" y="615"/>
      <point x="412" y="615" type="curve" smooth="yes"/>
      <point x="558" y="615" type="line"/>
      <point x="442" y="499" type="line"/>
      <point x="435" y="496"/>
      <point x="432" y="490"/>
      <point x="426" y="483" type="curve"/>
      <point x="369" y="426" type="line"/>
      <point x="360" y="419"/>
      <point x="352" y="414"/>
      <point x="352" y="404" type="curve" smooth="yes"/>
      <point x="352" y="391"/>
      <point x="370" y="389"/>
      <point x="376" y="376" type="curve" smooth="yes"/>
      <point x="548" y="24" type="line" smooth="yes"/>
      <point x="554" y="11"/>
      <point x="563" y="0"/>
    </contour>
    <contour>
      <point x="-104" y="576" type="curve" smooth="yes"/>
      <point x="-92" y="576"/>
      <point x="-87" y="589"/>
      <point x="-76" y="600" type="curve" smooth="yes"/>
      <point x="-60" y="616"/>
      <point x="-55" y="618"/>
      <point x="-44" y="618" type="curve" smooth="yes"/>
      <point x="160" y="618" type="line" smooth="yes"/>
      <point x="184" y="618"/>
      <point x="196" y="624"/>
      <point x="212" y="640" type="curve" smooth="yes"/>
      <point x="296" y="724" type="line" smooth="yes"/>
      <point x="307" y="735"/>
      <point x="320" y="739"/>
      <point x="320" y="752" type="curve" smooth="yes"/>
      <point x="320" y="761"/>
      <point x="313" y="768"/>
      <point x="304" y="768" type="curve" smooth="yes"/>
      <point x="291" y="768"/>
      <point x="287" y="755"/>
      <point x="276" y="744" type="curve" smooth="yes"/>
      <point x="260" y="728"/>
      <point x="255" y="726"/>
      <point x="244" y="726" type="curve" smooth="yes"/>
      <point x="40" y="726" type="line" smooth="yes"/>
      <point x="16" y="726"/>
      <point x="4" y="720"/>
      <point x="-12" y="704" type="curve" smooth="yes"/>
      <point x="-96" y="620" type="line" smooth="yes"/>
      <point x="-107" y="609"/>
      <point x="-120" y="604"/>
      <point x="-120" y="592" type="curve" smooth="yes"/>
      <point x="-120" y="583"/>
      <point x="-113" y="576"/>
    </contour>
  </outline>
</glyph>
<glyph name="L" format="1">
  <advance width="696"/>
  <unicode hex="004C"/>
  <outline>
    <contour>
      <point x="488" y="0" type="line" smooth="yes"/>
      <point x="512" y="0"/>
      <point x="524" y="6"/>
      <point x="540" y="22" type="curve" smooth="yes"/>
      <point x="624" y="106" type="line" smooth="yes"/>
      <point x="635" y="117"/>
      <point x="648" y="122"/>
      <point x="648" y="134" type="curve" smooth="yes"/>
      <point x="648" y="143"/>
      <point x="641" y="150"/>
      <point x="632" y="150" type="curve" smooth="yes"/>
      <point x="620" y="150"/>
      <point x="615" y="137"/>
      <point x="604" y="126" type="curve" smooth="yes"/>
      <point x="588" y="110"/>
      <point x="583" y="108"/>
      <point x="572" y="108" type="curve" smooth="yes"/>
      <point x="224" y="108" type="line"/>
      <point x="326" y="210" type="line" smooth="yes"/>
      <point x="342" y="226"/>
      <point x="348" y="238"/>
      <point x="348" y="262" type="curve" smooth="yes"/>
      <point x="348" y="748" type="line" smooth="yes"/>
      <point x="348" y="759"/>
      <point x="341" y="768"/>
      <point x="328" y="768" type="curve" smooth="yes"/>
      <point x="316" y="768"/>
      <point x="311" y="755"/>
      <point x="300" y="744" type="curve" smooth="yes"/>
      <point x="80" y="524" type="line" smooth="yes"/>
      <point x="64" y="508"/>
      <point x="58" y="496"/>
      <point x="58" y="472" type="curve" smooth="yes"/>
      <point x="58" y="120" type="line" smooth="yes"/>
      <point x="58" y="96"/>
      <point x="48" y="84"/>
      <point x="32" y="68" type="curve" smooth="yes"/>
      <point x="8" y="44" type="line" smooth="yes"/>
      <point x="-3" y="33"/>
      <point x="-16" y="29"/>
      <point x="-16" y="16" type="curve" smooth="yes"/>
      <point x="-16" y="7"/>
      <point x="-9" y="0"/>
      <point x="0" y="0" type="curve" smooth="yes"/>
    </contour>
    <contour>
      <point x="152" y="148" type="line" smooth="yes"/>
      <point x="168" y="164"/>
      <point x="174" y="176"/>
      <point x="174" y="200" type="curve" smooth="yes"/>
      <point x="174" y="552" type="line" smooth="yes"/>
      <point x="174" y="576"/>
      <point x="184" y="588"/>
      <point x="200" y="604" type="curve" smooth="yes"/>
      <point x="222" y="626" type="line" smooth="yes"/>
      <point x="224" y="628"/>
      <point x="226" y="630"/>
      <point x="228" y="630" type="curve" smooth="yes"/>
      <point x="230" y="630"/>
      <point x="232" y="629"/>
      <point x="232" y="626" type="curve" smooth="yes"/>
      <point x="232" y="182" type="line" smooth="yes"/>
      <point x="232" y="158"/>
      <point x="222" y="146"/>
      <point x="206" y="130" type="curve" smooth="yes"/>
      <point x="184" y="108" type="line"/>
      <point x="112" y="108" type="line"/>
    </contour>
  </outline>
</glyph>
<glyph name="O" format="1">
  <advance width="696"/>
  <unicode hex="004F"/>
  <outline>
    <contour>
      <point x="200" y="228" type="line" smooth="yes"/>
      <point x="184" y="244"/>
      <point x="174" y="256"/>
      <point x="174" y="280" type="curve" smooth="yes"/>
      <point x="174" y="552" type="line" smooth="yes"/>
      <point x="174" y="576"/>
      <point x="184" y="588"/>
      <point x="200" y="604" type="curve" smooth="yes"/>
      <point x="222" y="626" type="line" smooth="yes"/>
      <point x="224" y="628"/>
      <point x="226" y="630"/>
      <point x="228" y="630" type="curve" smooth="yes"/>
      <point x="230" y="630"/>
      <point x="232" y="629"/>
      <point x="232" y="626" type="curve" smooth="yes"/>
      <point x="232" y="280" type="line" smooth="yes"/>
      <point x="232" y="256"/>
      <point x="222" y="244"/>
      <point x="206" y="228" type="curve" smooth="yes"/>
      <point x="203" y="225" type="line"/>
    </contour>
    <contour>
      <point x="348" y="616" type="curve" smooth="yes"/>
      <point x="348" y="748" type="line" smooth="yes"/>
      <point x="348" y="759"/>
      <point x="341" y="768"/>
      <point x="328" y="768" type="curve" smooth="yes"/>
      <point x="316" y="768"/>
      <point x="311" y="755"/>
      <point x="300" y="744" type="curve" smooth="yes"/>
      <point x="80" y="524" type="line" smooth="yes"/>
      <point x="64" y="508"/>
      <point x="58" y="496"/>
      <point x="58" y="472" type="curve" smooth="yes"/>
      <point x="58" y="200" type="line" smooth="yes"/>
      <point x="58" y="176"/>
      <point x="64" y="164"/>
      <point x="80" y="148" type="curve" smooth="yes"/>
      <point x="207" y="21" type="line" smooth="yes"/>
      <point x="224" y="4"/>
      <point x="237" y="0"/>
      <point x="260" y="0" type="curve" smooth="yes"/>
      <point x="368" y="0" type="line" smooth="yes"/>
      <point x="392" y="0"/>
      <point x="404" y="6"/>
      <point x="420" y="22" type="curve" smooth="yes"/>
      <point x="616" y="218" type="line" smooth="yes"/>
      <point x="632" y="234"/>
      <point x="638" y="246"/>
      <point x="638" y="270" type="curve" smooth="yes"/>
      <point x="638" y="618" type="line" smooth="yes"/>
      <point x="638" y="642"/>
      <point x="632" y="654"/>
      <point x="616" y="670" type="curve" smooth="yes"/>
      <point x="550" y="736" type="line" smooth="yes"/>
      <point x="534" y="752"/>
      <point x="527" y="768"/>
      <point x="514" y="768" type="curve" smooth="yes"/>
      <point x="501" y="768"/>
      <point x="494" y="752"/>
      <point x="478" y="736" type="curve" smooth="yes"/>
      <point x="358" y="616" type="line" smooth="yes"/>
      <point x="356" y="614"/>
      <point x="354" y="612"/>
      <point x="352" y="612" type="curve" smooth="yes"/>
      <point x="350" y="612"/>
      <point x="348" y="613"/>
    </contour>
    <contour>
      <point x="348" y="556" type="line" smooth="yes"/>
      <point x="348" y="564"/>
      <point x="350" y="568"/>
      <point x="358" y="576" type="curve" smooth="yes"/>
      <point x="427" y="645" type="line" smooth="yes"/>
      <point x="429" y="647"/>
      <point x="431" y="648"/>
      <point x="434" y="648" type="curve" smooth="yes"/>
      <point x="437" y="648"/>
      <point x="439" y="647"/>
      <point x="441" y="645" type="curve" smooth="yes"/>
      <point x="503" y="583" type="line" smooth="yes"/>
      <point x="513" y="573"/>
      <point x="522" y="563"/>
      <point x="522" y="542" type="curve" smooth="yes"/>
      <point x="522" y="190" type="line" smooth="yes"/>
      <point x="522" y="166"/>
      <point x="512" y="154"/>
      <point x="496" y="138" type="curve" smooth="yes"/>
      <point x="484" y="126" type="line" smooth="yes"/>
      <point x="468" y="110"/>
      <point x="463" y="108"/>
      <point x="452" y="108" type="curve" smooth="yes"/>
      <point x="356" y="108" type="line" smooth="yes"/>
      <point x="334" y="108"/>
      <point x="319" y="109"/>
      <point x="301" y="127" type="curve" smooth="yes"/>
      <point x="223" y="205" type="line"/>
      <point x="326" y="308" type="line" smooth="yes"/>
      <point x="342" y="324"/>
      <point x="348" y="336"/>
      <point x="348" y="360" type="curve" smooth="yes"/>
    </contour>
  </outline>
</glyph>
<glyph name="R" format="1">
  <advance width="662"/>
  <unicode hex="0052"/>
  <outline>
    <contour>
      <point x="526" y="-14" type="curve" smooth="yes"/>
      <point x="539" y="-14"/>
      <point x="543" y="-1"/>
      <point x="554" y="10" type="curve" smooth="yes"/>
      <point x="638" y="94" type="line" smooth="yes"/>
      <point x="649" y="105"/>
      <point x="662" y="109"/>
      <point x="662" y="122" type="curve" smooth="yes"/>
      <point x="662" y="131"/>
      <point x="655" y="138"/>
      <point x="646" y="138" type="curve" smooth="yes"/>
      <point x="633" y="138"/>
      <point x="629" y="125"/>
      <point x="618" y="114" type="curve" smooth="yes"/>
      <point x="615" y="111"/>
      <point x="611" y="109"/>
      <point x="606" y="109" type="curve" smooth="yes"/>
      <point x="601" y="109"/>
      <point x="595" y="113"/>
      <point x="590" y="122" type="curve" smooth="yes"/>
      <point x="461" y="381" type="line"/>
      <point x="558" y="478" type="line" smooth="yes"/>
      <point x="574" y="494"/>
      <point x="580" y="506"/>
      <point x="580" y="530" type="curve" smooth="yes"/>
      <point x="580" y="576" type="line" smooth="yes"/>
      <point x="580" y="600"/>
      <point x="574" y="612"/>
      <point x="558" y="628" type="curve" smooth="yes"/>
      <point x="492" y="694" type="line" smooth="yes"/>
      <point x="476" y="710"/>
      <point x="469" y="726"/>
      <point x="456" y="726" type="curve" smooth="yes"/>
      <point x="8" y="726" type="line" smooth="yes"/>
      <point x="-16" y="726"/>
      <point x="-28" y="720"/>
      <point x="-44" y="704" type="curve" smooth="yes"/>
      <point x="-128" y="620" type="line" smooth="yes"/>
      <point x="-139" y="609"/>
      <point x="-152" y="604"/>
      <point x="-152" y="592" type="curve" smooth="yes"/>
      <point x="-152" y="583"/>
      <point x="-145" y="576"/>
      <point x="-136" y="576" type="curve" smooth="yes"/>
      <point x="-124" y="576"/>
      <point x="-119" y="589"/>
      <point x="-108" y="600" type="curve" smooth="yes"/>
      <point x="-92" y="616"/>
      <point x="-87" y="618"/>
      <point x="-76" y="618" type="curve" smooth="yes"/>
      <point x="264" y="618" type="line"/>
      <point x="248" y="602"/>
      <point x="232" y="595"/>
      <point x="232" y="582" type="curve" smooth="yes"/>
      <point x="232" y="196" type="line" smooth="yes"/>
      <point x="232" y="185"/>
      <point x="239" y="176"/>
      <point x="252" y="176" type="curve" smooth="yes"/>
      <point x="265" y="176"/>
      <point x="272" y="192"/>
      <point x="288" y="208" type="curve" smooth="yes"/>
      <point x="346" y="266" type="line" smooth="yes"/>
      <point x="349" y="269"/>
      <point x="353" y="271"/>
      <point x="358" y="271" type="curve" smooth="yes"/>
      <point x="363" y="271"/>
      <point x="369" y="267"/>
      <point x="374" y="258" type="curve" smooth="yes"/>
      <point x="498" y="10" type="line" smooth="yes"/>
      <point x="504" y="-2"/>
      <point x="513" y="-14"/>
    </contour>
    <contour>
      <point x="364" y="618" type="line" smooth="yes"/>
      <point x="367" y="618"/>
      <point x="369" y="617"/>
      <point x="371" y="615" type="curve" smooth="yes"/>
      <point x="445" y="541" type="line" smooth="yes"/>
      <point x="455" y="531"/>
      <point x="464" y="521"/>
      <point x="464" y="500" type="curve" smooth="yes"/>
      <point x="464" y="450" type="line" smooth="yes"/>
      <point x="464" y="426"/>
      <point x="454" y="414"/>
      <point x="438" y="398" type="curve" smooth="yes"/>
      <point x="348" y="308" type="line"/>
      <point x="348" y="618" type="line"/>
    </contour>
    <contour>
      <point x="240" y="32" type="curve" smooth="yes"/>
      <point x="316" y="108" type="line" smooth="yes"/>
      <point x="327" y="119"/>
      <point x="340" y="124"/>
      <point x="340" y="136" type="curve" smooth="yes"/>
      <point x="340" y="145"/>
      <point x="333" y="152"/>
      <point x="324" y="152" type="curve" smooth="yes"/>
      <point x="312" y="152"/>
      <point x="307" y="139"/>
      <point x="296" y="128" type="curve" smooth="yes"/>
      <point x="291" y="123"/>
      <point x="286" y="117"/>
      <point x="278" y="117" type="curve" smooth="yes"/>
      <point x="273" y="117"/>
      <point x="265" y="120"/>
      <point x="260" y="123" type="curve"/>
      <point x="196" y="155" type="line" smooth="yes"/>
      <point x="185" y="160"/>
      <point x="174" y="165"/>
      <point x="174" y="176" type="curve" smooth="yes"/>
      <point x="174" y="540" type="line" smooth="yes"/>
      <point x="174" y="551"/>
      <point x="167" y="560"/>
      <point x="154" y="560" type="curve" smooth="yes"/>
      <point x="141" y="560"/>
      <point x="134" y="544"/>
      <point x="118" y="528" type="curve" smooth="yes"/>
      <point x="90" y="500" type="line" smooth="yes"/>
      <point x="74" y="484"/>
      <point x="58" y="477"/>
      <point x="58" y="464" type="curve" smooth="yes"/>
      <point x="58" y="140" type="line" smooth="yes"/>
      <point x="58" y="133"/>
      <point x="56" y="129"/>
      <point x="52" y="125" type="curve" smooth="yes"/>
      <point x="37" y="110"/>
      <point x="28" y="108"/>
      <point x="28" y="96" type="curve" smooth="yes"/>
      <point x="28" y="80"/>
      <point x="49" y="78"/>
      <point x="60" y="73" type="curve" smooth="yes"/>
      <point x="174" y="16" type="line" smooth="yes"/>
      <point x="182" y="12"/>
      <point x="193" y="0"/>
      <point x="204" y="0" type="curve" smooth="yes"/>
      <point x="217" y="0"/>
      <point x="224" y="16"/>
    </contour>
  </outline>
</glyph>
<glyph name="S" format="1">
  <advance width="656"/>
  <unicode hex="0053"/>
  <outline>
    <contour>
      <point x="552" y="32" type="curve" smooth="yes"/>
      <point x="620" y="100" type="line" smooth="yes"/>
      <point x="631" y="111"/>
      <point x="652" y="123"/>
      <point x="652" y="136" type="curve" smooth="yes"/>
      <point x="652" y="144"/>
      <point x="645" y="152"/>
      <point x="636" y="152" type="curve" smooth="yes"/>
      <point x="624" y="152"/>
      <point x="617" y="137"/>
      <point x="612" y="132" type="curve" smooth="yes"/>
      <point x="604" y="124" type="line" smooth="yes"/>
      <point x="596" y="116"/>
      <point x="585" y="110"/>
      <point x="564" y="110" type="curve" smooth="yes"/>
      <point x="146" y="110" type="line"/>
      <point x="152" y="116" type="line" smooth="yes"/>
      <point x="186" y="150"/>
      <point x="276" y="210"/>
      <point x="276" y="320" type="curve" smooth="yes"/>
      <point x="276" y="406" type="line" smooth="yes"/>
      <point x="276" y="545"/>
      <point x="285" y="543"/>
      <point x="312" y="570" type="curve" smooth="yes"/>
      <point x="320" y="578"/>
      <point x="323" y="581"/>
      <point x="327" y="581" type="curve" smooth="yes"/>
      <point x="331" y="581"/>
      <point x="334" y="578"/>
      <point x="334" y="571" type="curve" smooth="yes"/>
      <point x="334" y="344" type="line" smooth="yes"/>
      <point x="334" y="205"/>
      <point x="334" y="200"/>
      <point x="318" y="184" type="curve" smooth="yes"/>
      <point x="314" y="180" type="line" smooth="yes"/>
      <point x="303" y="169"/>
      <point x="286" y="165"/>
      <point x="286" y="152" type="curve" smooth="yes"/>
      <point x="286" y="144"/>
      <point x="293" y="136"/>
      <point x="302" y="136" type="curve" smooth="yes"/>
      <point x="313" y="136"/>
      <point x="323" y="143"/>
      <point x="334" y="148" type="curve"/>
      <point x="366" y="165"/>
      <point x="450" y="233"/>
      <point x="450" y="356" type="curve" smooth="yes"/>
      <point x="450" y="613" type="line" smooth="yes"/>
      <point x="450" y="617"/>
      <point x="454" y="621"/>
      <point x="458" y="621" type="curve" smooth="yes"/>
      <point x="462" y="621"/>
      <point x="466" y="618"/>
      <point x="474" y="615" type="curve"/>
      <point x="538" y="587" type="line"/>
      <point x="549" y="583"/>
      <point x="559" y="576"/>
      <point x="568" y="576" type="curve" smooth="yes"/>
      <point x="580" y="576"/>
      <point x="588" y="592"/>
      <point x="604" y="608" type="curve" smooth="yes"/>
      <point x="632" y="636" type="line" smooth="yes"/>
      <point x="648" y="652"/>
      <point x="664" y="659"/>
      <point x="664" y="672" type="curve" smooth="yes"/>
      <point x="664" y="689"/>
      <point x="639" y="692"/>
      <point x="612" y="703" type="curve" smooth="yes"/>
      <point x="514" y="745" type="line" smooth="yes"/>
      <point x="474" y="762"/>
      <point x="469" y="768"/>
      <point x="456" y="768" type="curve" smooth="yes"/>
      <point x="443" y="768"/>
      <point x="436" y="752"/>
      <point x="420" y="736" type="curve" smooth="yes"/>
      <point x="352" y="668" type="line" smooth="yes"/>
      <point x="254" y="570"/>
      <point x="160" y="517"/>
      <point x="160" y="394" type="curve" smooth="yes"/>
      <point x="160" y="256" type="line" smooth="yes"/>
      <point x="160" y="196"/>
      <point x="137" y="141"/>
      <point x="132" y="136" type="curve" smooth="yes"/>
      <point x="48" y="52" type="line" smooth="yes"/>
      <point x="37" y="41"/>
      <point x="16" y="29"/>
      <point x="16" y="16" type="curve" smooth="yes"/>
      <point x="16" y="8"/>
      <point x="23" y="0"/>
      <point x="32" y="0" type="curve" smooth="yes"/>
      <point x="41" y="0"/>
      <point x="53" y="2"/>
      <point x="64" y="2" type="curve" smooth="yes"/>
      <point x="482" y="2" type="line" smooth="yes"/>
      <point x="493" y="2"/>
      <point x="503" y="0"/>
      <point x="516" y="0" type="curve" smooth="yes"/>
      <point x="531" y="0"/>
      <point x="543" y="23"/>
    </contour>
    <contour>
      <point x="504" y="384" type="curve" smooth="yes"/>
      <point x="504" y="371"/>
      <point x="520" y="364"/>
      <point x="536" y="348" type="curve" smooth="yes"/>
      <point x="564" y="320" type="line" smooth="yes"/>
      <point x="580" y="304"/>
      <point x="587" y="288"/>
      <point x="600" y="288" type="curve" smooth="yes"/>
      <point x="613" y="288"/>
      <point x="620" y="304"/>
      <point x="636" y="320" type="curve" smooth="yes"/>
      <point x="664" y="348" type="line" smooth="yes"/>
      <point x="680" y="364"/>
      <point x="696" y="371"/>
      <point x="696" y="384" type="curve" smooth="yes"/>
      <point x="696" y="397"/>
      <point x="680" y="404"/>
      <point x="664" y="420" type="curve" smooth="yes"/>
      <point x="636" y="448" type="line" smooth="yes"/>
      <point x="620" y="464"/>
      <point x="613" y="480"/>
      <point x="600" y="480" type="curve" smooth="yes"/>
      <point x="587" y="480"/>
      <point x="580" y="464"/>
      <point x="564" y="448" type="curve" smooth="yes"/>
      <point x="536" y="420" type="line" smooth="yes"/>
      <point x="520" y="404"/>
      <point x="504" y="397"/>
    </contour>
    <contour>
      <point x="660" y="28" type="line"/>
      <point x="744" y="112" type="line"/>
      <point x="724" y="132" type="line"/>
      <point x="640" y="48" type="line"/>
    </contour>
  </outline>
</glyph>
<glyph name="T" format="1">
  <advance width="558"/>
  <unicode hex="0054"/>
  <outline>
    <contour>
      <point x="440" y="208" type="curve" smooth="yes"/>
      <point x="468" y="236" type="line" smooth="yes"/>
      <point x="484" y="252"/>
      <point x="500" y="259"/>
      <point x="500" y="272" type="curve" smooth="yes"/>
      <point x="500" y="610" type="line" smooth="yes"/>
      <point x="500" y="616"/>
      <point x="502" y="618"/>
      <point x="508" y="618" type="curve" smooth="yes"/>
      <point x="594" y="618" type="line" smooth="yes"/>
      <point x="618" y="618"/>
      <point x="630" y="624"/>
      <point x="646" y="640" type="curve" smooth="yes"/>
      <point x="730" y="724" type="line" smooth="yes"/>
      <point x="741" y="735"/>
      <point x="754" y="740"/>
      <point x="754" y="752" type="curve" smooth="yes"/>
      <point x="754" y="761"/>
      <point x="747" y="768"/>
      <point x="738" y="768" type="curve" smooth="yes"/>
      <point x="726" y="768"/>
      <point x="721" y="755"/>
      <point x="710" y="744" type="curve" smooth="yes"/>
      <point x="694" y="728"/>
      <point x="689" y="726"/>
      <point x="678" y="726" type="curve" smooth="yes"/>
      <point x="160" y="726" type="line" smooth="yes"/>
      <point x="136" y="726"/>
      <point x="124" y="720"/>
      <point x="108" y="704" type="curve" smooth="yes"/>
      <point x="24" y="620" type="line" smooth="yes"/>
      <point x="13" y="609"/>
      <point x="0" y="604"/>
      <point x="0" y="592" type="curve" smooth="yes"/>
      <point x="0" y="583"/>
      <point x="7" y="576"/>
      <point x="16" y="576" type="curve" smooth="yes"/>
      <point x="28" y="576"/>
      <point x="33" y="589"/>
      <point x="44" y="600" type="curve" smooth="yes"/>
      <point x="60" y="616"/>
      <point x="65" y="618"/>
      <point x="76" y="618" type="curve" smooth="yes"/>
      <point x="408" y="618" type="line" smooth="yes"/>
      <point x="410" y="618"/>
      <point x="411" y="616"/>
      <point x="411" y="615" type="curve" smooth="yes"/>
      <point x="411" y="613"/>
      <point x="409" y="611"/>
      <point x="408" y="610" type="curve" smooth="yes"/>
      <point x="400" y="602"/>
      <point x="384" y="595"/>
      <point x="384" y="582" type="curve" smooth="yes"/>
      <point x="384" y="196" type="line" smooth="yes"/>
      <point x="384" y="185"/>
      <point x="391" y="176"/>
      <point x="404" y="176" type="curve" smooth="yes"/>
      <point x="417" y="176"/>
      <point x="424" y="192"/>
    </contour>
    <contour>
      <point x="392" y="32" type="curve" smooth="yes"/>
      <point x="468" y="108" type="line" smooth="yes"/>
      <point x="479" y="119"/>
      <point x="492" y="124"/>
      <point x="492" y="136" type="curve" smooth="yes"/>
      <point x="492" y="145"/>
      <point x="485" y="152"/>
      <point x="476" y="152" type="curve" smooth="yes"/>
      <point x="464" y="152"/>
      <point x="459" y="139"/>
      <point x="448" y="128" type="curve" smooth="yes"/>
      <point x="443" y="123"/>
      <point x="438" y="117"/>
      <point x="430" y="117" type="curve" smooth="yes"/>
      <point x="425" y="117"/>
      <point x="417" y="120"/>
      <point x="412" y="123" type="curve"/>
      <point x="348" y="155" type="line" smooth="yes"/>
      <point x="337" y="160"/>
      <point x="326" y="165"/>
      <point x="326" y="176" type="curve" smooth="yes"/>
      <point x="326" y="540" type="line" smooth="yes"/>
      <point x="326" y="551"/>
      <point x="319" y="560"/>
      <point x="306" y="560" type="curve" smooth="yes"/>
      <point x="293" y="560"/>
      <point x="286" y="544"/>
      <point x="270" y="528" type="curve" smooth="yes"/>
      <point x="242" y="500" type="line" smooth="yes"/>
      <point x="226" y="484"/>
      <point x="210" y="477"/>
      <point x="210" y="464" type="curve" smooth="yes"/>
      <point x="210" y="140" type="line" smooth="yes"/>
      <point x="210" y="133"/>
      <point x="208" y="129"/>
      <point x="204" y="125" type="curve" smooth="yes"/>
      <point x="189" y="110"/>
      <point x="180" y="108"/>
      <point x="180" y="96" type="curve" smooth="yes"/>
      <point x="180" y="80"/>
      <point x="201" y="78"/>
      <point x="212" y="73" type="curve" smooth="yes"/>
      <point x="326" y="16" type="line" smooth="yes"/>
      <point x="334" y="12"/>
      <point x="345" y="0"/>
      <point x="356" y="0" type="curve" smooth="yes"/>
      <point x="369" y="0"/>
      <point x="376" y="16"/>
    </contour>
  </outline>
</glyph>
<glyph name="U" format="1">
  <advance width="697"/>
  <unicode hex="0055"/>
  <outline>
    <contour>
      <point x="200" y="228" type="line" smooth="yes"/>
      <point x="184" y="244"/>
      <point x="174" y="256"/>
      <point x="174" y="280" type="curve" smooth="yes"/>
      <point x="174" y="552" type="line" smooth="yes"/>
      <point x="174" y="576"/>
      <point x="184" y="588"/>
      <point x="200" y="604" type="curve" smooth="yes"/>
      <point x="222" y="626" type="line" smooth="yes"/>
      <point x="224" y="628"/>
      <point x="226" y="630"/>
      <point x="228" y="630" type="curve" smooth="yes"/>
      <point x="230" y="630"/>
      <point x="232" y="629"/>
      <point x="232" y="626" type="curve" smooth="yes"/>
      <point x="232" y="280" type="line" smooth="yes"/>
      <point x="232" y="256"/>
      <point x="222" y="244"/>
      <point x="206" y="228" type="curve" smooth="yes"/>
      <point x="203" y="225" type="line"/>
    </contour>
    <contour>
      <point x="420" y="22" type="curve" smooth="yes"/>
      <point x="523" y="125" type="line"/>
      <point x="523" y="96" type="line" smooth="yes"/>
      <point x="523" y="72"/>
      <point x="529" y="60"/>
      <point x="545" y="44" type="curve" smooth="yes"/>
      <point x="565" y="24" type="line" smooth="yes"/>
      <point x="576" y="13"/>
      <point x="580" y="0"/>
      <point x="593" y="0" type="curve" smooth="yes"/>
      <point x="606" y="0"/>
      <point x="610" y="13"/>
      <point x="621" y="24" type="curve" smooth="yes"/>
      <point x="665" y="68" type="line" smooth="yes"/>
      <point x="676" y="79"/>
      <point x="689" y="83"/>
      <point x="689" y="96" type="curve" smooth="yes"/>
      <point x="689" y="109"/>
      <point x="676" y="113"/>
      <point x="665" y="124" type="curve" smooth="yes"/>
      <point x="649" y="140"/>
      <point x="639" y="152"/>
      <point x="639" y="176" type="curve" smooth="yes"/>
      <point x="639" y="748" type="line" smooth="yes"/>
      <point x="639" y="759"/>
      <point x="632" y="768"/>
      <point x="619" y="768" type="curve" smooth="yes"/>
      <point x="606" y="768"/>
      <point x="599" y="752"/>
      <point x="583" y="736" type="curve" smooth="yes"/>
      <point x="555" y="708" type="line" smooth="yes"/>
      <point x="539" y="692"/>
      <point x="523" y="685"/>
      <point x="523" y="672" type="curve" smooth="yes"/>
      <point x="523" y="165" type="line"/>
      <point x="484" y="126" type="line" smooth="yes"/>
      <point x="468" y="110"/>
      <point x="463" y="108"/>
      <point x="452" y="108" type="curve" smooth="yes"/>
      <point x="356" y="108" type="line" smooth="yes"/>
      <point x="334" y="108"/>
      <point x="319" y="109"/>
      <point x="301" y="127" type="curve" smooth="yes"/>
      <point x="223" y="205" type="line"/>
      <point x="326" y="308" type="line" smooth="yes"/>
      <point x="342" y="324"/>
      <point x="348" y="336"/>
      <point x="348" y="360" type="curve" smooth="yes"/>
      <point x="348" y="748" type="line" smooth="yes"/>
      <point x="348" y="759"/>
      <point x="341" y="768"/>
      <point x="328" y="768" type="curve" smooth="yes"/>
      <point x="316" y="768"/>
      <point x="311" y="755"/>
      <point x="300" y="744" type="curve" smooth="yes"/>
      <point x="80" y="524" type="line" smooth="yes"/>
      <point x="64" y="508"/>
      <point x="58" y="496"/>
      <point x="58" y="472" type="curve" smooth="yes"/>
      <point x="58" y="200" type="line" smooth="yes"/>
      <point x="58" y="176"/>
      <point x="64" y="164"/>
      <point x="80" y="148" type="curve" smooth="yes"/>
      <point x="207" y="21" type="line" smooth="yes"/>
      <point x="224" y="4"/>
      <point x="237" y="0"/>
      <point x="260" y="0" type="curve" smooth="yes"/>
      <point x="368" y="0" type="line" smooth="yes"/>
      <point x="392" y="0"/>
      <point x="404" y="6"/>
    </contour>
  </outline>
</glyph>
<glyph name="V" format="1">
  <advance width="522"/>
  <unicode hex="0056"/>
  <outline>
    <contour>
      <point x="86" y="-96" type="curve" smooth="yes"/>
      <point x="158" y="-24" type="line"/>
      <point x="26" y="108" type="line" smooth="yes"/>
      <point x="10" y="124"/>
      <point x="0" y="136"/>
      <point x="0" y="160" type="curve" smooth="yes"/>
      <point x="0" y="552" type="line" smooth="yes"/>
      <point x="0" y="576"/>
      <point x="10" y="588"/>
      <point x="26" y="604" type="curve" smooth="yes"/>
      <point x="48" y="626" type="line" smooth="yes"/>
      <point x="50" y="628"/>
      <point x="52" y="630"/>
      <point x="54" y="630" type="curve" smooth="yes"/>
      <point x="56" y="630"/>
      <point x="58" y="629"/>
      <point x="58" y="626" type="curve" smooth="yes"/>
      <point x="58" y="200" type="line" smooth="yes"/>
      <point x="58" y="176"/>
      <point x="64" y="164"/>
      <point x="80" y="148" type="curve" smooth="yes"/>
      <point x="204" y="24" type="line" smooth="yes"/>
      <point x="215" y="13"/>
      <point x="219" y="0"/>
      <point x="232" y="0" type="curve" smooth="yes"/>
      <point x="245" y="0"/>
      <point x="249" y="13"/>
      <point x="260" y="24" type="curve" smooth="yes"/>
      <point x="442" y="206" type="line" smooth="yes"/>
      <point x="458" y="222"/>
      <point x="464" y="234"/>
      <point x="464" y="258" type="curve" smooth="yes"/>
      <point x="464" y="748" type="line" smooth="yes"/>
      <point x="464" y="759"/>
      <point x="457" y="768"/>
      <point x="444" y="768" type="curve" smooth="yes"/>
      <point x="431" y="768"/>
      <point x="424" y="752"/>
      <point x="408" y="736" type="curve" smooth="yes"/>
      <point x="380" y="708" type="line" smooth="yes"/>
      <point x="364" y="692"/>
      <point x="348" y="685"/>
      <point x="348" y="672" type="curve" smooth="yes"/>
      <point x="348" y="178" type="line" smooth="yes"/>
      <point x="348" y="154"/>
      <point x="338" y="142"/>
      <point x="322" y="126" type="curve" smooth="yes"/>
      <point x="312" y="116" type="line"/>
      <point x="200" y="228" type="line" smooth="yes"/>
      <point x="184" y="244"/>
      <point x="174" y="256"/>
      <point x="174" y="280" type="curve" smooth="yes"/>
      <point x="174" y="748" type="line" smooth="yes"/>
      <point x="174" y="759"/>
      <point x="167" y="768"/>
      <point x="154" y="768" type="curve" smooth="yes"/>
      <point x="141" y="768"/>
      <point x="134" y="752"/>
      <point x="118" y="736" type="curve" smooth="yes"/>
      <point x="90" y="708" type="line" smooth="yes"/>
      <point x="76" y="694"/>
      <point x="62" y="687"/>
      <point x="59" y="677" type="curve"/>
      <point x="-94" y="524" type="line" smooth="yes"/>
      <point x="-110" y="508"/>
      <point x="-116" y="496"/>
      <point x="-116" y="472" type="curve" smooth="yes"/>
      <point x="-116" y="80" type="line" smooth="yes"/>
      <point x="-116" y="56"/>
      <point x="-110" y="44"/>
      <point x="-94" y="28" type="curve" smooth="yes"/>
      <point x="30" y="-96" type="line" smooth="yes"/>
      <point x="41" y="-107"/>
      <point x="45" y="-120"/>
      <point x="58" y="-120" type="curve" smooth="yes"/>
      <point x="71" y="-120"/>
      <point x="75" y="-107"/>
    </contour>
  </outline>
</glyph>
<glyph name="W" format="1">
  <advance width="1694"/>
  <unicode hex="0057"/>
  <outline>
    <contour>
      <point x="826" y="-96" type="curve" smooth="yes"/>
      <point x="898" y="-24" type="line"/>
      <point x="766" y="108" type="line" smooth="yes"/>
      <point x="750" y="124"/>
      <point x="740" y="136"/>
      <point x="740" y="160" type="curve" smooth="yes"/>
      <point x="740" y="552" type="line" smooth="yes"/>
      <point x="740" y="576"/>
      <point x="750" y="588"/>
      <point x="766" y="604" type="curve" smooth="yes"/>
      <point x="788" y="626" type="line" smooth="yes"/>
      <point x="790" y="628"/>
      <point x="792" y="630"/>
      <point x="794" y="630" type="curve" smooth="yes"/>
      <point x="796" y="630"/>
      <point x="798" y="629"/>
      <point x="798" y="626" type="curve" smooth="yes"/>
      <point x="798" y="200" type="line" smooth="yes"/>
      <point x="798" y="176"/>
      <point x="804" y="164"/>
      <point x="820" y="148" type="curve" smooth="yes"/>
      <point x="944" y="24" type="line" smooth="yes"/>
      <point x="955" y="13"/>
      <point x="959" y="0"/>
      <point x="972" y="0" type="curve" smooth="yes"/>
      <point x="985" y="0"/>
      <point x="989" y="13"/>
      <point x="1000" y="24" type="curve" smooth="yes"/>
      <point x="1117" y="141" type="line"/>
      <point x="1234" y="24" type="line" smooth="yes"/>
      <point x="1245" y="13"/>
      <point x="1249" y="0"/>
      <point x="1262" y="0" type="curve" smooth="yes"/>
      <point x="1275" y="0"/>
      <point x="1279" y="13"/>
      <point x="1290" y="24" type="curve" smooth="yes"/>
      <point x="1472" y="206" type="line" smooth="yes"/>
      <point x="1488" y="222"/>
      <point x="1494" y="234"/>
      <point x="1494" y="258" type="curve" smooth="yes"/>
      <point x="1494" y="748" type="line" smooth="yes"/>
      <point x="1494" y="759"/>
      <point x="1487" y="768"/>
      <point x="1474" y="768" type="curve" smooth="yes"/>
      <point x="1461" y="768"/>
      <point x="1454" y="752"/>
      <point x="1438" y="736" type="curve" smooth="yes"/>
      <point x="1410" y="708" type="line" smooth="yes"/>
      <point x="1394" y="692"/>
      <point x="1378" y="685"/>
      <point x="1378" y="672" type="curve" smooth="yes"/>
      <point x="1378" y="178" type="line" smooth="yes"/>
      <point x="1378" y="154"/>
      <point x="1368" y="142"/>
      <point x="1352" y="126" type="curve" smooth="yes"/>
      <point x="1342" y="116" type="line"/>
      <point x="1230" y="228" type="line" smooth="yes"/>
      <point x="1214" y="244"/>
      <point x="1204" y="256"/>
      <point x="1204" y="280" type="curve" smooth="yes"/>
      <point x="1204" y="748" type="line" smooth="yes"/>
      <point x="1204" y="759"/>
      <point x="1197" y="768"/>
      <point x="1184" y="768" type="curve" smooth="yes"/>
      <point x="1171" y="768"/>
      <point x="1164" y="752"/>
      <point x="1148" y="736" type="curve" smooth="yes"/>
      <point x="1120" y="708" type="line" smooth="yes"/>
      <point x="1104" y="692"/>
      <point x="1088" y="685"/>
      <point x="1088" y="672" type="curve" smooth="yes"/>
      <point x="1088" y="200" type="line" smooth="yes"/>
      <point x="1088" y="183"/>
      <point x="1091" y="172"/>
      <point x="1098" y="162" type="curve"/>
      <point x="1052" y="116" type="line"/>
      <point x="940" y="228" type="line" smooth="yes"/>
      <point x="924" y="244"/>
      <point x="914" y="256"/>
      <point x="914" y="280" type="curve" smooth="yes"/>
      <point x="914" y="748" type="line" smooth="yes"/>
      <point x="914" y="759"/>
      <point x="907" y="768"/>
      <point x="894" y="768" type="curve" smooth="yes"/>
      <point x="881" y="768"/>
      <point x="874" y="752"/>
      <point x="858" y="736" type="curve" smooth="yes"/>
      <point x="646" y="524" type="line" smooth="yes"/>
      <point x="630" y="508"/>
      <point x="624" y="496"/>
      <point x="624" y="472" type="curve" smooth="yes"/>
      <point x="624" y="80" type="line" smooth="yes"/>
      <point x="624" y="56"/>
      <point x="630" y="44"/>
      <point x="646" y="28" type="curve" smooth="yes"/>
      <point x="770" y="-96" type="line" smooth="yes"/>
      <point x="781" y="-107"/>
      <point x="785" y="-120"/>
      <point x="798" y="-120" type="curve" smooth="yes"/>
      <point x="811" y="-120"/>
      <point x="815" y="-107"/>
    </contour>
  </outline>
</glyph>
<glyph name="X" format="1">
  <advance width="638"/>
  <unicode hex="0058"/>
  <outline>
    <contour>
      <point x="370" y="-192" type="curve" smooth="yes"/>
      <point x="382" y="-192"/>
      <point x="387" y="-179"/>
      <point x="398" y="-168" type="curve" smooth="yes"/>
      <point x="534" y="-32"/>
      <point x="580" y="-8"/>
      <point x="580" y="192" type="curve" smooth="yes"/>
      <point x="580" y="472" type="line" smooth="yes"/>
      <point x="580" y="504"/>
      <point x="566" y="512"/>
      <point x="550" y="528" type="curve" smooth="yes"/>
      <point x="534" y="544"/>
      <point x="527" y="560"/>
      <point x="514" y="560" type="curve" smooth="yes"/>
      <point x="501" y="560"/>
      <point x="494" y="544"/>
      <point x="478" y="528" type="curve" smooth="yes"/>
      <point x="358" y="408" type="line" smooth="yes"/>
      <point x="356" y="406"/>
      <point x="354" y="404"/>
      <point x="352" y="404" type="curve" smooth="yes"/>
      <point x="349" y="404"/>
      <point x="348" y="405"/>
      <point x="348" y="408" type="curve" smooth="yes"/>
      <point x="348" y="464" type="line" smooth="yes"/>
      <point x="348" y="612"/>
      <point x="375" y="665"/>
      <point x="434" y="724" type="curve" smooth="yes"/>
      <point x="445" y="735"/>
      <point x="457" y="739"/>
      <point x="458" y="751" type="curve"/>
      <point x="458" y="752" type="line" smooth="yes"/>
      <point x="458" y="761"/>
      <point x="451" y="768"/>
      <point x="442" y="768" type="curve" smooth="yes"/>
      <point x="430" y="768"/>
      <point x="425" y="755"/>
      <point x="414" y="744" type="curve" smooth="yes"/>
      <point x="398" y="728"/>
      <point x="393" y="726"/>
      <point x="382" y="726" type="curve" smooth="yes"/>
      <point x="-384" y="726" type="line" smooth="yes"/>
      <point x="-400" y="726"/>
      <point x="-415" y="709"/>
      <point x="-428" y="696" type="curve" smooth="yes"/>
      <point x="-504" y="620" type="line" smooth="yes"/>
      <point x="-515" y="609"/>
      <point x="-528" y="604"/>
      <point x="-528" y="592" type="curve" smooth="yes"/>
      <point x="-528" y="583"/>
      <point x="-521" y="576"/>
      <point x="-512" y="576" type="curve" smooth="yes"/>
      <point x="-500" y="576"/>
      <point x="-495" y="589"/>
      <point x="-484" y="600" type="curve" smooth="yes"/>
      <point x="-468" y="616"/>
      <point x="-463" y="618"/>
      <point x="-452" y="618" type="curve" smooth="yes"/>
      <point x="283" y="618" type="line" smooth="yes"/>
      <point x="286" y="618"/>
      <point x="287" y="616"/>
      <point x="287" y="614" type="curve" smooth="yes"/>
      <point x="287" y="612"/>
      <point x="286" y="611"/>
      <point x="284" y="608" type="curve" smooth="yes"/>
      <point x="246" y="552"/>
      <point x="232" y="499"/>
      <point x="232" y="384" type="curve" smooth="yes"/>
      <point x="232" y="196" type="line" smooth="yes"/>
      <point x="232" y="185"/>
      <point x="239" y="176"/>
      <point x="252" y="176" type="curve" smooth="yes"/>
      <point x="265" y="176"/>
      <point x="272" y="192"/>
      <point x="288" y="208" type="curve" smooth="yes"/>
      <point x="316" y="236" type="line" smooth="yes"/>
      <point x="332" y="252"/>
      <point x="348" y="259"/>
      <point x="348" y="272" type="curve" smooth="yes"/>
      <point x="348" y="348" type="line" smooth="yes"/>
      <point x="348" y="356"/>
      <point x="350" y="360"/>
      <point x="358" y="368" type="curve" smooth="yes"/>
      <point x="427" y="437" type="line" smooth="yes"/>
      <point x="429" y="439"/>
      <point x="431" y="440"/>
      <point x="434" y="440" type="curve" smooth="yes"/>
      <point x="437" y="440"/>
      <point x="439" y="439"/>
      <point x="441" y="437" type="curve" smooth="yes"/>
      <point x="453" y="425"/>
      <point x="464" y="415"/>
      <point x="464" y="392" type="curve" smooth="yes"/>
      <point x="464" y="112" type="line" smooth="yes"/>
      <point x="464" y="-36"/>
      <point x="437" y="-89"/>
      <point x="378" y="-148" type="curve" smooth="yes"/>
      <point x="367" y="-159"/>
      <point x="354" y="-163"/>
      <point x="354" y="-176" type="curve" smooth="yes"/>
      <point x="354" y="-185"/>
      <point x="361" y="-192"/>
    </contour>
    <contour>
      <point x="872" y="208" type="curve" smooth="yes"/>
      <point x="900" y="236" type="line" smooth="yes"/>
      <point x="916" y="252"/>
      <point x="932" y="259"/>
      <point x="932" y="272" type="curve" smooth="yes"/>
      <point x="932" y="610" type="line" smooth="yes"/>
      <point x="932" y="616"/>
      <point x="934" y="618"/>
      <point x="940" y="618" type="curve" smooth="yes"/>
      <point x="1357" y="618" type="line" smooth="yes"/>
      <point x="1381" y="618"/>
      <point x="1393" y="624"/>
      <point x="1409" y="640" type="curve" smooth="yes"/>
      <point x="1493" y="724" type="line" smooth="yes"/>
      <point x="1504" y="735"/>
      <point x="1517" y="740"/>
      <point x="1517" y="752" type="curve" smooth="yes"/>
      <point x="1517" y="761"/>
      <point x="1510" y="768"/>
      <point x="1501" y="768" type="curve" smooth="yes"/>
      <point x="1489" y="768"/>
      <point x="1484" y="755"/>
      <point x="1473" y="744" type="curve" smooth="yes"/>
      <point x="1457" y="728"/>
      <point x="1452" y="726"/>
      <point x="1441" y="726" type="curve" smooth="yes"/>
      <point x="592" y="726" type="line" smooth="yes"/>
      <point x="568" y="726"/>
      <point x="556" y="720"/>
      <point x="540" y="704" type="curve" smooth="yes"/>
      <point x="456" y="620" type="line" smooth="yes"/>
      <point x="445" y="609"/>
      <point x="432" y="604"/>
      <point x="432" y="592" type="curve" smooth="yes"/>
      <point x="432" y="583"/>
      <point x="439" y="576"/>
      <point x="448" y="576" type="curve" smooth="yes"/>
      <point x="460" y="576"/>
      <point x="465" y="589"/>
      <point x="476" y="600" type="curve" smooth="yes"/>
      <point x="492" y="616"/>
      <point x="497" y="618"/>
      <point x="508" y="618" type="curve" smooth="yes"/>
      <point x="840" y="618" type="line" smooth="yes"/>
      <point x="842" y="618"/>
      <point x="843" y="616"/>
      <point x="843" y="615" type="curve" smooth="yes"/>
      <point x="843" y="613"/>
      <point x="841" y="611"/>
      <point x="840" y="610" type="curve" smooth="yes"/>
      <point x="832" y="602"/>
      <point x="816" y="595"/>
      <point x="816" y="582" type="curve" smooth="yes"/>
      <point x="816" y="196" type="line" smooth="yes"/>
      <point x="816" y="185"/>
      <point x="823" y="176"/>
      <point x="836" y="176" type="curve" smooth="yes"/>
      <point x="849" y="176"/>
      <point x="856" y="192"/>
    </contour>
    <contour>
      <point x="240" y="32" type="curve" smooth="yes"/>
      <point x="316" y="108" type="line" smooth="yes"/>
      <point x="327" y="119"/>
      <point x="340" y="124"/>
      <point x="340" y="136" type="curve" smooth="yes"/>
      <point x="340" y="145"/>
      <point x="333" y="152"/>
      <point x="324" y="152" type="curve" smooth="yes"/>
      <point x="312" y="152"/>
      <point x="307" y="139"/>
      <point x="296" y="128" type="curve" smooth="yes"/>
      <point x="291" y="123"/>
      <point x="286" y="117"/>
      <point x="278" y="117" type="curve" smooth="yes"/>
      <point x="273" y="117"/>
      <point x="265" y="120"/>
      <point x="260" y="123" type="curve"/>
      <point x="196" y="155" type="line" smooth="yes"/>
      <point x="185" y="160"/>
      <point x="174" y="165"/>
      <point x="174" y="176" type="curve" smooth="yes"/>
      <point x="174" y="540" type="line" smooth="yes"/>
      <point x="174" y="551"/>
      <point x="167" y="560"/>
      <point x="154" y="560" type="curve" smooth="yes"/>
      <point x="141" y="560"/>
      <point x="134" y="544"/>
      <point x="118" y="528" type="curve" smooth="yes"/>
      <point x="90" y="500" type="line" smooth="yes"/>
      <point x="74" y="484"/>
      <point x="58" y="477"/>
      <point x="58" y="464" type="curve" smooth="yes"/>
      <point x="58" y="140" type="line" smooth="yes"/>
      <point x="58" y="133"/>
      <point x="56" y="129"/>
      <point x="52" y="125" type="curve" smooth="yes"/>
      <point x="37" y="110"/>
      <point x="28" y="108"/>
      <point x="28" y="96" type="curve" smooth="yes"/>
      <point x="28" y="80"/>
      <point x="49" y="78"/>
      <point x="60" y="73" type="curve" smooth="yes"/>
      <point x="174" y="16" type="line" smooth="yes"/>
      <point x="182" y="12"/>
      <point x="193" y="0"/>
      <point x="204" y="0" type="curve" smooth="yes"/>
      <point x="217" y="0"/>
      <point x="224" y="16"/>
    </contour>
    <contour>
      <point x="824" y="32" type="curve" smooth="yes"/>
      <point x="900" y="108" type="line" smooth="yes"/>
      <point x="911" y="119"/>
      <point x="924" y="124"/>
      <point x="924" y="136" type="curve" smooth="yes"/>
      <point x="924" y="145"/>
      <point x="917" y="152"/>
      <point x="908" y="152" type="curve" smooth="yes"/>
      <point x="896" y="152"/>
      <point x="891" y="139"/>
      <point x="880" y="128" type="curve" smooth="yes"/>
      <point x="875" y="123"/>
      <point x="870" y="117"/>
      <point x="862" y="117" type="curve" smooth="yes"/>
      <point x="857" y="117"/>
      <point x="849" y="120"/>
      <point x="844" y="123" type="curve"/>
      <point x="780" y="155" type="line" smooth="yes"/>
      <point x="769" y="160"/>
      <point x="758" y="165"/>
      <point x="758" y="176" type="curve" smooth="yes"/>
      <point x="758" y="540" type="line" smooth="yes"/>
      <point x="758" y="551"/>
      <point x="751" y="560"/>
      <point x="738" y="560" type="curve" smooth="yes"/>
      <point x="725" y="560"/>
      <point x="718" y="544"/>
      <point x="702" y="528" type="curve" smooth="yes"/>
      <point x="674" y="500" type="line" smooth="yes"/>
      <point x="658" y="484"/>
      <point x="642" y="477"/>
      <point x="642" y="464" type="curve" smooth="yes"/>
      <point x="642" y="140" type="line" smooth="yes"/>
      <point x="642" y="133"/>
      <point x="640" y="129"/>
      <point x="636" y="125" type="curve" smooth="yes"/>
      <point x="621" y="110"/>
      <point x="612" y="108"/>
      <point x="612" y="96" type="curve" smooth="yes"/>
      <point x="612" y="80"/>
      <point x="633" y="78"/>
      <point x="644" y="73" type="curve" smooth="yes"/>
      <point x="758" y="16" type="line" smooth="yes"/>
      <point x="766" y="12"/>
      <point x="777" y="0"/>
      <point x="788" y="0" type="curve" smooth="yes"/>
      <point x="801" y="0"/>
      <point x="808" y="16"/>
    </contour>
    <contour>
      <point x="-136" y="436" type="curve" smooth="yes"/>
      <point x="-92" y="392" type="line" smooth="yes"/>
      <point x="-81" y="381"/>
      <point x="-77" y="368"/>
      <point x="-64" y="368" type="curve" smooth="yes"/>
      <point x="-51" y="368"/>
      <point x="-47" y="381"/>
      <point x="-36" y="392" type="curve" smooth="yes"/>
      <point x="8" y="436" type="line" smooth="yes"/>
      <point x="19" y="447"/>
      <point x="32" y="451"/>
      <point x="32" y="464" type="curve" smooth="yes"/>
      <point x="32" y="477"/>
      <point x="19" y="481"/>
      <point x="8" y="492" type="curve" smooth="yes"/>
      <point x="-36" y="536" type="line" smooth="yes"/>
      <point x="-47" y="547"/>
      <point x="-51" y="560"/>
      <point x="-64" y="560" type="curve" smooth="yes"/>
      <point x="-77" y="560"/>
      <point x="-81" y="547"/>
      <point x="-92" y="536" type="curve" smooth="yes"/>
      <point x="-136" y="492" type="line" smooth="yes"/>
      <point x="-147" y="481"/>
      <point x="-160" y="477"/>
      <point x="-160" y="464" type="curve" smooth="yes"/>
      <point x="-160" y="451"/>
      <point x="-147" y="447"/>
    </contour>
    <contour>
      <point x="958" y="464" type="curve" smooth="yes"/>
      <point x="958" y="451"/>
      <point x="971" y="447"/>
      <point x="982" y="436" type="curve" smooth="yes"/>
      <point x="1026" y="392" type="line" smooth="yes"/>
      <point x="1037" y="381"/>
      <point x="1041" y="368"/>
      <point x="1054" y="368" type="curve" smooth="yes"/>
      <point x="1067" y="368"/>
      <point x="1071" y="381"/>
      <point x="1082" y="392" type="curve" smooth="yes"/>
      <point x="1126" y="436" type="line" smooth="yes"/>
      <point x="1137" y="447"/>
      <point x="1150" y="451"/>
      <point x="1150" y="464" type="curve" smooth="yes"/>
      <point x="1150" y="477"/>
      <point x="1137" y="481"/>
      <point x="1126" y="492" type="curve" smooth="yes"/>
      <point x="1082" y="536" type="line" smooth="yes"/>
      <point x="1071" y="547"/>
      <point x="1067" y="560"/>
      <point x="1054" y="560" type="curve" smooth="yes"/>
      <point x="1041" y="560"/>
      <point x="1037" y="547"/>
      <point x="1026" y="536" type="curve" smooth="yes"/>
      <point x="982" y="492" type="line" smooth="yes"/>
      <point x="971" y="481"/>
      <point x="958" y="477"/>
    </contour>
  </outline>
</glyph>
<glyph name="Y" format="1">
  <advance width="696"/>
  <unicode hex="0059"/>
  <outline>
    <contour>
      <point x="200" y="228" type="line" smooth="yes"/>
      <point x="184" y="244"/>
      <point x="174" y="256"/>
      <point x="174" y="280" type="curve" smooth="yes"/>
      <point x="174" y="552" type="line" smooth="yes"/>
      <point x="174" y="576"/>
      <point x="184" y="588"/>
      <point x="200" y="604" type="curve" smooth="yes"/>
      <point x="232" y="636" type="line"/>
      <point x="232" y="280" type="line" smooth="yes"/>
      <point x="232" y="256"/>
      <point x="222" y="244"/>
      <point x="206" y="228" type="curve" smooth="yes"/>
      <point x="203" y="225" type="line"/>
    </contour>
    <contour>
      <point x="420" y="-170" type="curve" smooth="yes"/>
      <point x="616" y="26" type="line" smooth="yes"/>
      <point x="632" y="42"/>
      <point x="638" y="54"/>
      <point x="638" y="78" type="curve" smooth="yes"/>
      <point x="638" y="748" type="line" smooth="yes"/>
      <point x="638" y="759"/>
      <point x="631" y="768"/>
      <point x="618" y="768" type="curve" smooth="yes"/>
      <point x="605" y="768"/>
      <point x="598" y="752"/>
      <point x="582" y="736" type="curve" smooth="yes"/>
      <point x="554" y="708" type="line" smooth="yes"/>
      <point x="538" y="692"/>
      <point x="522" y="685"/>
      <point x="522" y="672" type="curve" smooth="yes"/>
      <point x="522" y="164" type="line"/>
      <point x="484" y="126" type="line" smooth="yes"/>
      <point x="468" y="110"/>
      <point x="463" y="108"/>
      <point x="452" y="108" type="curve" smooth="yes"/>
      <point x="356" y="108" type="line" smooth="yes"/>
      <point x="334" y="108"/>
      <point x="318" y="110"/>
      <point x="301" y="127" type="curve" smooth="yes"/>
      <point x="223" y="205" type="line"/>
      <point x="326" y="308" type="line" smooth="yes"/>
      <point x="342" y="324"/>
      <point x="348" y="336"/>
      <point x="348" y="360" type="curve" smooth="yes"/>
      <point x="348" y="748" type="line" smooth="yes"/>
      <point x="348" y="759"/>
      <point x="341" y="768"/>
      <point x="328" y="768" type="curve" smooth="yes"/>
      <point x="315" y="768"/>
      <point x="311" y="755"/>
      <point x="300" y="744" type="curve" smooth="yes"/>
      <point x="80" y="524" type="line" smooth="yes"/>
      <point x="64" y="508"/>
      <point x="58" y="496"/>
      <point x="58" y="472" type="curve" smooth="yes"/>
      <point x="58" y="200" type="line" smooth="yes"/>
      <point x="58" y="176"/>
      <point x="64" y="164"/>
      <point x="80" y="148" type="curve" smooth="yes"/>
      <point x="207" y="21" type="line" smooth="yes"/>
      <point x="224" y="4"/>
      <point x="237" y="0"/>
      <point x="260" y="0" type="curve" smooth="yes"/>
      <point x="368" y="0" type="line" smooth="yes"/>
      <point x="392" y="0"/>
      <point x="404" y="6"/>
      <point x="420" y="22" type="curve" smooth="yes"/>
      <point x="522" y="124" type="line"/>
      <point x="522" y="-2" type="line" smooth="yes"/>
      <point x="522" y="-26"/>
      <point x="512" y="-38"/>
      <point x="496" y="-54" type="curve" smooth="yes"/>
      <point x="466" y="-84" type="line"/>
      <point x="174" y="-84" type="line" smooth="yes"/>
      <point x="150" y="-84"/>
      <point x="138" y="-90"/>
      <point x="122" y="-106" type="curve" smooth="yes"/>
      <point x="70" y="-158" type="line" smooth="yes"/>
      <point x="59" y="-169"/>
      <point x="58" y="-171"/>
      <point x="58" y="-178" type="curve" smooth="yes"/>
      <point x="58" y="-187"/>
      <point x="65" y="-192"/>
      <point x="74" y="-192" type="curve" smooth="yes"/>
      <point x="368" y="-192" type="line" smooth="yes"/>
      <point x="392" y="-192"/>
      <point x="404" y="-186"/>
    </contour>
  </outline>
</glyph>
<glyph name="Z" format="1">
  <advance width="500"/>
  <unicode hex="005A"/>
  <outline>
    <contour>
      <point x="256" y="390" type="curve" smooth="yes"/>
      <point x="558" y="692" type="line" smooth="yes"/>
      <point x="569" y="703"/>
      <point x="570" y="705"/>
      <point x="570" y="712" type="curve" smooth="yes"/>
      <point x="570" y="721"/>
      <point x="563" y="726"/>
      <point x="554" y="726" type="curve" smooth="yes"/>
      <point x="228" y="726" type="line" smooth="yes"/>
      <point x="204" y="726"/>
      <point x="192" y="720"/>
      <point x="176" y="704" type="curve" smooth="yes"/>
      <point x="92" y="620" type="line" smooth="yes"/>
      <point x="81" y="609"/>
      <point x="68" y="604"/>
      <point x="68" y="592" type="curve" smooth="yes"/>
      <point x="68" y="583"/>
      <point x="75" y="576"/>
      <point x="84" y="576" type="curve" smooth="yes"/>
      <point x="96" y="576"/>
      <point x="101" y="589"/>
      <point x="112" y="600" type="curve" smooth="yes"/>
      <point x="128" y="616"/>
      <point x="133" y="618"/>
      <point x="144" y="618" type="curve" smooth="yes"/>
      <point x="444" y="618" type="line"/>
      <point x="308" y="482" type="line" smooth="yes"/>
      <point x="304" y="478"/>
      <point x="300" y="475"/>
      <point x="294" y="475" type="curve" smooth="yes"/>
      <point x="289" y="475"/>
      <point x="281" y="478"/>
      <point x="276" y="481" type="curve"/>
      <point x="236" y="501" type="line" smooth="yes"/>
      <point x="226" y="506"/>
      <point x="215" y="518"/>
      <point x="204" y="518" type="curve" smooth="yes"/>
      <point x="191" y="518"/>
      <point x="184" y="502"/>
      <point x="168" y="486" type="curve" smooth="yes"/>
      <point x="92" y="410" type="line" smooth="yes"/>
      <point x="81" y="399"/>
      <point x="68" y="394"/>
      <point x="68" y="382" type="curve" smooth="yes"/>
      <point x="68" y="373"/>
      <point x="75" y="366"/>
      <point x="84" y="366" type="curve" smooth="yes"/>
      <point x="96" y="366"/>
      <point x="101" y="379"/>
      <point x="112" y="390" type="curve" smooth="yes"/>
      <point x="117" y="395"/>
      <point x="122" y="401"/>
      <point x="130" y="401" type="curve" smooth="yes"/>
      <point x="135" y="401"/>
      <point x="143" y="398"/>
      <point x="148" y="395" type="curve"/>
      <point x="190" y="374" type="line" smooth="yes"/>
      <point x="198" y="370"/>
      <point x="209" y="358"/>
      <point x="220" y="358" type="curve" smooth="yes"/>
      <point x="233" y="358"/>
      <point x="240" y="374"/>
    </contour>
    <contour>
      <point x="473" y="22" type="curve" smooth="yes"/>
      <point x="557" y="106" type="line" smooth="yes"/>
      <point x="568" y="117"/>
      <point x="581" y="122"/>
      <point x="581" y="134" type="curve" smooth="yes"/>
      <point x="581" y="143"/>
      <point x="574" y="150"/>
      <point x="565" y="150" type="curve" smooth="yes"/>
      <point x="553" y="150"/>
      <point x="548" y="137"/>
      <point x="537" y="126" type="curve" smooth="yes"/>
      <point x="521" y="110"/>
      <point x="516" y="108"/>
      <point x="505" y="108" type="curve" smooth="yes"/>
      <point x="86" y="108" type="line"/>
      <point x="278" y="300" type="line" smooth="yes"/>
      <point x="282" y="304"/>
      <point x="286" y="307"/>
      <point x="292" y="307" type="curve" smooth="yes"/>
      <point x="297" y="307"/>
      <point x="305" y="304"/>
      <point x="310" y="301" type="curve"/>
      <point x="352" y="280" type="line" smooth="yes"/>
      <point x="360" y="276"/>
      <point x="371" y="264"/>
      <point x="382" y="264" type="curve" smooth="yes"/>
      <point x="395" y="264"/>
      <point x="402" y="280"/>
      <point x="418" y="296" type="curve" smooth="yes"/>
      <point x="494" y="372" type="line" smooth="yes"/>
      <point x="505" y="383"/>
      <point x="518" y="388"/>
      <point x="518" y="400" type="curve" smooth="yes"/>
      <point x="518" y="409"/>
      <point x="511" y="416"/>
      <point x="502" y="416" type="curve" smooth="yes"/>
      <point x="490" y="416"/>
      <point x="485" y="403"/>
      <point x="474" y="392" type="curve" smooth="yes"/>
      <point x="469" y="387"/>
      <point x="464" y="381"/>
      <point x="456" y="381" type="curve" smooth="yes"/>
      <point x="451" y="381"/>
      <point x="443" y="384"/>
      <point x="438" y="387" type="curve"/>
      <point x="398" y="407" type="line" smooth="yes"/>
      <point x="388" y="412"/>
      <point x="377" y="424"/>
      <point x="366" y="424" type="curve" smooth="yes"/>
      <point x="353" y="424"/>
      <point x="346" y="408"/>
      <point x="330" y="392" type="curve" smooth="yes"/>
      <point x="-28" y="34" type="line" smooth="yes"/>
      <point x="-39" y="23"/>
      <point x="-40" y="21"/>
      <point x="-40" y="14" type="curve" smooth="yes"/>
      <point x="-40" y="5"/>
      <point x="-33" y="0"/>
      <point x="-24" y="0" type="curve" smooth="yes"/>
      <point x="421" y="0" type="line" smooth="yes"/>
      <point x="445" y="0"/>
      <point x="457" y="6"/>
    </contour>
  </outline>
</glyph>
<glyph name="a" format="1">
  <advance width="432"/>
  <unicode hex="0061"/>
  <outline>
    <contour>
      <point x="212" y="560" type="curve" smooth="yes"/>
      <point x="199" y="560"/>
      <point x="187" y="539"/>
      <point x="176" y="528" type="curve" smooth="yes"/>
      <point x="108" y="460" type="line" smooth="yes"/>
      <point x="97" y="449"/>
      <point x="76" y="437"/>
      <point x="76" y="424" type="curve" smooth="yes"/>
      <point x="76" y="416"/>
      <point x="83" y="408"/>
      <point x="92" y="408" type="curve" smooth="yes"/>
      <point x="104" y="408"/>
      <point x="111" y="423"/>
      <point x="116" y="428" type="curve" smooth="yes"/>
      <point x="120" y="432" type="line" smooth="yes"/>
      <point x="128" y="440"/>
      <point x="132" y="444"/>
      <point x="140" y="444" type="curve" smooth="yes"/>
      <point x="145" y="444"/>
      <point x="147" y="443"/>
      <point x="168" y="432" type="curve" smooth="yes"/>
      <point x="240" y="396" type="line" smooth="yes"/>
      <point x="253" y="389"/>
      <point x="258" y="384"/>
      <point x="258" y="373" type="curve" smooth="yes"/>
      <point x="258" y="360" type="line" smooth="yes"/>
      <point x="258" y="349"/>
      <point x="253" y="344"/>
      <point x="240" y="337" type="curve" smooth="yes"/>
      <point x="72" y="253" type="line" smooth="yes"/>
      <point x="51" y="242"/>
      <point x="26" y="242"/>
      <point x="26" y="225" type="curve" smooth="yes"/>
      <point x="26" y="136" type="line" smooth="yes"/>
      <point x="26" y="120"/>
      <point x="12" y="107"/>
      <point x="12" y="96" type="curve" smooth="yes"/>
      <point x="12" y="79"/>
      <point x="43" y="75"/>
      <point x="64" y="64" type="curve" smooth="yes"/>
      <point x="128" y="32" type="line" smooth="yes"/>
      <point x="171" y="11"/>
      <point x="177" y="0"/>
      <point x="188" y="0" type="curve" smooth="yes"/>
      <point x="201" y="0"/>
      <point x="208" y="16"/>
      <point x="224" y="32" type="curve" smooth="yes"/>
      <point x="240" y="48" type="line" smooth="yes"/>
      <point x="245" y="53"/>
      <point x="249" y="56"/>
      <point x="256" y="56" type="curve" smooth="yes"/>
      <point x="263" y="56"/>
      <point x="267" y="53"/>
      <point x="272" y="48" type="curve" smooth="yes"/>
      <point x="288" y="32" type="line" smooth="yes"/>
      <point x="304" y="16"/>
      <point x="311" y="0"/>
      <point x="324" y="0" type="curve" smooth="yes"/>
      <point x="337" y="0"/>
      <point x="344" y="16"/>
      <point x="360" y="32" type="curve" smooth="yes"/>
      <point x="388" y="60" type="line" smooth="yes"/>
      <point x="404" y="76"/>
      <point x="420" y="83"/>
      <point x="420" y="96" type="curve" smooth="yes"/>
      <point x="420" y="109"/>
      <point x="404" y="116"/>
      <point x="388" y="132" type="curve" smooth="yes"/>
      <point x="382" y="138" type="line" smooth="yes"/>
      <point x="377" y="143"/>
      <point x="374" y="149"/>
      <point x="374" y="160" type="curve" smooth="yes"/>
      <point x="374" y="416" type="line" smooth="yes"/>
      <point x="374" y="437"/>
      <point x="388" y="448"/>
      <point x="388" y="464" type="curve" smooth="yes"/>
      <point x="388" y="480"/>
      <point x="364" y="481"/>
      <point x="352" y="488" type="curve"/>
      <point x="268" y="530" type="line" smooth="yes"/>
      <point x="247" y="541"/>
      <point x="223" y="560"/>
    </contour>
    <contour>
      <point x="158" y="165" type="line" smooth="yes"/>
      <point x="149" y="169"/>
      <point x="142" y="175"/>
      <point x="142" y="184" type="curve" smooth="yes"/>
      <point x="142" y="238" type="line" smooth="yes"/>
      <point x="142" y="249"/>
      <point x="148" y="257"/>
      <point x="160" y="262" type="curve"/>
      <point x="216" y="290" type="line" smooth="yes"/>
      <point x="232" y="298"/>
      <point x="238" y="298"/>
      <point x="242" y="298" type="curve" smooth="yes"/>
      <point x="250" y="298"/>
      <point x="258" y="293"/>
      <point x="258" y="282" type="curve" smooth="yes"/>
      <point x="258" y="144" type="line" smooth="yes"/>
      <point x="258" y="133"/>
      <point x="250" y="128"/>
      <point x="242" y="128" type="curve" smooth="yes"/>
      <point x="234" y="128"/>
      <point x="227" y="131"/>
      <point x="216" y="136" type="curve" smooth="yes"/>
    </contour>
  </outline>
</glyph>
<glyph name="b" format="1">
  <advance width="464"/>
  <unicode hex="0062"/>
  <outline>
    <contour>
      <point x="406" y="424" type="line" smooth="yes"/>
      <point x="406" y="440"/>
      <point x="420" y="453"/>
      <point x="420" y="464" type="curve" smooth="yes"/>
      <point x="420" y="481"/>
      <point x="389" y="485"/>
      <point x="368" y="496" type="curve" smooth="yes"/>
      <point x="304" y="528" type="line" smooth="yes"/>
      <point x="261" y="549"/>
      <point x="255" y="560"/>
      <point x="244" y="560" type="curve" smooth="yes"/>
      <point x="231" y="560"/>
      <point x="224" y="544"/>
      <point x="208" y="528" type="curve" smooth="yes"/>
      <point x="192" y="512" type="line" smooth="yes"/>
      <point x="188" y="508"/>
      <point x="186" y="505"/>
      <point x="182" y="505" type="curve" smooth="yes"/>
      <point x="178" y="505"/>
      <point x="174" y="507"/>
      <point x="174" y="514" type="curve" smooth="yes"/>
      <point x="174" y="640" type="line" smooth="yes"/>
      <point x="174" y="683"/>
      <point x="204" y="731"/>
      <point x="204" y="752" type="curve" smooth="yes"/>
      <point x="204" y="761"/>
      <point x="197" y="768"/>
      <point x="188" y="768" type="curve" smooth="yes"/>
      <point x="167" y="768"/>
      <point x="121" y="712"/>
      <point x="108" y="712" type="curve" smooth="yes"/>
      <point x="95" y="712"/>
      <point x="55" y="728"/>
      <point x="44" y="728" type="curve" smooth="yes"/>
      <point x="33" y="728"/>
      <point x="28" y="719"/>
      <point x="28" y="712" type="curve" smooth="yes"/>
      <point x="28" y="691"/>
      <point x="58" y="655"/>
      <point x="58" y="612" type="curve" smooth="yes"/>
      <point x="58" y="136" type="line" smooth="yes"/>
      <point x="58" y="120"/>
      <point x="44" y="107"/>
      <point x="44" y="96" type="curve" smooth="yes"/>
      <point x="44" y="77"/>
      <point x="73" y="78"/>
      <point x="96" y="70" type="curve" smooth="yes"/>
      <point x="240" y="19" type="line" smooth="yes"/>
      <point x="261" y="11"/>
      <point x="271" y="0"/>
      <point x="284" y="0" type="curve" smooth="yes"/>
      <point x="297" y="0"/>
      <point x="304" y="16"/>
      <point x="320" y="32" type="curve" smooth="yes"/>
      <point x="388" y="100" type="line" smooth="yes"/>
      <point x="404" y="116"/>
      <point x="420" y="123"/>
      <point x="420" y="136" type="curve" smooth="yes"/>
      <point x="420" y="147"/>
      <point x="406" y="155"/>
      <point x="406" y="176" type="curve" smooth="yes"/>
    </contour>
    <contour>
      <point x="290" y="154" type="line" smooth="yes"/>
      <point x="290" y="149"/>
      <point x="286" y="145"/>
      <point x="282" y="145" type="curve" smooth="yes"/>
      <point x="278" y="145"/>
      <point x="273" y="146"/>
      <point x="260" y="150" type="curve" smooth="yes"/>
      <point x="188" y="174" type="line" smooth="yes"/>
      <point x="177" y="178"/>
      <point x="174" y="179"/>
      <point x="174" y="188" type="curve" smooth="yes"/>
      <point x="174" y="416" type="line" smooth="yes"/>
      <point x="174" y="427"/>
      <point x="182" y="432"/>
      <point x="190" y="432" type="curve" smooth="yes"/>
      <point x="198" y="432"/>
      <point x="205" y="429"/>
      <point x="216" y="424" type="curve" smooth="yes"/>
      <point x="274" y="395" type="line" smooth="yes"/>
      <point x="283" y="391"/>
      <point x="290" y="385"/>
      <point x="290" y="376" type="curve" smooth="yes"/>
    </contour>
  </outline>
</glyph>
<glyph name="c" format="1">
  <advance width="356"/>
  <unicode hex="0063"/>
  <outline>
    <contour>
      <point x="174" y="398" type="line" smooth="yes"/>
      <point x="174" y="402"/>
      <point x="178" y="406"/>
      <point x="182" y="406" type="curve" smooth="yes"/>
      <point x="186" y="406"/>
      <point x="190" y="404"/>
      <point x="198" y="400" type="curve" smooth="yes"/>
      <point x="230" y="384" type="line"/>
      <point x="242" y="379"/>
      <point x="251" y="368"/>
      <point x="260" y="368" type="curve" smooth="yes"/>
      <point x="272" y="368"/>
      <point x="280" y="384"/>
      <point x="296" y="400" type="curve" smooth="yes"/>
      <point x="324" y="428" type="line" smooth="yes"/>
      <point x="340" y="444"/>
      <point x="356" y="451"/>
      <point x="356" y="464" type="curve" smooth="yes"/>
      <point x="356" y="481"/>
      <point x="328" y="485"/>
      <point x="304" y="497" type="curve" smooth="yes"/>
      <point x="242" y="528" type="line" smooth="yes"/>
      <point x="196" y="551"/>
      <point x="193" y="560"/>
      <point x="180" y="560" type="curve" smooth="yes"/>
      <point x="167" y="560"/>
      <point x="160" y="544"/>
      <point x="144" y="528" type="curve" smooth="yes"/>
      <point x="76" y="460" type="line" smooth="yes"/>
      <point x="60" y="444"/>
      <point x="44" y="437"/>
      <point x="44" y="424" type="curve" smooth="yes"/>
      <point x="44" y="411"/>
      <point x="58" y="405"/>
      <point x="58" y="384" type="curve" smooth="yes"/>
      <point x="58" y="144" type="line" smooth="yes"/>
      <point x="58" y="133"/>
      <point x="53" y="126"/>
      <point x="48" y="121" type="curve" smooth="yes"/>
      <point x="43" y="116"/>
      <point x="28" y="109"/>
      <point x="28" y="96" type="curve" smooth="yes"/>
      <point x="28" y="79"/>
      <point x="59" y="75"/>
      <point x="80" y="64" type="curve" smooth="yes"/>
      <point x="148" y="30" type="line" smooth="yes"/>
      <point x="169" y="19"/>
      <point x="193" y="0"/>
      <point x="204" y="0" type="curve" smooth="yes"/>
      <point x="217" y="0"/>
      <point x="229" y="21"/>
      <point x="240" y="32" type="curve" smooth="yes"/>
      <point x="308" y="100" type="line" smooth="yes"/>
      <point x="319" y="111"/>
      <point x="340" y="123"/>
      <point x="340" y="136" type="curve" smooth="yes"/>
      <point x="340" y="144"/>
      <point x="333" y="152"/>
      <point x="324" y="152" type="curve" smooth="yes"/>
      <point x="312" y="152"/>
      <point x="305" y="137"/>
      <point x="300" y="132" type="curve" smooth="yes"/>
      <point x="296" y="128" type="line" smooth="yes"/>
      <point x="288" y="120"/>
      <point x="284" y="116"/>
      <point x="276" y="116" type="curve" smooth="yes"/>
      <point x="271" y="116"/>
      <point x="269" y="117"/>
      <point x="248" y="128" type="curve" smooth="yes"/>
      <point x="188" y="158" type="line" smooth="yes"/>
      <point x="177" y="163"/>
      <point x="174" y="165"/>
      <point x="174" y="176" type="curve" smooth="yes"/>
    </contour>
  </outline>
</glyph>
<glyph name="d" format="1">
  <advance width="464"/>
  <unicode hex="0064"/>
  <outline>
    <contour>
      <point x="390" y="640" type="line" smooth="yes"/>
      <point x="390" y="683"/>
      <point x="420" y="731"/>
      <point x="420" y="752" type="curve" smooth="yes"/>
      <point x="420" y="761"/>
      <point x="413" y="768"/>
      <point x="404" y="768" type="curve" smooth="yes"/>
      <point x="383" y="768"/>
      <point x="337" y="712"/>
      <point x="324" y="712" type="curve" smooth="yes"/>
      <point x="311" y="712"/>
      <point x="271" y="728"/>
      <point x="260" y="728" type="curve" smooth="yes"/>
      <point x="249" y="728"/>
      <point x="244" y="719"/>
      <point x="244" y="712" type="curve" smooth="yes"/>
      <point x="244" y="691"/>
      <point x="274" y="655"/>
      <point x="274" y="612" type="curve" smooth="yes"/>
      <point x="274" y="514" type="line" smooth="yes"/>
      <point x="274" y="507"/>
      <point x="270" y="505"/>
      <point x="266" y="505" type="curve" smooth="yes"/>
      <point x="262" y="505"/>
      <point x="260" y="508"/>
      <point x="256" y="512" type="curve" smooth="yes"/>
      <point x="240" y="528" type="line" smooth="yes"/>
      <point x="224" y="544"/>
      <point x="217" y="560"/>
      <point x="204" y="560" type="curve" smooth="yes"/>
      <point x="193" y="560"/>
      <point x="187" y="549"/>
      <point x="144" y="528" type="curve" smooth="yes"/>
      <point x="80" y="496" type="line" smooth="yes"/>
      <point x="59" y="485"/>
      <point x="28" y="481"/>
      <point x="28" y="464" type="curve" smooth="yes"/>
      <point x="28" y="453"/>
      <point x="42" y="440"/>
      <point x="42" y="424" type="curve" smooth="yes"/>
      <point x="42" y="136" type="line" smooth="yes"/>
      <point x="42" y="120"/>
      <point x="28" y="107"/>
      <point x="28" y="96" type="curve" smooth="yes"/>
      <point x="28" y="79"/>
      <point x="59" y="75"/>
      <point x="80" y="64" type="curve" smooth="yes"/>
      <point x="144" y="32" type="line" smooth="yes"/>
      <point x="187" y="11"/>
      <point x="193" y="0"/>
      <point x="204" y="0" type="curve" smooth="yes"/>
      <point x="217" y="0"/>
      <point x="224" y="16"/>
      <point x="240" y="32" type="curve" smooth="yes"/>
      <point x="256" y="48" type="line" smooth="yes"/>
      <point x="261" y="53"/>
      <point x="265" y="56"/>
      <point x="272" y="56" type="curve" smooth="yes"/>
      <point x="279" y="56"/>
      <point x="283" y="53"/>
      <point x="288" y="48" type="curve" smooth="yes"/>
      <point x="304" y="32" type="line" smooth="yes"/>
      <point x="320" y="16"/>
      <point x="327" y="0"/>
      <point x="340" y="0" type="curve" smooth="yes"/>
      <point x="353" y="0"/>
      <point x="360" y="16"/>
      <point x="376" y="32" type="curve" smooth="yes"/>
      <point x="404" y="60" type="line" smooth="yes"/>
      <point x="420" y="76"/>
      <point x="436" y="83"/>
      <point x="436" y="96" type="curve" smooth="yes"/>
      <point x="436" y="109"/>
      <point x="420" y="116"/>
      <point x="404" y="132" type="curve" smooth="yes"/>
      <point x="398" y="138" type="line" smooth="yes"/>
      <point x="393" y="143"/>
      <point x="390" y="149"/>
      <point x="390" y="160" type="curve" smooth="yes"/>
    </contour>
    <contour>
      <point x="274" y="144" type="line" smooth="yes"/>
      <point x="274" y="133"/>
      <point x="266" y="128"/>
      <point x="258" y="128" type="curve" smooth="yes"/>
      <point x="250" y="128"/>
      <point x="243" y="131"/>
      <point x="232" y="136" type="curve" smooth="yes"/>
      <point x="174" y="165" type="line" smooth="yes"/>
      <point x="165" y="169"/>
      <point x="158" y="175"/>
      <point x="158" y="184" type="curve" smooth="yes"/>
      <point x="158" y="376" type="line" smooth="yes"/>
      <point x="158" y="385"/>
      <point x="165" y="391"/>
      <point x="174" y="395" type="curve" smooth="yes"/>
      <point x="232" y="424" type="line" smooth="yes"/>
      <point x="243" y="429"/>
      <point x="250" y="432"/>
      <point x="258" y="432" type="curve" smooth="yes"/>
      <point x="266" y="432"/>
      <point x="274" y="427"/>
      <point x="274" y="416" type="curve" smooth="yes"/>
    </contour>
  </outline>
</glyph>
<glyph name="e" format="1">
  <advance width="356"/>
  <unicode hex="0065"/>
  <outline>
    <contour>
      <point x="58" y="144" type="line" smooth="yes"/>
      <point x="58" y="133"/>
      <point x="53" y="126"/>
      <point x="48" y="121" type="curve" smooth="yes"/>
      <point x="43" y="116"/>
      <point x="28" y="109"/>
      <point x="28" y="96" type="curve" smooth="yes"/>
      <point x="28" y="79"/>
      <point x="59" y="75"/>
      <point x="80" y="64" type="curve" smooth="yes"/>
      <point x="148" y="30" type="line" smooth="yes"/>
      <point x="169" y="19"/>
      <point x="193" y="0"/>
      <point x="204" y="0" type="curve" smooth="yes"/>
      <point x="217" y="0"/>
      <point x="229" y="21"/>
      <point x="240" y="32" type="curve" smooth="yes"/>
      <point x="308" y="100" type="line" smooth="yes"/>
      <point x="319" y="111"/>
      <point x="340" y="123"/>
      <point x="340" y="136" type="curve" smooth="yes"/>
      <point x="340" y="144"/>
      <point x="333" y="152"/>
      <point x="324" y="152" type="curve" smooth="yes"/>
      <point x="312" y="152"/>
      <point x="305" y="137"/>
      <point x="300" y="132" type="curve" smooth="yes"/>
      <point x="296" y="128" type="line" smooth="yes"/>
      <point x="288" y="120"/>
      <point x="284" y="116"/>
      <point x="276" y="116" type="curve" smooth="yes"/>
      <point x="271" y="116"/>
      <point x="269" y="117"/>
      <point x="248" y="128" type="curve" smooth="yes"/>
      <point x="188" y="158" type="line" smooth="yes"/>
      <point x="177" y="163"/>
      <point x="174" y="164"/>
      <point x="174" y="176" type="curve" smooth="yes"/>
      <point x="174" y="185" type="line" smooth="yes"/>
      <point x="174" y="197"/>
      <point x="177" y="201"/>
      <point x="188" y="212" type="curve" smooth="yes"/>
      <point x="324" y="348" type="line" smooth="yes"/>
      <point x="339" y="364"/>
      <point x="356" y="371"/>
      <point x="356" y="384" type="curve" smooth="yes"/>
      <point x="356" y="397"/>
      <point x="340" y="404"/>
      <point x="324" y="420" type="curve" smooth="yes"/>
      <point x="216" y="528" type="line" smooth="yes"/>
      <point x="200" y="544"/>
      <point x="193" y="560"/>
      <point x="180" y="560" type="curve" smooth="yes"/>
      <point x="167" y="560"/>
      <point x="160" y="544"/>
      <point x="144" y="528" type="curve" smooth="yes"/>
      <point x="72" y="456" type="line" smooth="yes"/>
      <point x="61" y="445"/>
      <point x="44" y="437"/>
      <point x="44" y="424" type="curve" smooth="yes"/>
      <point x="44" y="411"/>
      <point x="58" y="405"/>
      <point x="58" y="384" type="curve" smooth="yes"/>
    </contour>
    <contour>
      <point x="174" y="256" type="curve" smooth="yes"/>
      <point x="174" y="366" type="line" smooth="yes"/>
      <point x="174" y="370"/>
      <point x="178" y="374"/>
      <point x="182" y="374" type="curve" smooth="yes"/>
      <point x="186" y="374"/>
      <point x="189" y="370"/>
      <point x="192" y="367" type="curve" smooth="yes"/>
      <point x="238" y="321" type="line" smooth="yes"/>
      <point x="241" y="318"/>
      <point x="244" y="315"/>
      <point x="244" y="311" type="curve" smooth="yes"/>
      <point x="244" y="307"/>
      <point x="241" y="304"/>
      <point x="238" y="301" type="curve" smooth="yes"/>
      <point x="192" y="255" type="line" smooth="yes"/>
      <point x="189" y="252"/>
      <point x="186" y="248"/>
      <point x="182" y="248" type="curve" smooth="yes"/>
      <point x="178" y="248"/>
      <point x="174" y="252"/>
    </contour>
  </outline>
</glyph>
<glyph name="f" format="1">
  <advance width="232"/>
  <unicode hex="0066"/>
  <outline>
    <contour>
      <point x="114" y="-160" type="curve" smooth="yes"/>
      <point x="142" y="-132" type="line" smooth="yes"/>
      <point x="158" y="-116"/>
      <point x="174" y="-109"/>
      <point x="174" y="-96" type="curve" smooth="yes"/>
      <point x="174" y="442" type="line" smooth="yes"/>
      <point x="174" y="448"/>
      <point x="176" y="450"/>
      <point x="182" y="450" type="curve" smooth="yes"/>
      <point x="192" y="450" type="line" smooth="yes"/>
      <point x="203" y="450"/>
      <point x="213" y="448"/>
      <point x="226" y="448" type="curve" smooth="yes"/>
      <point x="241" y="448"/>
      <point x="253" y="471"/>
      <point x="262" y="480" type="curve" smooth="yes"/>
      <point x="290" y="508" type="line" smooth="yes"/>
      <point x="301" y="519"/>
      <point x="322" y="531"/>
      <point x="322" y="544" type="curve" smooth="yes"/>
      <point x="322" y="552"/>
      <point x="315" y="560"/>
      <point x="306" y="560" type="curve" smooth="yes"/>
      <point x="297" y="560"/>
      <point x="287" y="558"/>
      <point x="276" y="558" type="curve" smooth="yes"/>
      <point x="182" y="558" type="line" smooth="yes"/>
      <point x="176" y="558"/>
      <point x="174" y="560"/>
      <point x="174" y="566" type="curve" smooth="yes"/>
      <point x="174" y="606" type="line" smooth="yes"/>
      <point x="174" y="610"/>
      <point x="178" y="614"/>
      <point x="182" y="614" type="curve" smooth="yes"/>
      <point x="186" y="614"/>
      <point x="190" y="612"/>
      <point x="198" y="608" type="curve" smooth="yes"/>
      <point x="230" y="592" type="line"/>
      <point x="242" y="587"/>
      <point x="251" y="576"/>
      <point x="260" y="576" type="curve" smooth="yes"/>
      <point x="272" y="576"/>
      <point x="280" y="592"/>
      <point x="296" y="608" type="curve" smooth="yes"/>
      <point x="324" y="636" type="line" smooth="yes"/>
      <point x="340" y="652"/>
      <point x="356" y="659"/>
      <point x="356" y="672" type="curve" smooth="yes"/>
      <point x="356" y="689"/>
      <point x="328" y="693"/>
      <point x="304" y="705" type="curve" smooth="yes"/>
      <point x="242" y="736" type="line" smooth="yes"/>
      <point x="196" y="759"/>
      <point x="193" y="768"/>
      <point x="180" y="768" type="curve" smooth="yes"/>
      <point x="167" y="768"/>
      <point x="160" y="752"/>
      <point x="144" y="736" type="curve" smooth="yes"/>
      <point x="76" y="668" type="line" smooth="yes"/>
      <point x="60" y="652"/>
      <point x="44" y="645"/>
      <point x="44" y="632" type="curve" smooth="yes"/>
      <point x="44" y="619"/>
      <point x="58" y="613"/>
      <point x="58" y="592" type="curve" smooth="yes"/>
      <point x="58" y="536" type="line" smooth="yes"/>
      <point x="58" y="528"/>
      <point x="56" y="526"/>
      <point x="50" y="520" type="curve" smooth="yes"/>
      <point x="30" y="500" type="line" smooth="yes"/>
      <point x="19" y="489"/>
      <point x="-2" y="477"/>
      <point x="-2" y="464" type="curve" smooth="yes"/>
      <point x="-2" y="456"/>
      <point x="5" y="448"/>
      <point x="14" y="448" type="curve" smooth="yes"/>
      <point x="23" y="448"/>
      <point x="33" y="450"/>
      <point x="44" y="450" type="curve" smooth="yes"/>
      <point x="50" y="450" type="line" smooth="yes"/>
      <point x="56" y="450"/>
      <point x="58" y="448"/>
      <point x="58" y="442" type="curve" smooth="yes"/>
      <point x="58" y="-172" type="line" smooth="yes"/>
      <point x="58" y="-183"/>
      <point x="65" y="-192"/>
      <point x="78" y="-192" type="curve" smooth="yes"/>
      <point x="91" y="-192"/>
      <point x="98" y="-176"/>
    </contour>
  </outline>
</glyph>
<glyph name="g" format="1">
  <advance width="464"/>
  <unicode hex="0067"/>
  <outline>
    <contour>
      <point x="191" y="165" type="line" smooth="yes"/>
      <point x="182" y="169"/>
      <point x="175" y="175"/>
      <point x="175" y="184" type="curve" smooth="yes"/>
      <point x="175" y="376" type="line" smooth="yes"/>
      <point x="175" y="385"/>
      <point x="182" y="391"/>
      <point x="191" y="395" type="curve" smooth="yes"/>
      <point x="249" y="424" type="line" smooth="yes"/>
      <point x="260" y="429"/>
      <point x="267" y="432"/>
      <point x="275" y="432" type="curve" smooth="yes"/>
      <point x="283" y="432"/>
      <point x="291" y="427"/>
      <point x="291" y="416" type="curve" smooth="yes"/>
      <point x="291" y="144" type="line" smooth="yes"/>
      <point x="291" y="133"/>
      <point x="283" y="128"/>
      <point x="275" y="128" type="curve" smooth="yes"/>
      <point x="267" y="128"/>
      <point x="260" y="131"/>
      <point x="249" y="136" type="curve" smooth="yes"/>
    </contour>
    <contour>
      <point x="256" y="-160" type="curve" smooth="yes"/>
      <point x="376" y="-40" type="line" smooth="yes"/>
      <point x="392" y="-24"/>
      <point x="408" y="-17"/>
      <point x="408" y="-4" type="curve" smooth="yes"/>
      <point x="408" y="9"/>
      <point x="406" y="11"/>
      <point x="406" y="32" type="curve" smooth="yes"/>
      <point x="406" y="400" type="line" smooth="yes"/>
      <point x="406" y="411"/>
      <point x="409" y="417"/>
      <point x="414" y="422" type="curve" smooth="yes"/>
      <point x="420" y="428" type="line" smooth="yes"/>
      <point x="436" y="444"/>
      <point x="452" y="451"/>
      <point x="452" y="464" type="curve" smooth="yes"/>
      <point x="452" y="477"/>
      <point x="436" y="484"/>
      <point x="420" y="500" type="curve" smooth="yes"/>
      <point x="392" y="528" type="line" smooth="yes"/>
      <point x="376" y="544"/>
      <point x="369" y="560"/>
      <point x="356" y="560" type="curve" smooth="yes"/>
      <point x="343" y="560"/>
      <point x="336" y="544"/>
      <point x="320" y="528" type="curve" smooth="yes"/>
      <point x="304" y="512" type="line" smooth="yes"/>
      <point x="299" y="507"/>
      <point x="295" y="504"/>
      <point x="288" y="504" type="curve" smooth="yes"/>
      <point x="281" y="504"/>
      <point x="277" y="507"/>
      <point x="272" y="512" type="curve" smooth="yes"/>
      <point x="256" y="528" type="line" smooth="yes"/>
      <point x="240" y="544"/>
      <point x="233" y="560"/>
      <point x="220" y="560" type="curve" smooth="yes"/>
      <point x="209" y="560"/>
      <point x="203" y="549"/>
      <point x="160" y="528" type="curve" smooth="yes"/>
      <point x="96" y="496" type="line" smooth="yes"/>
      <point x="75" y="485"/>
      <point x="44" y="481"/>
      <point x="44" y="464" type="curve" smooth="yes"/>
      <point x="44" y="453"/>
      <point x="58" y="440"/>
      <point x="58" y="424" type="curve" smooth="yes"/>
      <point x="58" y="136" type="line" smooth="yes"/>
      <point x="58" y="120"/>
      <point x="44" y="107"/>
      <point x="44" y="96" type="curve" smooth="yes"/>
      <point x="44" y="79"/>
      <point x="75" y="75"/>
      <point x="96" y="64" type="curve" smooth="yes"/>
      <point x="160" y="32" type="line" smooth="yes"/>
      <point x="203" y="11"/>
      <point x="209" y="0"/>
      <point x="220" y="0" type="curve" smooth="yes"/>
      <point x="233" y="0"/>
      <point x="240" y="16"/>
      <point x="256" y="32" type="curve" smooth="yes"/>
      <point x="272" y="48" type="line" smooth="yes"/>
      <point x="276" y="52"/>
      <point x="278" y="55"/>
      <point x="282" y="55" type="curve" smooth="yes"/>
      <point x="286" y="55"/>
      <point x="290" y="53"/>
      <point x="290" y="46" type="curve" smooth="yes"/>
      <point x="290" y="-62" type="line" smooth="yes"/>
      <point x="290" y="-67"/>
      <point x="288" y="-71"/>
      <point x="283" y="-71" type="curve" smooth="yes"/>
      <point x="279" y="-71"/>
      <point x="274" y="-68"/>
      <point x="266" y="-64" type="curve" smooth="yes"/>
      <point x="170" y="-16" type="line" smooth="yes"/>
      <point x="159" y="-11"/>
      <point x="149" y="0"/>
      <point x="140" y="0" type="curve" smooth="yes"/>
      <point x="128" y="0"/>
      <point x="120" y="-16"/>
      <point x="104" y="-32" type="curve" smooth="yes"/>
      <point x="76" y="-60" type="line" smooth="yes"/>
      <point x="60" y="-76"/>
      <point x="44" y="-83"/>
      <point x="44" y="-96" type="curve" smooth="yes"/>
      <point x="44" y="-113"/>
      <point x="72" y="-117"/>
      <point x="96" y="-129" type="curve" smooth="yes"/>
      <point x="158" y="-160" type="line" smooth="yes"/>
      <point x="204" y="-183"/>
      <point x="207" y="-192"/>
      <point x="220" y="-192" type="curve" smooth="yes"/>
      <point x="233" y="-192"/>
      <point x="240" y="-176"/>
    </contour>
  </outline>
</glyph>
<glyph name="h" format="1">
  <advance width="464"/>
  <unicode hex="0068"/>
  <outline>
    <contour>
      <point x="254" y="-132" type="curve" smooth="yes"/>
      <point x="242" y="-144" type="line" smooth="yes"/>
      <point x="231" y="-155"/>
      <point x="210" y="-163"/>
      <point x="210" y="-176" type="curve" smooth="yes"/>
      <point x="210" y="-184"/>
      <point x="217" y="-192"/>
      <point x="226" y="-192" type="curve" smooth="yes"/>
      <point x="237" y="-192"/>
      <point x="247" y="-185"/>
      <point x="258" y="-180" type="curve" smooth="yes"/>
      <point x="312" y="-153"/>
      <point x="406" y="-79"/>
      <point x="406" y="44" type="curve" smooth="yes"/>
      <point x="406" y="424" type="line" smooth="yes"/>
      <point x="406" y="440"/>
      <point x="420" y="453"/>
      <point x="420" y="464" type="curve" smooth="yes"/>
      <point x="420" y="481"/>
      <point x="389" y="485"/>
      <point x="368" y="496" type="curve" smooth="yes"/>
      <point x="304" y="528" type="line" smooth="yes"/>
      <point x="261" y="549"/>
      <point x="255" y="560"/>
      <point x="244" y="560" type="curve" smooth="yes"/>
      <point x="231" y="560"/>
      <point x="224" y="544"/>
      <point x="208" y="528" type="curve" smooth="yes"/>
      <point x="192" y="512" type="line" smooth="yes"/>
      <point x="188" y="508"/>
      <point x="186" y="505"/>
      <point x="182" y="505" type="curve" smooth="yes"/>
      <point x="178" y="505"/>
      <point x="174" y="507"/>
      <point x="174" y="514" type="curve" smooth="yes"/>
      <point x="174" y="640" type="line" smooth="yes"/>
      <point x="174" y="683"/>
      <point x="204" y="731"/>
      <point x="204" y="752" type="curve" smooth="yes"/>
      <point x="204" y="761"/>
      <point x="197" y="768"/>
      <point x="188" y="768" type="curve" smooth="yes"/>
      <point x="167" y="768"/>
      <point x="121" y="712"/>
      <point x="108" y="712" type="curve" smooth="yes"/>
      <point x="95" y="712"/>
      <point x="55" y="728"/>
      <point x="44" y="728" type="curve" smooth="yes"/>
      <point x="33" y="728"/>
      <point x="28" y="719"/>
      <point x="28" y="712" type="curve" smooth="yes"/>
      <point x="28" y="691"/>
      <point x="58" y="655"/>
      <point x="58" y="612" type="curve" smooth="yes"/>
      <point x="58" y="144" type="line" smooth="yes"/>
      <point x="58" y="133"/>
      <point x="53" y="126"/>
      <point x="48" y="121" type="curve" smooth="yes"/>
      <point x="43" y="116"/>
      <point x="28" y="109"/>
      <point x="28" y="96" type="curve" smooth="yes"/>
      <point x="28" y="83"/>
      <point x="44" y="76"/>
      <point x="60" y="60" type="curve" smooth="yes"/>
      <point x="88" y="32" type="line" smooth="yes"/>
      <point x="104" y="16"/>
      <point x="111" y="0"/>
      <point x="124" y="0" type="curve" smooth="yes"/>
      <point x="137" y="0"/>
      <point x="144" y="16"/>
      <point x="160" y="32" type="curve" smooth="yes"/>
      <point x="188" y="60" type="line" smooth="yes"/>
      <point x="204" y="76"/>
      <point x="220" y="83"/>
      <point x="220" y="96" type="curve" smooth="yes"/>
      <point x="220" y="109"/>
      <point x="204" y="116"/>
      <point x="188" y="132" type="curve" smooth="yes"/>
      <point x="182" y="138" type="line" smooth="yes"/>
      <point x="177" y="143"/>
      <point x="174" y="149"/>
      <point x="174" y="160" type="curve" smooth="yes"/>
      <point x="174" y="416" type="line" smooth="yes"/>
      <point x="174" y="427"/>
      <point x="182" y="432"/>
      <point x="190" y="432" type="curve" smooth="yes"/>
      <point x="198" y="432"/>
      <point x="205" y="429"/>
      <point x="216" y="424" type="curve" smooth="yes"/>
      <point x="274" y="395" type="line" smooth="yes"/>
      <point x="283" y="391"/>
      <point x="290" y="385"/>
      <point x="290" y="376" type="curve" smooth="yes"/>
      <point x="290" y="32" type="line" smooth="yes"/>
      <point x="290" y="-107"/>
      <point x="281" y="-105"/>
    </contour>
  </outline>
</glyph>
<glyph name="i" format="1">
  <advance width="232"/>
  <unicode hex="0069"/>
  <outline>
    <contour>
      <point x="36" y="644" type="curve" smooth="yes"/>
      <point x="80" y="600" type="line" smooth="yes"/>
      <point x="91" y="589"/>
      <point x="95" y="576"/>
      <point x="108" y="576" type="curve" smooth="yes"/>
      <point x="121" y="576"/>
      <point x="125" y="589"/>
      <point x="136" y="600" type="curve" smooth="yes"/>
      <point x="180" y="644" type="line" smooth="yes"/>
      <point x="191" y="655"/>
      <point x="204" y="659"/>
      <point x="204" y="672" type="curve" smooth="yes"/>
      <point x="204" y="685"/>
      <point x="191" y="689"/>
      <point x="180" y="700" type="curve" smooth="yes"/>
      <point x="136" y="744" type="line" smooth="yes"/>
      <point x="125" y="755"/>
      <point x="121" y="768"/>
      <point x="108" y="768" type="curve" smooth="yes"/>
      <point x="95" y="768"/>
      <point x="91" y="755"/>
      <point x="80" y="744" type="curve" smooth="yes"/>
      <point x="36" y="700" type="line" smooth="yes"/>
      <point x="25" y="689"/>
      <point x="12" y="685"/>
      <point x="12" y="672" type="curve" smooth="yes"/>
      <point x="12" y="659"/>
      <point x="25" y="655"/>
    </contour>
    <contour>
      <point x="58" y="144" type="line" smooth="yes"/>
      <point x="58" y="133"/>
      <point x="57" y="129"/>
      <point x="52" y="124" type="curve" smooth="yes"/>
      <point x="41" y="113"/>
      <point x="28" y="109"/>
      <point x="28" y="96" type="curve" smooth="yes"/>
      <point x="28" y="83"/>
      <point x="41" y="79"/>
      <point x="52" y="68" type="curve" smooth="yes"/>
      <point x="96" y="24" type="line" smooth="yes"/>
      <point x="107" y="13"/>
      <point x="111" y="0"/>
      <point x="124" y="0" type="curve" smooth="yes"/>
      <point x="137" y="0"/>
      <point x="141" y="13"/>
      <point x="152" y="24" type="curve" smooth="yes"/>
      <point x="196" y="68" type="line" smooth="yes"/>
      <point x="207" y="79"/>
      <point x="220" y="83"/>
      <point x="220" y="96" type="curve" smooth="yes"/>
      <point x="220" y="109"/>
      <point x="207" y="113"/>
      <point x="196" y="124" type="curve" smooth="yes"/>
      <point x="184" y="136"/>
      <point x="174" y="149"/>
      <point x="174" y="173" type="curve" smooth="yes"/>
      <point x="174" y="416" type="line" smooth="yes"/>
      <point x="174" y="427"/>
      <point x="175" y="431"/>
      <point x="180" y="436" type="curve" smooth="yes"/>
      <point x="191" y="447"/>
      <point x="204" y="451"/>
      <point x="204" y="464" type="curve" smooth="yes"/>
      <point x="204" y="477"/>
      <point x="191" y="481"/>
      <point x="180" y="492" type="curve" smooth="yes"/>
      <point x="136" y="536" type="line" smooth="yes"/>
      <point x="125" y="547"/>
      <point x="121" y="560"/>
      <point x="108" y="560" type="curve" smooth="yes"/>
      <point x="95" y="560"/>
      <point x="91" y="547"/>
      <point x="80" y="536" type="curve" smooth="yes"/>
      <point x="36" y="492" type="line" smooth="yes"/>
      <point x="25" y="481"/>
      <point x="12" y="477"/>
      <point x="12" y="464" type="curve" smooth="yes"/>
      <point x="12" y="451"/>
      <point x="25" y="447"/>
      <point x="36" y="436" type="curve" smooth="yes"/>
      <point x="48" y="424"/>
      <point x="58" y="412"/>
      <point x="58" y="388" type="curve" smooth="yes"/>
    </contour>
  </outline>
</glyph>
<glyph name="j" format="1">
  <advance width="232"/>
  <unicode hex="006A"/>
  <outline>
    <contour>
      <point x="12" y="672" type="curve" smooth="yes"/>
      <point x="12" y="659"/>
      <point x="28" y="652"/>
      <point x="44" y="636" type="curve" smooth="yes"/>
      <point x="72" y="608" type="line" smooth="yes"/>
      <point x="88" y="592"/>
      <point x="95" y="576"/>
      <point x="108" y="576" type="curve" smooth="yes"/>
      <point x="121" y="576"/>
      <point x="128" y="592"/>
      <point x="144" y="608" type="curve" smooth="yes"/>
      <point x="172" y="636" type="line" smooth="yes"/>
      <point x="188" y="652"/>
      <point x="204" y="659"/>
      <point x="204" y="672" type="curve" smooth="yes"/>
      <point x="204" y="685"/>
      <point x="188" y="692"/>
      <point x="172" y="708" type="curve" smooth="yes"/>
      <point x="144" y="736" type="line" smooth="yes"/>
      <point x="128" y="752"/>
      <point x="121" y="768"/>
      <point x="108" y="768" type="curve" smooth="yes"/>
      <point x="95" y="768"/>
      <point x="88" y="752"/>
      <point x="72" y="736" type="curve" smooth="yes"/>
      <point x="44" y="708" type="line" smooth="yes"/>
      <point x="28" y="692"/>
      <point x="12" y="685"/>
    </contour>
    <contour>
      <point x="22" y="-132" type="curve" smooth="yes"/>
      <point x="10" y="-144" type="line" smooth="yes"/>
      <point x="-1" y="-155"/>
      <point x="-22" y="-163"/>
      <point x="-22" y="-176" type="curve" smooth="yes"/>
      <point x="-22" y="-184"/>
      <point x="-15" y="-192"/>
      <point x="-6" y="-192" type="curve" smooth="yes"/>
      <point x="5" y="-192"/>
      <point x="15" y="-185"/>
      <point x="26" y="-180" type="curve" smooth="yes"/>
      <point x="80" y="-153"/>
      <point x="174" y="-79"/>
      <point x="174" y="44" type="curve" smooth="yes"/>
      <point x="174" y="416" type="line" smooth="yes"/>
      <point x="174" y="427"/>
      <point x="179" y="434"/>
      <point x="184" y="439" type="curve" smooth="yes"/>
      <point x="189" y="444"/>
      <point x="204" y="451"/>
      <point x="204" y="464" type="curve" smooth="yes"/>
      <point x="204" y="477"/>
      <point x="188" y="484"/>
      <point x="172" y="500" type="curve" smooth="yes"/>
      <point x="144" y="528" type="line" smooth="yes"/>
      <point x="128" y="544"/>
      <point x="121" y="560"/>
      <point x="108" y="560" type="curve" smooth="yes"/>
      <point x="95" y="560"/>
      <point x="88" y="544"/>
      <point x="72" y="528" type="curve" smooth="yes"/>
      <point x="44" y="500" type="line" smooth="yes"/>
      <point x="28" y="484"/>
      <point x="12" y="477"/>
      <point x="12" y="464" type="curve" smooth="yes"/>
      <point x="12" y="451"/>
      <point x="28" y="444"/>
      <point x="44" y="428" type="curve" smooth="yes"/>
      <point x="50" y="422" type="line" smooth="yes"/>
      <point x="55" y="417"/>
      <point x="58" y="411"/>
      <point x="58" y="400" type="curve" smooth="yes"/>
      <point x="58" y="32" type="line" smooth="yes"/>
      <point x="58" y="-107"/>
      <point x="49" y="-105"/>
    </contour>
  </outline>
</glyph>
<glyph name="k" format="1">
  <advance width="464"/>
  <unicode hex="006B"/>
  <outline>
    <contour>
      <point x="356" y="0" type="curve" smooth="yes"/>
      <point x="369" y="0"/>
      <point x="376" y="16"/>
      <point x="392" y="32" type="curve" smooth="yes"/>
      <point x="420" y="60" type="line" smooth="yes"/>
      <point x="436" y="76"/>
      <point x="452" y="83"/>
      <point x="452" y="96" type="curve" smooth="yes"/>
      <point x="452" y="109"/>
      <point x="436" y="116"/>
      <point x="420" y="132" type="curve" smooth="yes"/>
      <point x="414" y="138" type="line" smooth="yes"/>
      <point x="409" y="143"/>
      <point x="406" y="149"/>
      <point x="406" y="160" type="curve" smooth="yes"/>
      <point x="406" y="240" type="line" smooth="yes"/>
      <point x="406" y="251"/>
      <point x="411" y="258"/>
      <point x="416" y="263" type="curve" smooth="yes"/>
      <point x="421" y="268"/>
      <point x="436" y="275"/>
      <point x="436" y="288" type="curve" smooth="yes"/>
      <point x="436" y="301"/>
      <point x="420" y="308"/>
      <point x="404" y="324" type="curve" smooth="yes"/>
      <point x="376" y="352" type="line" smooth="yes"/>
      <point x="369" y="359"/>
      <point x="364" y="366"/>
      <point x="359" y="372" type="curve"/>
      <point x="364" y="378"/>
      <point x="369" y="385"/>
      <point x="376" y="392" type="curve" smooth="yes"/>
      <point x="404" y="420" type="line" smooth="yes"/>
      <point x="420" y="436"/>
      <point x="436" y="444"/>
      <point x="436" y="456" type="curve" smooth="yes"/>
      <point x="436" y="473"/>
      <point x="405" y="477"/>
      <point x="384" y="488" type="curve" smooth="yes"/>
      <point x="304" y="528" type="line" smooth="yes"/>
      <point x="261" y="549"/>
      <point x="255" y="560"/>
      <point x="244" y="560" type="curve" smooth="yes"/>
      <point x="231" y="560"/>
      <point x="224" y="544"/>
      <point x="208" y="528" type="curve" smooth="yes"/>
      <point x="192" y="512" type="line" smooth="yes"/>
      <point x="188" y="508"/>
      <point x="186" y="505"/>
      <point x="182" y="505" type="curve" smooth="yes"/>
      <point x="178" y="505"/>
      <point x="174" y="507"/>
      <point x="174" y="514" type="curve" smooth="yes"/>
      <point x="174" y="640" type="line" smooth="yes"/>
      <point x="174" y="683"/>
      <point x="204" y="731"/>
      <point x="204" y="752" type="curve" smooth="yes"/>
      <point x="204" y="761"/>
      <point x="197" y="768"/>
      <point x="188" y="768" type="curve" smooth="yes"/>
      <point x="167" y="768"/>
      <point x="121" y="712"/>
      <point x="108" y="712" type="curve" smooth="yes"/>
      <point x="95" y="712"/>
      <point x="55" y="728"/>
      <point x="44" y="728" type="curve" smooth="yes"/>
      <point x="33" y="728"/>
      <point x="28" y="719"/>
      <point x="28" y="712" type="curve" smooth="yes"/>
      <point x="28" y="691"/>
      <point x="58" y="655"/>
      <point x="58" y="612" type="curve" smooth="yes"/>
      <point x="58" y="144" type="line" smooth="yes"/>
      <point x="58" y="133"/>
      <point x="53" y="126"/>
      <point x="48" y="121" type="curve" smooth="yes"/>
      <point x="43" y="116"/>
      <point x="28" y="109"/>
      <point x="28" y="96" type="curve" smooth="yes"/>
      <point x="28" y="83"/>
      <point x="44" y="76"/>
      <point x="60" y="60" type="curve" smooth="yes"/>
      <point x="88" y="32" type="line" smooth="yes"/>
      <point x="104" y="16"/>
      <point x="111" y="0"/>
      <point x="124" y="0" type="curve" smooth="yes"/>
      <point x="137" y="0"/>
      <point x="144" y="16"/>
      <point x="160" y="32" type="curve" smooth="yes"/>
      <point x="188" y="60" type="line" smooth="yes"/>
      <point x="204" y="76"/>
      <point x="220" y="83"/>
      <point x="220" y="96" type="curve" smooth="yes"/>
      <point x="220" y="109"/>
      <point x="204" y="116"/>
      <point x="188" y="132" type="curve" smooth="yes"/>
      <point x="182" y="138" type="line" smooth="yes"/>
      <point x="177" y="143"/>
      <point x="174" y="149"/>
      <point x="174" y="160" type="curve" smooth="yes"/>
      <point x="174" y="416" type="line" smooth="yes"/>
      <point x="174" y="427"/>
      <point x="182" y="432"/>
      <point x="190" y="432" type="curve" smooth="yes"/>
      <point x="198" y="432"/>
      <point x="205" y="429"/>
      <point x="216" y="424" type="curve" smooth="yes"/>
      <point x="280" y="392" type="line" smooth="yes"/>
      <point x="299" y="382"/>
      <point x="311" y="375"/>
      <point x="319" y="369" type="curve"/>
      <point x="315" y="364"/>
      <point x="310" y="358"/>
      <point x="304" y="352" type="curve" smooth="yes"/>
      <point x="276" y="324" type="line" smooth="yes"/>
      <point x="260" y="308"/>
      <point x="244" y="301"/>
      <point x="244" y="288" type="curve" smooth="yes"/>
      <point x="244" y="275"/>
      <point x="260" y="268"/>
      <point x="276" y="252" type="curve" smooth="yes"/>
      <point x="282" y="246" type="line" smooth="yes"/>
      <point x="287" y="241"/>
      <point x="290" y="235"/>
      <point x="290" y="224" type="curve" smooth="yes"/>
      <point x="290" y="144" type="line" smooth="yes"/>
      <point x="290" y="133"/>
      <point x="285" y="126"/>
      <point x="280" y="121" type="curve" smooth="yes"/>
      <point x="275" y="116"/>
      <point x="260" y="109"/>
      <point x="260" y="96" type="curve" smooth="yes"/>
      <point x="260" y="83"/>
      <point x="276" y="76"/>
      <point x="292" y="60" type="curve" smooth="yes"/>
      <point x="320" y="32" type="line" smooth="yes"/>
      <point x="336" y="16"/>
      <point x="343" y="0"/>
    </contour>
  </outline>
</glyph>
<glyph name="l" format="1">
  <advance width="232"/>
  <unicode hex="006C"/>
  <outline>
    <contour>
      <point x="188" y="60" type="line" smooth="yes"/>
      <point x="204" y="76"/>
      <point x="220" y="83"/>
      <point x="220" y="96" type="curve" smooth="yes"/>
      <point x="220" y="109"/>
      <point x="204" y="116"/>
      <point x="188" y="132" type="curve" smooth="yes"/>
      <point x="182" y="138" type="line" smooth="yes"/>
      <point x="177" y="143"/>
      <point x="174" y="149"/>
      <point x="174" y="160" type="curve" smooth="yes"/>
      <point x="174" y="640" type="line" smooth="yes"/>
      <point x="174" y="683"/>
      <point x="204" y="731"/>
      <point x="204" y="752" type="curve" smooth="yes"/>
      <point x="204" y="761"/>
      <point x="197" y="768"/>
      <point x="188" y="768" type="curve" smooth="yes"/>
      <point x="167" y="768"/>
      <point x="121" y="712"/>
      <point x="108" y="712" type="curve" smooth="yes"/>
      <point x="95" y="712"/>
      <point x="55" y="728"/>
      <point x="44" y="728" type="curve" smooth="yes"/>
      <point x="33" y="728"/>
      <point x="28" y="719"/>
      <point x="28" y="712" type="curve" smooth="yes"/>
      <point x="28" y="691"/>
      <point x="58" y="655"/>
      <point x="58" y="612" type="curve" smooth="yes"/>
      <point x="58" y="144" type="line" smooth="yes"/>
      <point x="58" y="133"/>
      <point x="53" y="126"/>
      <point x="48" y="121" type="curve" smooth="yes"/>
      <point x="43" y="116"/>
      <point x="28" y="109"/>
      <point x="28" y="96" type="curve" smooth="yes"/>
      <point x="28" y="83"/>
      <point x="44" y="76"/>
      <point x="60" y="60" type="curve" smooth="yes"/>
      <point x="88" y="32" type="line" smooth="yes"/>
      <point x="104" y="16"/>
      <point x="111" y="0"/>
      <point x="124" y="0" type="curve" smooth="yes"/>
      <point x="137" y="0"/>
      <point x="144" y="16"/>
      <point x="160" y="32" type="curve" smooth="yes"/>
    </contour>
  </outline>
</glyph>
<glyph name="m" format="1">
  <advance width="696"/>
  <unicode hex="006D"/>
  <outline>
    <contour>
      <point x="624" y="32" type="curve" smooth="yes"/>
      <point x="652" y="60" type="line" smooth="yes"/>
      <point x="668" y="76"/>
      <point x="684" y="83"/>
      <point x="684" y="96" type="curve" smooth="yes"/>
      <point x="684" y="109"/>
      <point x="668" y="116"/>
      <point x="652" y="132" type="curve" smooth="yes"/>
      <point x="646" y="138" type="line" smooth="yes"/>
      <point x="641" y="143"/>
      <point x="638" y="149"/>
      <point x="638" y="160" type="curve" smooth="yes"/>
      <point x="638" y="424" type="line" smooth="yes"/>
      <point x="638" y="440"/>
      <point x="652" y="453"/>
      <point x="652" y="464" type="curve" smooth="yes"/>
      <point x="652" y="481"/>
      <point x="621" y="485"/>
      <point x="600" y="496" type="curve" smooth="yes"/>
      <point x="536" y="528" type="line" smooth="yes"/>
      <point x="493" y="549"/>
      <point x="487" y="560"/>
      <point x="476" y="560" type="curve" smooth="yes"/>
      <point x="463" y="560"/>
      <point x="456" y="544"/>
      <point x="440" y="528" type="curve" smooth="yes"/>
      <point x="406" y="494" type="line" smooth="yes"/>
      <point x="401" y="489"/>
      <point x="397" y="487"/>
      <point x="392" y="486" type="curve"/>
      <point x="384" y="490"/>
      <point x="376" y="492"/>
      <point x="368" y="496" type="curve" smooth="yes"/>
      <point x="304" y="528" type="line" smooth="yes"/>
      <point x="261" y="549"/>
      <point x="255" y="560"/>
      <point x="244" y="560" type="curve" smooth="yes"/>
      <point x="231" y="560"/>
      <point x="224" y="544"/>
      <point x="208" y="528" type="curve" smooth="yes"/>
      <point x="192" y="512" type="line" smooth="yes"/>
      <point x="187" y="507"/>
      <point x="183" y="504"/>
      <point x="176" y="504" type="curve" smooth="yes"/>
      <point x="169" y="504"/>
      <point x="165" y="507"/>
      <point x="160" y="512" type="curve" smooth="yes"/>
      <point x="144" y="528" type="line" smooth="yes"/>
      <point x="128" y="544"/>
      <point x="121" y="560"/>
      <point x="108" y="560" type="curve" smooth="yes"/>
      <point x="95" y="560"/>
      <point x="88" y="544"/>
      <point x="72" y="528" type="curve" smooth="yes"/>
      <point x="44" y="500" type="line" smooth="yes"/>
      <point x="28" y="484"/>
      <point x="12" y="477"/>
      <point x="12" y="464" type="curve" smooth="yes"/>
      <point x="12" y="451"/>
      <point x="28" y="444"/>
      <point x="44" y="428" type="curve" smooth="yes"/>
      <point x="50" y="422" type="line" smooth="yes"/>
      <point x="55" y="417"/>
      <point x="58" y="411"/>
      <point x="58" y="400" type="curve" smooth="yes"/>
      <point x="58" y="144" type="line" smooth="yes"/>
      <point x="58" y="133"/>
      <point x="53" y="126"/>
      <point x="48" y="121" type="curve" smooth="yes"/>
      <point x="43" y="116"/>
      <point x="28" y="109"/>
      <point x="28" y="96" type="curve" smooth="yes"/>
      <point x="28" y="83"/>
      <point x="44" y="76"/>
      <point x="60" y="60" type="curve" smooth="yes"/>
      <point x="88" y="32" type="line" smooth="yes"/>
      <point x="104" y="16"/>
      <point x="111" y="0"/>
      <point x="124" y="0" type="curve" smooth="yes"/>
      <point x="137" y="0"/>
      <point x="144" y="16"/>
      <point x="160" y="32" type="curve" smooth="yes"/>
      <point x="188" y="60" type="line" smooth="yes"/>
      <point x="204" y="76"/>
      <point x="220" y="83"/>
      <point x="220" y="96" type="curve" smooth="yes"/>
      <point x="220" y="109"/>
      <point x="204" y="116"/>
      <point x="188" y="132" type="curve" smooth="yes"/>
      <point x="182" y="138" type="line" smooth="yes"/>
      <point x="177" y="143"/>
      <point x="174" y="149"/>
      <point x="174" y="160" type="curve" smooth="yes"/>
      <point x="174" y="416" type="line" smooth="yes"/>
      <point x="174" y="427"/>
      <point x="182" y="432"/>
      <point x="190" y="432" type="curve" smooth="yes"/>
      <point x="198" y="432"/>
      <point x="205" y="429"/>
      <point x="216" y="424" type="curve" smooth="yes"/>
      <point x="274" y="395" type="line" smooth="yes"/>
      <point x="283" y="391"/>
      <point x="290" y="385"/>
      <point x="290" y="376" type="curve" smooth="yes"/>
      <point x="290" y="144" type="line" smooth="yes"/>
      <point x="290" y="133"/>
      <point x="285" y="126"/>
      <point x="280" y="121" type="curve" smooth="yes"/>
      <point x="275" y="116"/>
      <point x="260" y="109"/>
      <point x="260" y="96" type="curve" smooth="yes"/>
      <point x="260" y="83"/>
      <point x="276" y="76"/>
      <point x="292" y="60" type="curve" smooth="yes"/>
      <point x="320" y="32" type="line" smooth="yes"/>
      <point x="336" y="16"/>
      <point x="343" y="0"/>
      <point x="356" y="0" type="curve" smooth="yes"/>
      <point x="369" y="0"/>
      <point x="376" y="16"/>
      <point x="392" y="32" type="curve" smooth="yes"/>
      <point x="420" y="60" type="line" smooth="yes"/>
      <point x="436" y="76"/>
      <point x="452" y="83"/>
      <point x="452" y="96" type="curve" smooth="yes"/>
      <point x="452" y="109"/>
      <point x="436" y="116"/>
      <point x="420" y="132" type="curve" smooth="yes"/>
      <point x="414" y="138" type="line" smooth="yes"/>
      <point x="409" y="143"/>
      <point x="406" y="149"/>
      <point x="406" y="160" type="curve" smooth="yes"/>
      <point x="406" y="416" type="line" smooth="yes"/>
      <point x="406" y="427"/>
      <point x="414" y="432"/>
      <point x="422" y="432" type="curve" smooth="yes"/>
      <point x="430" y="432"/>
      <point x="437" y="429"/>
      <point x="448" y="424" type="curve" smooth="yes"/>
      <point x="506" y="395" type="line" smooth="yes"/>
      <point x="515" y="391"/>
      <point x="522" y="385"/>
      <point x="522" y="376" type="curve" smooth="yes"/>
      <point x="522" y="144" type="line" smooth="yes"/>
      <point x="522" y="133"/>
      <point x="517" y="126"/>
      <point x="512" y="121" type="curve" smooth="yes"/>
      <point x="507" y="116"/>
      <point x="492" y="109"/>
      <point x="492" y="96" type="curve" smooth="yes"/>
      <point x="492" y="83"/>
      <point x="508" y="76"/>
      <point x="524" y="60" type="curve" smooth="yes"/>
      <point x="552" y="32" type="line" smooth="yes"/>
      <point x="568" y="16"/>
      <point x="575" y="0"/>
      <point x="588" y="0" type="curve" smooth="yes"/>
      <point x="601" y="0"/>
      <point x="608" y="16"/>
    </contour>
  </outline>
</glyph>
<glyph name="n" format="1">
  <advance width="464"/>
  <unicode hex="006E"/>
  <outline>
    <contour>
      <point x="392" y="32" type="curve" smooth="yes"/>
      <point x="420" y="60" type="line" smooth="yes"/>
      <point x="436" y="76"/>
      <point x="452" y="83"/>
      <point x="452" y="96" type="curve" smooth="yes"/>
      <point x="452" y="109"/>
      <point x="436" y="116"/>
      <point x="420" y="132" type="curve" smooth="yes"/>
      <point x="414" y="138" type="line" smooth="yes"/>
      <point x="409" y="143"/>
      <point x="406" y="149"/>
      <point x="406" y="160" type="curve" smooth="yes"/>
      <point x="406" y="424" type="line" smooth="yes"/>
      <point x="406" y="440"/>
      <point x="420" y="453"/>
      <point x="420" y="464" type="curve" smooth="yes"/>
      <point x="420" y="481"/>
      <point x="389" y="485"/>
      <point x="368" y="496" type="curve" smooth="yes"/>
      <point x="304" y="528" type="line" smooth="yes"/>
      <point x="261" y="549"/>
      <point x="255" y="560"/>
      <point x="244" y="560" type="curve" smooth="yes"/>
      <point x="231" y="560"/>
      <point x="224" y="544"/>
      <point x="208" y="528" type="curve" smooth="yes"/>
      <point x="192" y="512" type="line" smooth="yes"/>
      <point x="187" y="507"/>
      <point x="183" y="504"/>
      <point x="176" y="504" type="curve" smooth="yes"/>
      <point x="169" y="504"/>
      <point x="165" y="507"/>
      <point x="160" y="512" type="curve" smooth="yes"/>
      <point x="144" y="528" type="line" smooth="yes"/>
      <point x="128" y="544"/>
      <point x="121" y="560"/>
      <point x="108" y="560" type="curve" smooth="yes"/>
      <point x="95" y="560"/>
      <point x="88" y="544"/>
      <point x="72" y="528" type="curve" smooth="yes"/>
      <point x="44" y="500" type="line" smooth="yes"/>
      <point x="28" y="484"/>
      <point x="12" y="477"/>
      <point x="12" y="464" type="curve" smooth="yes"/>
      <point x="12" y="451"/>
      <point x="28" y="444"/>
      <point x="44" y="428" type="curve" smooth="yes"/>
      <point x="50" y="422" type="line" smooth="yes"/>
      <point x="55" y="417"/>
      <point x="58" y="411"/>
      <point x="58" y="400" type="curve" smooth="yes"/>
      <point x="58" y="144" type="line" smooth="yes"/>
      <point x="58" y="133"/>
      <point x="53" y="126"/>
      <point x="48" y="121" type="curve" smooth="yes"/>
      <point x="43" y="116"/>
      <point x="28" y="109"/>
      <point x="28" y="96" type="curve" smooth="yes"/>
      <point x="28" y="83"/>
      <point x="44" y="76"/>
      <point x="60" y="60" type="curve" smooth="yes"/>
      <point x="88" y="32" type="line" smooth="yes"/>
      <point x="104" y="16"/>
      <point x="111" y="0"/>
      <point x="124" y="0" type="curve" smooth="yes"/>
      <point x="137" y="0"/>
      <point x="144" y="16"/>
      <point x="160" y="32" type="curve" smooth="yes"/>
      <point x="188" y="60" type="line" smooth="yes"/>
      <point x="204" y="76"/>
      <point x="220" y="83"/>
      <point x="220" y="96" type="curve" smooth="yes"/>
      <point x="220" y="109"/>
      <point x="204" y="116"/>
      <point x="188" y="132" type="curve" smooth="yes"/>
      <point x="182" y="138" type="line" smooth="yes"/>
      <point x="177" y="143"/>
      <point x="174" y="149"/>
      <point x="174" y="160" type="curve" smooth="yes"/>
      <point x="174" y="416" type="line" smooth="yes"/>
      <point x="174" y="427"/>
      <point x="182" y="432"/>
      <point x="190" y="432" type="curve" smooth="yes"/>
      <point x="198" y="432"/>
      <point x="205" y="429"/>
      <point x="216" y="424" type="curve" smooth="yes"/>
      <point x="274" y="395" type="line" smooth="yes"/>
      <point x="283" y="391"/>
      <point x="290" y="385"/>
      <point x="290" y="376" type="curve" smooth="yes"/>
      <point x="290" y="144" type="line" smooth="yes"/>
      <point x="290" y="133"/>
      <point x="285" y="126"/>
      <point x="280" y="121" type="curve" smooth="yes"/>
      <point x="275" y="116"/>
      <point x="260" y="109"/>
      <point x="260" y="96" type="curve" smooth="yes"/>
      <point x="260" y="83"/>
      <point x="276" y="76"/>
      <point x="292" y="60" type="curve" smooth="yes"/>
      <point x="320" y="32" type="line" smooth="yes"/>
      <point x="336" y="16"/>
      <point x="343" y="0"/>
      <point x="356" y="0" type="curve" smooth="yes"/>
      <point x="369" y="0"/>
      <point x="376" y="16"/>
    </contour>
  </outline>
</glyph>
<glyph name="o" format="1">
  <advance width="448"/>
  <unicode hex="006F"/>
  <outline>
    <contour>
      <point x="50" y="136" type="line" smooth="yes"/>
      <point x="50" y="120"/>
      <point x="36" y="107"/>
      <point x="36" y="96" type="curve" smooth="yes"/>
      <point x="36" y="77"/>
      <point x="65" y="78"/>
      <point x="88" y="70" type="curve" smooth="yes"/>
      <point x="232" y="19" type="line" smooth="yes"/>
      <point x="253" y="11"/>
      <point x="263" y="0"/>
      <point x="276" y="0" type="curve" smooth="yes"/>
      <point x="289" y="0"/>
      <point x="296" y="16"/>
      <point x="312" y="32" type="curve" smooth="yes"/>
      <point x="380" y="100" type="line" smooth="yes"/>
      <point x="396" y="116"/>
      <point x="412" y="123"/>
      <point x="412" y="136" type="curve" smooth="yes"/>
      <point x="412" y="147"/>
      <point x="398" y="155"/>
      <point x="398" y="176" type="curve" smooth="yes"/>
      <point x="398" y="424" type="line" smooth="yes"/>
      <point x="398" y="440"/>
      <point x="412" y="453"/>
      <point x="412" y="464" type="curve" smooth="yes"/>
      <point x="412" y="483"/>
      <point x="383" y="482"/>
      <point x="360" y="490" type="curve" smooth="yes"/>
      <point x="216" y="541" type="line" smooth="yes"/>
      <point x="195" y="549"/>
      <point x="185" y="560"/>
      <point x="172" y="560" type="curve" smooth="yes"/>
      <point x="159" y="560"/>
      <point x="152" y="544"/>
      <point x="136" y="528" type="curve" smooth="yes"/>
      <point x="68" y="460" type="line" smooth="yes"/>
      <point x="52" y="444"/>
      <point x="36" y="437"/>
      <point x="36" y="424" type="curve" smooth="yes"/>
      <point x="36" y="413"/>
      <point x="50" y="405"/>
      <point x="50" y="384" type="curve" smooth="yes"/>
    </contour>
    <contour>
      <point x="166" y="406" type="line" smooth="yes"/>
      <point x="166" y="411"/>
      <point x="170" y="415"/>
      <point x="174" y="415" type="curve" smooth="yes"/>
      <point x="178" y="415"/>
      <point x="183" y="414"/>
      <point x="196" y="410" type="curve" smooth="yes"/>
      <point x="268" y="386" type="line" smooth="yes"/>
      <point x="279" y="382"/>
      <point x="282" y="381"/>
      <point x="282" y="372" type="curve" smooth="yes"/>
      <point x="282" y="154" type="line" smooth="yes"/>
      <point x="282" y="149"/>
      <point x="278" y="145"/>
      <point x="274" y="145" type="curve" smooth="yes"/>
      <point x="270" y="145"/>
      <point x="265" y="146"/>
      <point x="252" y="150" type="curve" smooth="yes"/>
      <point x="180" y="174" type="line" smooth="yes"/>
      <point x="169" y="178"/>
      <point x="166" y="179"/>
      <point x="166" y="188" type="curve" smooth="yes"/>
    </contour>
  </outline>
</glyph>
<glyph name="p" format="1">
  <advance width="464"/>
  <unicode hex="0070"/>
  <outline>
    <contour>
      <point x="282" y="145" type="curve" smooth="yes"/>
      <point x="278" y="145"/>
      <point x="273" y="146"/>
      <point x="260" y="150" type="curve" smooth="yes"/>
      <point x="188" y="174" type="line" smooth="yes"/>
      <point x="177" y="178"/>
      <point x="174" y="179"/>
      <point x="174" y="188" type="curve" smooth="yes"/>
      <point x="174" y="416" type="line" smooth="yes"/>
      <point x="174" y="427"/>
      <point x="182" y="432"/>
      <point x="190" y="432" type="curve" smooth="yes"/>
      <point x="198" y="432"/>
      <point x="205" y="429"/>
      <point x="216" y="424" type="curve" smooth="yes"/>
      <point x="274" y="395" type="line" smooth="yes"/>
      <point x="283" y="391"/>
      <point x="290" y="385"/>
      <point x="290" y="376" type="curve" smooth="yes"/>
      <point x="290" y="154" type="line" smooth="yes"/>
      <point x="290" y="149"/>
      <point x="286" y="145"/>
    </contour>
    <contour>
      <point x="104" y="-172" type="curve" smooth="yes"/>
      <point x="128" y="-160" type="line" smooth="yes"/>
      <point x="148" y="-149"/>
      <point x="176" y="-149"/>
      <point x="176" y="-132" type="curve" smooth="yes"/>
      <point x="176" y="-127"/>
      <point x="174" y="-105"/>
      <point x="174" y="-84" type="curve" smooth="yes"/>
      <point x="174" y="26" type="line" smooth="yes"/>
      <point x="174" y="35"/>
      <point x="180" y="40"/>
      <point x="192" y="36" type="curve" smooth="yes"/>
      <point x="240" y="19" type="line" smooth="yes"/>
      <point x="261" y="11"/>
      <point x="271" y="0"/>
      <point x="284" y="0" type="curve" smooth="yes"/>
      <point x="297" y="0"/>
      <point x="304" y="16"/>
      <point x="320" y="32" type="curve" smooth="yes"/>
      <point x="388" y="100" type="line" smooth="yes"/>
      <point x="404" y="116"/>
      <point x="420" y="123"/>
      <point x="420" y="136" type="curve" smooth="yes"/>
      <point x="420" y="147"/>
      <point x="406" y="155"/>
      <point x="406" y="176" type="curve" smooth="yes"/>
      <point x="406" y="424" type="line" smooth="yes"/>
      <point x="406" y="440"/>
      <point x="420" y="453"/>
      <point x="420" y="464" type="curve" smooth="yes"/>
      <point x="420" y="481"/>
      <point x="389" y="485"/>
      <point x="368" y="496" type="curve" smooth="yes"/>
      <point x="304" y="528" type="line" smooth="yes"/>
      <point x="261" y="549"/>
      <point x="255" y="560"/>
      <point x="244" y="560" type="curve" smooth="yes"/>
      <point x="231" y="560"/>
      <point x="224" y="544"/>
      <point x="208" y="528" type="curve" smooth="yes"/>
      <point x="192" y="512" type="line" smooth="yes"/>
      <point x="187" y="507"/>
      <point x="183" y="504"/>
      <point x="176" y="504" type="curve" smooth="yes"/>
      <point x="169" y="504"/>
      <point x="165" y="507"/>
      <point x="160" y="512" type="curve" smooth="yes"/>
      <point x="144" y="528" type="line" smooth="yes"/>
      <point x="128" y="544"/>
      <point x="121" y="560"/>
      <point x="108" y="560" type="curve" smooth="yes"/>
      <point x="95" y="560"/>
      <point x="88" y="544"/>
      <point x="72" y="528" type="curve" smooth="yes"/>
      <point x="44" y="500" type="line" smooth="yes"/>
      <point x="28" y="484"/>
      <point x="12" y="477"/>
      <point x="12" y="464" type="curve" smooth="yes"/>
      <point x="12" y="451"/>
      <point x="28" y="444"/>
      <point x="44" y="428" type="curve" smooth="yes"/>
      <point x="50" y="422" type="line" smooth="yes"/>
      <point x="55" y="417"/>
      <point x="58" y="411"/>
      <point x="58" y="400" type="curve" smooth="yes"/>
      <point x="58" y="-128" type="line" smooth="yes"/>
      <point x="58" y="-149"/>
      <point x="56" y="-171"/>
      <point x="56" y="-176" type="curve" smooth="yes"/>
      <point x="56" y="-184"/>
      <point x="63" y="-192"/>
      <point x="72" y="-192" type="curve" smooth="yes"/>
      <point x="83" y="-192"/>
      <point x="93" y="-177"/>
    </contour>
  </outline>
</glyph>
<glyph name="q" format="1">
  <advance width="464"/>
  <unicode hex="0071"/>
  <outline>
    <contour>
      <point x="336" y="-172" type="curve" smooth="yes"/>
      <point x="360" y="-160" type="line" smooth="yes"/>
      <point x="380" y="-149"/>
      <point x="408" y="-149"/>
      <point x="408" y="-132" type="curve" smooth="yes"/>
      <point x="408" y="-127"/>
      <point x="406" y="-105"/>
      <point x="406" y="-84" type="curve" smooth="yes"/>
      <point x="406" y="400" type="line" smooth="yes"/>
      <point x="406" y="411"/>
      <point x="409" y="417"/>
      <point x="414" y="422" type="curve" smooth="yes"/>
      <point x="420" y="428" type="line" smooth="yes"/>
      <point x="436" y="444"/>
      <point x="452" y="451"/>
      <point x="452" y="464" type="curve" smooth="yes"/>
      <point x="452" y="477"/>
      <point x="436" y="484"/>
      <point x="420" y="500" type="curve" smooth="yes"/>
      <point x="392" y="528" type="line" smooth="yes"/>
      <point x="376" y="544"/>
      <point x="369" y="560"/>
      <point x="356" y="560" type="curve" smooth="yes"/>
      <point x="343" y="560"/>
      <point x="336" y="544"/>
      <point x="320" y="528" type="curve" smooth="yes"/>
      <point x="304" y="512" type="line" smooth="yes"/>
      <point x="299" y="507"/>
      <point x="295" y="504"/>
      <point x="288" y="504" type="curve" smooth="yes"/>
      <point x="281" y="504"/>
      <point x="277" y="507"/>
      <point x="272" y="512" type="curve" smooth="yes"/>
      <point x="256" y="528" type="line" smooth="yes"/>
      <point x="240" y="544"/>
      <point x="233" y="560"/>
      <point x="220" y="560" type="curve" smooth="yes"/>
      <point x="209" y="560"/>
      <point x="203" y="549"/>
      <point x="160" y="528" type="curve" smooth="yes"/>
      <point x="96" y="496" type="line" smooth="yes"/>
      <point x="75" y="485"/>
      <point x="44" y="481"/>
      <point x="44" y="464" type="curve" smooth="yes"/>
      <point x="44" y="453"/>
      <point x="58" y="440"/>
      <point x="58" y="424" type="curve" smooth="yes"/>
      <point x="58" y="136" type="line" smooth="yes"/>
      <point x="58" y="120"/>
      <point x="44" y="107"/>
      <point x="44" y="96" type="curve" smooth="yes"/>
      <point x="44" y="79"/>
      <point x="75" y="75"/>
      <point x="96" y="64" type="curve" smooth="yes"/>
      <point x="160" y="32" type="line" smooth="yes"/>
      <point x="203" y="11"/>
      <point x="209" y="0"/>
      <point x="220" y="0" type="curve" smooth="yes"/>
      <point x="233" y="0"/>
      <point x="240" y="16"/>
      <point x="256" y="32" type="curve" smooth="yes"/>
      <point x="272" y="48" type="line" smooth="yes"/>
      <point x="276" y="52"/>
      <point x="278" y="55"/>
      <point x="282" y="55" type="curve" smooth="yes"/>
      <point x="286" y="55"/>
      <point x="290" y="53"/>
      <point x="290" y="46" type="curve" smooth="yes"/>
      <point x="290" y="-128" type="line" smooth="yes"/>
      <point x="290" y="-149"/>
      <point x="288" y="-171"/>
      <point x="288" y="-176" type="curve" smooth="yes"/>
      <point x="288" y="-184"/>
      <point x="295" y="-192"/>
      <point x="304" y="-192" type="curve" smooth="yes"/>
      <point x="315" y="-192"/>
      <point x="325" y="-177"/>
    </contour>
    <contour>
      <point x="191" y="165" type="line" smooth="yes"/>
      <point x="182" y="169"/>
      <point x="175" y="175"/>
      <point x="175" y="184" type="curve" smooth="yes"/>
      <point x="175" y="376" type="line" smooth="yes"/>
      <point x="175" y="385"/>
      <point x="182" y="391"/>
      <point x="191" y="395" type="curve" smooth="yes"/>
      <point x="249" y="424" type="line" smooth="yes"/>
      <point x="260" y="429"/>
      <point x="267" y="432"/>
      <point x="275" y="432" type="curve" smooth="yes"/>
      <point x="283" y="432"/>
      <point x="291" y="427"/>
      <point x="291" y="416" type="curve" smooth="yes"/>
      <point x="291" y="144" type="line" smooth="yes"/>
      <point x="291" y="133"/>
      <point x="283" y="128"/>
      <point x="275" y="128" type="curve" smooth="yes"/>
      <point x="267" y="128"/>
      <point x="260" y="131"/>
      <point x="249" y="136" type="curve" smooth="yes"/>
    </contour>
  </outline>
</glyph>
<glyph name="r" format="1">
  <advance width="352"/>
  <unicode hex="0072"/>
  <outline>
    <contour>
      <point x="188" y="60" type="line" smooth="yes"/>
      <point x="204" y="76"/>
      <point x="220" y="83"/>
      <point x="220" y="96" type="curve" smooth="yes"/>
      <point x="220" y="109"/>
      <point x="204" y="116"/>
      <point x="188" y="132" type="curve" smooth="yes"/>
      <point x="182" y="138" type="line" smooth="yes"/>
      <point x="177" y="143"/>
      <point x="174" y="149"/>
      <point x="174" y="160" type="curve" smooth="yes"/>
      <point x="174" y="396" type="line" smooth="yes"/>
      <point x="174" y="404"/>
      <point x="181" y="412"/>
      <point x="190" y="412" type="curve" smooth="yes"/>
      <point x="198" y="412"/>
      <point x="204" y="404"/>
      <point x="204" y="404" type="curve"/>
      <point x="225" y="383"/>
      <point x="231" y="368"/>
      <point x="244" y="368" type="curve" smooth="yes"/>
      <point x="257" y="368"/>
      <point x="264" y="384"/>
      <point x="280" y="400" type="curve" smooth="yes"/>
      <point x="308" y="428" type="line" smooth="yes"/>
      <point x="324" y="444"/>
      <point x="340" y="451"/>
      <point x="340" y="464" type="curve" smooth="yes"/>
      <point x="340" y="477"/>
      <point x="324" y="484"/>
      <point x="308" y="500" type="curve" smooth="yes"/>
      <point x="280" y="528" type="line" smooth="yes"/>
      <point x="264" y="544"/>
      <point x="257" y="560"/>
      <point x="244" y="560" type="curve" smooth="yes"/>
      <point x="231" y="560"/>
      <point x="224" y="544"/>
      <point x="208" y="528" type="curve" smooth="yes"/>
      <point x="192" y="512" type="line" smooth="yes"/>
      <point x="187" y="507"/>
      <point x="183" y="504"/>
      <point x="176" y="504" type="curve" smooth="yes"/>
      <point x="169" y="504"/>
      <point x="165" y="507"/>
      <point x="160" y="512" type="curve" smooth="yes"/>
      <point x="144" y="528" type="line" smooth="yes"/>
      <point x="128" y="544"/>
      <point x="121" y="560"/>
      <point x="108" y="560" type="curve" smooth="yes"/>
      <point x="95" y="560"/>
      <point x="88" y="544"/>
      <point x="72" y="528" type="curve" smooth="yes"/>
      <point x="44" y="500" type="line" smooth="yes"/>
      <point x="28" y="484"/>
      <point x="12" y="477"/>
      <point x="12" y="464" type="curve" smooth="yes"/>
      <point x="12" y="451"/>
      <point x="28" y="444"/>
      <point x="44" y="428" type="curve" smooth="yes"/>
      <point x="50" y="422" type="line" smooth="yes"/>
      <point x="55" y="417"/>
      <point x="58" y="411"/>
      <point x="58" y="400" type="curve" smooth="yes"/>
      <point x="58" y="144" type="line" smooth="yes"/>
      <point x="58" y="133"/>
      <point x="53" y="126"/>
      <point x="48" y="121" type="curve" smooth="yes"/>
      <point x="43" y="116"/>
      <point x="28" y="109"/>
      <point x="28" y="96" type="curve" smooth="yes"/>
      <point x="28" y="83"/>
      <point x="44" y="76"/>
      <point x="60" y="60" type="curve" smooth="yes"/>
      <point x="88" y="32" type="line" smooth="yes"/>
      <point x="104" y="16"/>
      <point x="111" y="0"/>
      <point x="124" y="0" type="curve" smooth="yes"/>
      <point x="137" y="0"/>
      <point x="144" y="16"/>
      <point x="160" y="32" type="curve" smooth="yes"/>
    </contour>
  </outline>
</glyph>
<glyph name="s" format="1">
  <advance width="444"/>
  <unicode hex="0073"/>
  <outline>
    <contour>
      <point x="274" y="1" type="curve" smooth="yes"/>
      <point x="287" y="1"/>
      <point x="294" y="17"/>
      <point x="310" y="33" type="curve" smooth="yes"/>
      <point x="378" y="101" type="line" smooth="yes"/>
      <point x="394" y="117"/>
      <point x="410" y="124"/>
      <point x="410" y="137" type="curve" smooth="yes"/>
      <point x="410" y="150"/>
      <point x="396" y="156"/>
      <point x="396" y="177" type="curve" smooth="yes"/>
      <point x="396" y="292" type="line" smooth="yes"/>
      <point x="396" y="316"/>
      <point x="390" y="328"/>
      <point x="374" y="344" type="curve" smooth="yes"/>
      <point x="337" y="381"/>
      <point x="336" y="382"/>
      <point x="336" y="384" type="curve"/>
      <point x="394" y="444"/>
      <point x="410" y="451"/>
      <point x="410" y="464" type="curve" smooth="yes"/>
      <point x="410" y="481"/>
      <point x="383" y="480"/>
      <point x="358" y="489" type="curve" smooth="yes"/>
      <point x="230" y="536" type="line" smooth="yes"/>
      <point x="180" y="553"/>
      <point x="183" y="560"/>
      <point x="170" y="560" type="curve" smooth="yes"/>
      <point x="157" y="560"/>
      <point x="150" y="544"/>
      <point x="134" y="528" type="curve" smooth="yes"/>
      <point x="66" y="460" type="line" smooth="yes"/>
      <point x="50" y="444"/>
      <point x="34" y="437"/>
      <point x="34" y="424" type="curve" smooth="yes"/>
      <point x="34" y="411"/>
      <point x="48" y="405"/>
      <point x="48" y="384" type="curve" smooth="yes"/>
      <point x="48" y="256" type="line" smooth="yes"/>
      <point x="48" y="224"/>
      <point x="62" y="216"/>
      <point x="78" y="200" type="curve" smooth="yes"/>
      <point x="103" y="175"/>
      <point x="104" y="174"/>
      <point x="104" y="172" type="curve"/>
      <point x="50" y="117"/>
      <point x="34" y="110"/>
      <point x="34" y="97" type="curve" smooth="yes"/>
      <point x="34" y="80"/>
      <point x="61" y="81"/>
      <point x="86" y="72" type="curve" smooth="yes"/>
      <point x="214" y="25" type="line" smooth="yes"/>
      <point x="264" y="8"/>
      <point x="261" y="1"/>
    </contour>
    <contour>
      <point x="194" y="288" type="curve" smooth="yes"/>
      <point x="191" y="288"/>
      <point x="189" y="289"/>
      <point x="187" y="291" type="curve" smooth="yes"/>
      <point x="175" y="303"/>
      <point x="164" y="313"/>
      <point x="164" y="336" type="curve" smooth="yes"/>
      <point x="164" y="406" type="line" smooth="yes"/>
      <point x="164" y="410"/>
      <point x="168" y="414"/>
      <point x="172" y="414" type="curve" smooth="yes"/>
      <point x="176" y="414"/>
      <point x="180" y="415"/>
      <point x="188" y="412" type="curve" smooth="yes"/>
      <point x="275" y="383" type="line" smooth="yes"/>
      <point x="281" y="381"/>
      <point x="283" y="379"/>
      <point x="283" y="376" type="curve" smooth="yes"/>
      <point x="283" y="373"/>
      <point x="282" y="372"/>
      <point x="278" y="368" type="curve" smooth="yes"/>
      <point x="201" y="291" type="line" smooth="yes"/>
      <point x="199" y="289"/>
      <point x="197" y="288"/>
    </contour>
    <contour>
      <point x="256" y="149" type="curve" smooth="yes"/>
      <point x="151" y="184" type="line" smooth="yes"/>
      <point x="148" y="185"/>
      <point x="144" y="187"/>
      <point x="144" y="190" type="curve" smooth="yes"/>
      <point x="144" y="193"/>
      <point x="145" y="195"/>
      <point x="150" y="200" type="curve" smooth="yes"/>
      <point x="227" y="277" type="line" smooth="yes"/>
      <point x="229" y="279"/>
      <point x="231" y="280"/>
      <point x="234" y="280" type="curve" smooth="yes"/>
      <point x="237" y="280"/>
      <point x="239" y="279"/>
      <point x="241" y="277" type="curve" smooth="yes"/>
      <point x="261" y="257" type="line" smooth="yes"/>
      <point x="271" y="247"/>
      <point x="280" y="237"/>
      <point x="280" y="216" type="curve" smooth="yes"/>
      <point x="280" y="155" type="line" smooth="yes"/>
      <point x="280" y="151"/>
      <point x="276" y="147"/>
      <point x="272" y="147" type="curve" smooth="yes"/>
      <point x="268" y="147"/>
      <point x="264" y="146"/>
    </contour>
  </outline>
</glyph>
<glyph name="t" format="1">
  <advance width="356"/>
  <unicode hex="0074"/>
  <outline>
    <contour>
      <point x="308" y="100" type="line" smooth="yes"/>
      <point x="319" y="111"/>
      <point x="340" y="123"/>
      <point x="340" y="136" type="curve" smooth="yes"/>
      <point x="340" y="144"/>
      <point x="333" y="152"/>
      <point x="324" y="152" type="curve" smooth="yes"/>
      <point x="312" y="152"/>
      <point x="305" y="137"/>
      <point x="300" y="132" type="curve" smooth="yes"/>
      <point x="296" y="128" type="line" smooth="yes"/>
      <point x="288" y="120"/>
      <point x="284" y="116"/>
      <point x="276" y="116" type="curve" smooth="yes"/>
      <point x="271" y="116"/>
      <point x="269" y="117"/>
      <point x="248" y="128" type="curve" smooth="yes"/>
      <point x="188" y="158" type="line" smooth="yes"/>
      <point x="177" y="163"/>
      <point x="174" y="165"/>
      <point x="174" y="176" type="curve" smooth="yes"/>
      <point x="174" y="402" type="line" smooth="yes"/>
      <point x="174" y="410"/>
      <point x="181" y="418"/>
      <point x="190" y="418" type="curve" smooth="yes"/>
      <point x="237" y="418" type="line" smooth="yes"/>
      <point x="248" y="418"/>
      <point x="258" y="416"/>
      <point x="271" y="416" type="curve" smooth="yes"/>
      <point x="286" y="416"/>
      <point x="298" y="439"/>
      <point x="307" y="448" type="curve" smooth="yes"/>
      <point x="335" y="476" type="line" smooth="yes"/>
      <point x="346" y="487"/>
      <point x="367" y="499"/>
      <point x="367" y="512" type="curve" smooth="yes"/>
      <point x="367" y="520"/>
      <point x="360" y="528"/>
      <point x="351" y="528" type="curve" smooth="yes"/>
      <point x="342" y="528"/>
      <point x="332" y="526"/>
      <point x="321" y="526" type="curve" smooth="yes"/>
      <point x="191" y="526" type="line" smooth="yes"/>
      <point x="182" y="526"/>
      <point x="176" y="534"/>
      <point x="176" y="542" type="curve" smooth="yes"/>
      <point x="175" y="580" type="line" smooth="yes"/>
      <point x="175" y="604"/>
      <point x="171" y="612"/>
      <point x="158" y="612" type="curve" smooth="yes"/>
      <point x="145" y="612"/>
      <point x="135" y="597"/>
      <point x="122" y="580" type="curve"/>
      <point x="10" y="468" type="line"/>
      <point x="1" y="456"/>
      <point x="-22" y="445"/>
      <point x="-22" y="432" type="curve" smooth="yes"/>
      <point x="-22" y="424"/>
      <point x="-15" y="416"/>
      <point x="-6" y="416" type="curve" smooth="yes"/>
      <point x="3" y="416"/>
      <point x="13" y="418"/>
      <point x="24" y="418" type="curve" smooth="yes"/>
      <point x="42" y="418" type="line" smooth="yes"/>
      <point x="51" y="418"/>
      <point x="58" y="410"/>
      <point x="58" y="402" type="curve" smooth="yes"/>
      <point x="58" y="144" type="line" smooth="yes"/>
      <point x="58" y="133"/>
      <point x="53" y="126"/>
      <point x="48" y="121" type="curve" smooth="yes"/>
      <point x="43" y="116"/>
      <point x="28" y="109"/>
      <point x="28" y="96" type="curve" smooth="yes"/>
      <point x="28" y="79"/>
      <point x="59" y="75"/>
      <point x="80" y="64" type="curve" smooth="yes"/>
      <point x="148" y="30" type="line" smooth="yes"/>
      <point x="169" y="19"/>
      <point x="193" y="0"/>
      <point x="204" y="0" type="curve" smooth="yes"/>
      <point x="217" y="0"/>
      <point x="229" y="21"/>
      <point x="240" y="32" type="curve" smooth="yes"/>
    </contour>
  </outline>
</glyph>
<glyph name="v" format="1">
  <advance width="416"/>
  <unicode hex="0076"/>
  <outline>
    <contour>
      <point x="188" y="0" type="curve" smooth="yes"/>
      <point x="189" y="0" type="line" smooth="yes"/>
      <point x="198" y="0"/>
      <point x="209" y="7"/>
      <point x="220" y="12" type="curve" smooth="yes"/>
      <point x="274" y="39"/>
      <point x="371" y="111"/>
      <point x="374" y="233" type="curve" smooth="yes"/>
      <point x="374" y="416" type="line" smooth="yes"/>
      <point x="374" y="427"/>
      <point x="379" y="434"/>
      <point x="384" y="439" type="curve" smooth="yes"/>
      <point x="389" y="444"/>
      <point x="404" y="451"/>
      <point x="404" y="464" type="curve" smooth="yes"/>
      <point x="404" y="477"/>
      <point x="388" y="484"/>
      <point x="372" y="500" type="curve" smooth="yes"/>
      <point x="344" y="528" type="line" smooth="yes"/>
      <point x="328" y="544"/>
      <point x="321" y="560"/>
      <point x="308" y="560" type="curve" smooth="yes"/>
      <point x="295" y="560"/>
      <point x="288" y="544"/>
      <point x="272" y="528" type="curve" smooth="yes"/>
      <point x="244" y="500" type="line" smooth="yes"/>
      <point x="228" y="484"/>
      <point x="212" y="477"/>
      <point x="212" y="464" type="curve" smooth="yes"/>
      <point x="212" y="451"/>
      <point x="228" y="444"/>
      <point x="244" y="428" type="curve" smooth="yes"/>
      <point x="250" y="422" type="line" smooth="yes"/>
      <point x="255" y="417"/>
      <point x="258" y="411"/>
      <point x="258" y="400" type="curve" smooth="yes"/>
      <point x="258" y="224" type="line" smooth="yes"/>
      <point x="258" y="182"/>
      <point x="257" y="154"/>
      <point x="254" y="133" type="curve"/>
      <point x="251" y="130"/>
      <point x="246" y="128"/>
      <point x="242" y="128" type="curve" smooth="yes"/>
      <point x="234" y="128"/>
      <point x="227" y="131"/>
      <point x="216" y="136" type="curve" smooth="yes"/>
      <point x="158" y="165" type="line" smooth="yes"/>
      <point x="149" y="169"/>
      <point x="142" y="175"/>
      <point x="142" y="184" type="curve" smooth="yes"/>
      <point x="142" y="336" type="line" smooth="yes"/>
      <point x="142" y="475"/>
      <point x="151" y="473"/>
      <point x="178" y="500" type="curve" smooth="yes"/>
      <point x="190" y="512" type="line" smooth="yes"/>
      <point x="201" y="523"/>
      <point x="222" y="531"/>
      <point x="222" y="544" type="curve" smooth="yes"/>
      <point x="222" y="552"/>
      <point x="215" y="560"/>
      <point x="206" y="560" type="curve" smooth="yes"/>
      <point x="195" y="560"/>
      <point x="185" y="553"/>
      <point x="174" y="548" type="curve" smooth="yes"/>
      <point x="120" y="521"/>
      <point x="26" y="447"/>
      <point x="26" y="324" type="curve" smooth="yes"/>
      <point x="26" y="136" type="line" smooth="yes"/>
      <point x="26" y="120"/>
      <point x="12" y="107"/>
      <point x="12" y="96" type="curve" smooth="yes"/>
      <point x="12" y="79"/>
      <point x="43" y="75"/>
      <point x="64" y="64" type="curve" smooth="yes"/>
      <point x="128" y="32" type="line" smooth="yes"/>
      <point x="163" y="15"/>
      <point x="174" y="4"/>
      <point x="182" y="1" type="curve"/>
      <point x="183" y="1"/>
      <point x="183" y="0"/>
      <point x="184" y="0" type="curve" smooth="yes"/>
      <point x="185" y="0"/>
      <point x="184" y="0"/>
      <point x="183" y="1" type="curve"/>
      <point x="184" y="0"/>
      <point x="187" y="0"/>
    </contour>
  </outline>
</glyph>
<glyph name="w" format="1">
  <advance width="696"/>
  <unicode hex="0077"/>
  <outline>
    <contour>
      <point x="624" y="32" type="curve" smooth="yes"/>
      <point x="652" y="60" type="line" smooth="yes"/>
      <point x="668" y="76"/>
      <point x="684" y="83"/>
      <point x="684" y="96" type="curve" smooth="yes"/>
      <point x="684" y="109"/>
      <point x="668" y="116"/>
      <point x="652" y="132" type="curve" smooth="yes"/>
      <point x="646" y="138" type="line" smooth="yes"/>
      <point x="641" y="143"/>
      <point x="638" y="149"/>
      <point x="638" y="160" type="curve" smooth="yes"/>
      <point x="638" y="416" type="line" smooth="yes"/>
      <point x="638" y="427"/>
      <point x="643" y="434"/>
      <point x="648" y="439" type="curve" smooth="yes"/>
      <point x="653" y="444"/>
      <point x="668" y="451"/>
      <point x="668" y="464" type="curve" smooth="yes"/>
      <point x="668" y="477"/>
      <point x="652" y="484"/>
      <point x="636" y="500" type="curve" smooth="yes"/>
      <point x="608" y="528" type="line" smooth="yes"/>
      <point x="592" y="544"/>
      <point x="585" y="560"/>
      <point x="572" y="560" type="curve" smooth="yes"/>
      <point x="559" y="560"/>
      <point x="552" y="544"/>
      <point x="536" y="528" type="curve" smooth="yes"/>
      <point x="508" y="500" type="line" smooth="yes"/>
      <point x="492" y="484"/>
      <point x="476" y="477"/>
      <point x="476" y="464" type="curve" smooth="yes"/>
      <point x="476" y="451"/>
      <point x="492" y="444"/>
      <point x="508" y="428" type="curve" smooth="yes"/>
      <point x="514" y="422" type="line" smooth="yes"/>
      <point x="519" y="417"/>
      <point x="522" y="411"/>
      <point x="522" y="400" type="curve" smooth="yes"/>
      <point x="522" y="144" type="line" smooth="yes"/>
      <point x="522" y="133"/>
      <point x="514" y="128"/>
      <point x="506" y="128" type="curve" smooth="yes"/>
      <point x="498" y="128"/>
      <point x="491" y="131"/>
      <point x="480" y="136" type="curve" smooth="yes"/>
      <point x="422" y="165" type="line" smooth="yes"/>
      <point x="413" y="169"/>
      <point x="406" y="175"/>
      <point x="406" y="184" type="curve" smooth="yes"/>
      <point x="406" y="416" type="line" smooth="yes"/>
      <point x="406" y="427"/>
      <point x="411" y="434"/>
      <point x="416" y="439" type="curve" smooth="yes"/>
      <point x="421" y="444"/>
      <point x="436" y="451"/>
      <point x="436" y="464" type="curve" smooth="yes"/>
      <point x="436" y="477"/>
      <point x="420" y="484"/>
      <point x="404" y="500" type="curve" smooth="yes"/>
      <point x="376" y="528" type="line" smooth="yes"/>
      <point x="360" y="544"/>
      <point x="353" y="560"/>
      <point x="340" y="560" type="curve" smooth="yes"/>
      <point x="327" y="560"/>
      <point x="320" y="544"/>
      <point x="304" y="528" type="curve" smooth="yes"/>
      <point x="276" y="500" type="line" smooth="yes"/>
      <point x="260" y="484"/>
      <point x="244" y="477"/>
      <point x="244" y="464" type="curve" smooth="yes"/>
      <point x="244" y="451"/>
      <point x="260" y="444"/>
      <point x="276" y="428" type="curve" smooth="yes"/>
      <point x="282" y="422" type="line" smooth="yes"/>
      <point x="287" y="417"/>
      <point x="290" y="411"/>
      <point x="290" y="400" type="curve" smooth="yes"/>
      <point x="290" y="144" type="line" smooth="yes"/>
      <point x="290" y="133"/>
      <point x="282" y="128"/>
      <point x="274" y="128" type="curve" smooth="yes"/>
      <point x="266" y="128"/>
      <point x="259" y="131"/>
      <point x="248" y="136" type="curve" smooth="yes"/>
      <point x="190" y="165" type="line" smooth="yes"/>
      <point x="181" y="169"/>
      <point x="174" y="175"/>
      <point x="174" y="184" type="curve" smooth="yes"/>
      <point x="174" y="416" type="line" smooth="yes"/>
      <point x="174" y="427"/>
      <point x="179" y="434"/>
      <point x="184" y="439" type="curve" smooth="yes"/>
      <point x="189" y="444"/>
      <point x="204" y="451"/>
      <point x="204" y="464" type="curve" smooth="yes"/>
      <point x="204" y="477"/>
      <point x="188" y="484"/>
      <point x="172" y="500" type="curve" smooth="yes"/>
      <point x="144" y="528" type="line" smooth="yes"/>
      <point x="128" y="544"/>
      <point x="121" y="560"/>
      <point x="108" y="560" type="curve" smooth="yes"/>
      <point x="95" y="560"/>
      <point x="88" y="544"/>
      <point x="72" y="528" type="curve" smooth="yes"/>
      <point x="44" y="500" type="line" smooth="yes"/>
      <point x="28" y="484"/>
      <point x="12" y="477"/>
      <point x="12" y="464" type="curve" smooth="yes"/>
      <point x="12" y="451"/>
      <point x="28" y="444"/>
      <point x="44" y="428" type="curve" smooth="yes"/>
      <point x="50" y="422" type="line" smooth="yes"/>
      <point x="55" y="417"/>
      <point x="58" y="411"/>
      <point x="58" y="400" type="curve" smooth="yes"/>
      <point x="58" y="136" type="line" smooth="yes"/>
      <point x="58" y="120"/>
      <point x="44" y="107"/>
      <point x="44" y="96" type="curve" smooth="yes"/>
      <point x="44" y="79"/>
      <point x="75" y="75"/>
      <point x="96" y="64" type="curve" smooth="yes"/>
      <point x="160" y="32" type="line" smooth="yes"/>
      <point x="203" y="11"/>
      <point x="209" y="0"/>
      <point x="220" y="0" type="curve" smooth="yes"/>
      <point x="233" y="0"/>
      <point x="240" y="16"/>
      <point x="256" y="32" type="curve" smooth="yes"/>
      <point x="299" y="75" type="line"/>
      <point x="308" y="72"/>
      <point x="319" y="68"/>
      <point x="328" y="64" type="curve" smooth="yes"/>
      <point x="392" y="32" type="line" smooth="yes"/>
      <point x="436" y="11"/>
      <point x="441" y="0"/>
      <point x="452" y="0" type="curve" smooth="yes"/>
      <point x="465" y="0"/>
      <point x="472" y="16"/>
      <point x="488" y="32" type="curve" smooth="yes"/>
      <point x="504" y="48" type="line" smooth="yes"/>
      <point x="509" y="53"/>
      <point x="513" y="56"/>
      <point x="520" y="56" type="curve" smooth="yes"/>
      <point x="527" y="56"/>
      <point x="531" y="53"/>
      <point x="536" y="48" type="curve" smooth="yes"/>
      <point x="552" y="32" type="line" smooth="yes"/>
      <point x="568" y="16"/>
      <point x="575" y="0"/>
      <point x="588" y="0" type="curve" smooth="yes"/>
      <point x="601" y="0"/>
      <point x="608" y="16"/>
    </contour>
  </outline>
</glyph>
<glyph name="x" format="1">
  <advance width="450"/>
  <unicode hex="0078"/>
  <outline>
    <contour>
      <point x="356" y="0" type="curve" smooth="yes"/>
      <point x="369" y="0"/>
      <point x="376" y="16"/>
      <point x="392" y="32" type="curve" smooth="yes"/>
      <point x="420" y="60" type="line" smooth="yes"/>
      <point x="436" y="76"/>
      <point x="452" y="83"/>
      <point x="452" y="96" type="curve" smooth="yes"/>
      <point x="452" y="105"/>
      <point x="439" y="115"/>
      <point x="420" y="134" type="curve" smooth="yes"/>
      <point x="412" y="142" type="line" smooth="yes"/>
      <point x="377" y="177"/>
      <point x="335" y="245"/>
      <point x="292" y="315" type="curve"/>
      <point x="405" y="428" type="line" smooth="yes"/>
      <point x="421" y="444"/>
      <point x="437" y="451"/>
      <point x="437" y="464" type="curve" smooth="yes"/>
      <point x="437" y="477"/>
      <point x="421" y="484"/>
      <point x="405" y="500" type="curve" smooth="yes"/>
      <point x="377" y="528" type="line" smooth="yes"/>
      <point x="361" y="544"/>
      <point x="354" y="560"/>
      <point x="341" y="560" type="curve" smooth="yes"/>
      <point x="328" y="560"/>
      <point x="320" y="544"/>
      <point x="304" y="528" type="curve" smooth="yes"/>
      <point x="277" y="500" type="line" smooth="yes"/>
      <point x="261" y="484"/>
      <point x="245" y="477"/>
      <point x="245" y="464" type="curve" smooth="yes"/>
      <point x="245" y="451"/>
      <point x="261" y="444"/>
      <point x="277" y="428" type="curve" smooth="yes"/>
      <point x="305" y="400" type="line" smooth="yes"/>
      <point x="314" y="391"/>
      <point x="320" y="382"/>
      <point x="326" y="376" type="curve"/>
      <point x="281" y="331" type="line"/>
      <point x="235" y="408"/>
      <point x="188" y="484"/>
      <point x="152" y="520" type="curve" smooth="yes"/>
      <point x="144" y="528" type="line" smooth="yes"/>
      <point x="128" y="544"/>
      <point x="121" y="560"/>
      <point x="108" y="560" type="curve" smooth="yes"/>
      <point x="95" y="560"/>
      <point x="88" y="544"/>
      <point x="72" y="528" type="curve" smooth="yes"/>
      <point x="44" y="500" type="line" smooth="yes"/>
      <point x="28" y="484"/>
      <point x="12" y="477"/>
      <point x="12" y="464" type="curve" smooth="yes"/>
      <point x="12" y="455"/>
      <point x="25" y="445"/>
      <point x="44" y="426" type="curve" smooth="yes"/>
      <point x="52" y="418" type="line" smooth="yes"/>
      <point x="87" y="383"/>
      <point x="130" y="315"/>
      <point x="174" y="245" type="curve"/>
      <point x="61" y="132" type="line" smooth="yes"/>
      <point x="45" y="116"/>
      <point x="29" y="109"/>
      <point x="29" y="96" type="curve" smooth="yes"/>
      <point x="29" y="83"/>
      <point x="45" y="76"/>
      <point x="61" y="60" type="curve" smooth="yes"/>
      <point x="89" y="32" type="line" smooth="yes"/>
      <point x="105" y="16"/>
      <point x="112" y="0"/>
      <point x="125" y="0" type="curve" smooth="yes"/>
      <point x="138" y="0"/>
      <point x="145" y="16"/>
      <point x="161" y="32" type="curve" smooth="yes"/>
      <point x="189" y="60" type="line" smooth="yes"/>
      <point x="205" y="76"/>
      <point x="221" y="83"/>
      <point x="221" y="96" type="curve" smooth="yes"/>
      <point x="221" y="109"/>
      <point x="205" y="116"/>
      <point x="189" y="132" type="curve" smooth="yes"/>
      <point x="161" y="160" type="line" smooth="yes"/>
      <point x="152" y="169"/>
      <point x="146" y="178"/>
      <point x="140" y="184" type="curve"/>
      <point x="184" y="228" type="line"/>
      <point x="231" y="151"/>
      <point x="278" y="74"/>
      <point x="312" y="40" type="curve" smooth="yes"/>
      <point x="320" y="32" type="line" smooth="yes"/>
      <point x="336" y="16"/>
      <point x="343" y="0"/>
    </contour>
  </outline>
</glyph>
<glyph name="y" format="1">
  <advance width="464"/>
  <unicode hex="0079"/>
  <outline>
    <contour>
      <point x="58" y="400" type="curve" smooth="yes"/>
      <point x="58" y="136" type="line" smooth="yes"/>
      <point x="58" y="120"/>
      <point x="44" y="107"/>
      <point x="44" y="96" type="curve" smooth="yes"/>
      <point x="44" y="79"/>
      <point x="75" y="75"/>
      <point x="96" y="64" type="curve" smooth="yes"/>
      <point x="160" y="32" type="line" smooth="yes"/>
      <point x="203" y="11"/>
      <point x="209" y="0"/>
      <point x="220" y="0" type="curve" smooth="yes"/>
      <point x="233" y="0"/>
      <point x="240" y="16"/>
      <point x="256" y="32" type="curve" smooth="yes"/>
      <point x="272" y="48" type="line" smooth="yes"/>
      <point x="277" y="53"/>
      <point x="281" y="56"/>
      <point x="284" y="56" type="curve" smooth="yes"/>
      <point x="289" y="56"/>
      <point x="290" y="49"/>
      <point x="290" y="45" type="curve" smooth="yes"/>
      <point x="290" y="-172" type="line" smooth="yes"/>
      <point x="290" y="-183"/>
      <point x="297" y="-192"/>
      <point x="310" y="-192" type="curve" smooth="yes"/>
      <point x="323" y="-192"/>
      <point x="330" y="-176"/>
      <point x="346" y="-160" type="curve" smooth="yes"/>
      <point x="374" y="-132" type="line" smooth="yes"/>
      <point x="390" y="-116"/>
      <point x="406" y="-109"/>
      <point x="406" y="-96" type="curve" smooth="yes"/>
      <point x="406" y="416" type="line" smooth="yes"/>
      <point x="406" y="427"/>
      <point x="411" y="434"/>
      <point x="416" y="439" type="curve" smooth="yes"/>
      <point x="421" y="444"/>
      <point x="436" y="451"/>
      <point x="436" y="464" type="curve" smooth="yes"/>
      <point x="436" y="477"/>
      <point x="420" y="484"/>
      <point x="404" y="500" type="curve" smooth="yes"/>
      <point x="376" y="528" type="line" smooth="yes"/>
      <point x="360" y="544"/>
      <point x="353" y="560"/>
      <point x="340" y="560" type="curve" smooth="yes"/>
      <point x="327" y="560"/>
      <point x="320" y="544"/>
      <point x="304" y="528" type="curve" smooth="yes"/>
      <point x="276" y="500" type="line" smooth="yes"/>
      <point x="260" y="484"/>
      <point x="244" y="477"/>
      <point x="244" y="464" type="curve" smooth="yes"/>
      <point x="244" y="451"/>
      <point x="260" y="444"/>
      <point x="276" y="428" type="curve" smooth="yes"/>
      <point x="282" y="422" type="line" smooth="yes"/>
      <point x="287" y="417"/>
      <point x="290" y="411"/>
      <point x="290" y="400" type="curve" smooth="yes"/>
      <point x="290" y="144" type="line" smooth="yes"/>
      <point x="290" y="133"/>
      <point x="282" y="128"/>
      <point x="274" y="128" type="curve" smooth="yes"/>
      <point x="266" y="128"/>
      <point x="259" y="131"/>
      <point x="248" y="136" type="curve" smooth="yes"/>
      <point x="190" y="165" type="line" smooth="yes"/>
      <point x="181" y="169"/>
      <point x="174" y="175"/>
      <point x="174" y="184" type="curve" smooth="yes"/>
      <point x="174" y="416" type="line" smooth="yes"/>
      <point x="174" y="427"/>
      <point x="179" y="434"/>
      <point x="184" y="439" type="curve" smooth="yes"/>
      <point x="189" y="444"/>
      <point x="204" y="451"/>
      <point x="204" y="464" type="curve" smooth="yes"/>
      <point x="204" y="477"/>
      <point x="188" y="484"/>
      <point x="172" y="500" type="curve" smooth="yes"/>
      <point x="144" y="528" type="line" smooth="yes"/>
      <point x="128" y="544"/>
      <point x="121" y="560"/>
      <point x="108" y="560" type="curve" smooth="yes"/>
      <point x="95" y="560"/>
      <point x="88" y="544"/>
      <point x="72" y="528" type="curve" smooth="yes"/>
      <point x="44" y="500" type="line" smooth="yes"/>
      <point x="28" y="484"/>
      <point x="12" y="477"/>
      <point x="12" y="464" type="curve" smooth="yes"/>
      <point x="12" y="451"/>
      <point x="28" y="444"/>
      <point x="44" y="428" type="curve" smooth="yes"/>
      <point x="50" y="422" type="line" smooth="yes"/>
      <point x="55" y="417"/>
      <point x="58" y="411"/>
    </contour>
  </outline>
</glyph>
